<svg width="24" height="24" viewBox="0 0 24 24" fill="none" xmlns="http://www.w3.org/2000/svg">
<path d="M16.2817 12.5324C16.352 12.4626 16.4078 12.3797 16.4458 12.2883C16.4839 12.1969 16.5035 12.0989 16.5035 11.9999C16.5035 11.9009 16.4839 11.8028 16.4458 11.7114C16.4078 11.62 16.352 11.5371 16.2817 11.4674L8.78166 3.96736C8.71173 3.89743 8.62872 3.84196 8.53735 3.80412C8.44598 3.76627 8.34806 3.74679 8.24916 3.74679C8.15027 3.74679 8.05234 3.76627 7.96097 3.80412C7.86961 3.84196 7.78659 3.89743 7.71666 3.96736C7.64673 4.03729 7.59126 4.12031 7.55342 4.21167C7.51557 4.30304 7.49609 4.40097 7.49609 4.49986C7.49609 4.59875 7.51557 4.69668 7.55342 4.78805C7.59126 4.87941 7.64673 4.96243 7.71666 5.03236L14.6917 11.9999L7.71666 18.9674C7.57543 19.1086 7.49609 19.3001 7.49609 19.4999C7.49609 19.6996 7.57543 19.8911 7.71666 20.0324C7.85789 20.1736 8.04944 20.2529 8.24916 20.2529C8.44889 20.2529 8.64043 20.1736 8.78166 20.0324L16.2817 12.5324Z" fill="black" fill-opacity="0.6"/>
</svg>
