<svg width="34" height="34" viewBox="0 0 34 34" fill="none" xmlns="http://www.w3.org/2000/svg">
<path d="M33.3201 5.35489V30.367C33.3201 31.5176 32.3873 32.4504 31.2366 32.4504H2.76346C1.61283 32.4504 0.680054 31.5176 0.680054 30.367V5.35489C0.680054 4.20426 1.61283 3.27148 2.76346 3.27148H31.2366C32.3873 3.27148 33.3201 4.20426 33.3201 5.35489Z" fill="#E4E3FF"/>
<path d="M33.3196 5.35187V30.3691C33.3196 31.5183 32.3881 32.4499 31.239 32.4499H2.76048C1.82896 32.4499 1.04687 31.8446 0.781738 31.0014C0.985771 31.0694 1.19645 31.1035 1.4209 31.1035H29.8924C31.0417 31.1035 31.9732 30.1719 31.9732 29.0227V4.00544C31.9732 3.78107 31.9394 3.57027 31.8713 3.37305C32.7145 3.63826 33.3196 4.42027 33.3196 5.35187Z" fill="#D0D0F7"/>
<path d="M33.3201 12.6908V6.67203C33.3201 5.52139 32.3873 4.58862 31.2366 4.58862H2.76346C1.61283 4.58862 0.680054 5.52139 0.680054 6.67203V12.6908H33.3201Z" fill="#D0D0F7"/>
<path d="M33.3201 11.3736V5.35489C33.3201 4.20426 32.3873 3.27148 31.2366 3.27148H2.76346C1.61283 3.27148 0.680054 4.20426 0.680054 5.35489V11.3736H33.3201Z" fill="#F9B938"/>
<path d="M11.0005 7.37639C11.0005 8.26585 10.2714 8.99493 9.38197 8.99493C8.48521 8.99493 7.76343 8.26585 7.76343 7.37639C7.76343 6.47959 8.48521 5.75781 9.38197 5.75781C10.2714 5.75781 11.0005 6.47959 11.0005 7.37639Z" fill="#E5A320"/>
<path d="M10.2923 2.45776V7.3895C10.2923 7.89094 9.88584 8.29745 9.3844 8.29745H9.37951C8.87806 8.29745 8.47156 7.89094 8.47156 7.3895V2.45776C8.47156 1.95631 8.87806 1.5498 9.37951 1.5498H9.3844C9.88584 1.5498 10.2923 1.95631 10.2923 2.45776Z" fill="white"/>
<path d="M26.2367 7.37639C26.2367 8.26585 25.5076 8.99493 24.6182 8.99493C23.7214 8.99493 22.9996 8.26585 22.9996 7.37639C22.9996 6.47959 23.7214 5.75781 24.6182 5.75781C25.5076 5.75781 26.2367 6.47959 26.2367 7.37639Z" fill="#E5A320"/>
<path d="M25.5286 2.45776V7.3895C25.5286 7.89094 25.1221 8.29745 24.6206 8.29745H24.6157C24.1143 8.29745 23.7078 7.89094 23.7078 7.3895V2.45776C23.7078 1.95631 24.1143 1.5498 24.6157 1.5498H24.6206C25.1221 1.5498 25.5286 1.95631 25.5286 2.45776Z" fill="white"/>
<path d="M33.3197 5.35187V11.3767H31.9733V4.00544C31.9733 3.78107 31.9394 3.57027 31.8713 3.37305C31.9733 3.40704 32.0686 3.44784 32.1637 3.48864C32.1705 3.49544 32.1773 3.49544 32.1841 3.50225C32.2724 3.54985 32.3609 3.59746 32.4424 3.65864C32.4969 3.69267 32.5513 3.74027 32.6058 3.78784C32.6397 3.82187 32.6737 3.84906 32.7077 3.88305C32.796 3.96464 32.8709 4.05305 32.9322 4.14826C32.9594 4.18225 32.9797 4.21624 33.0001 4.25027C33.1701 4.50864 33.279 4.81464 33.306 5.14107C33.313 5.20906 33.3197 5.27704 33.3197 5.35187Z" fill="#ECB021"/>
<path d="M16.1305 21.7701C16.5929 22.1985 16.8241 22.8445 16.8241 23.6809C16.8241 25.7428 14.9477 26.6457 12.9141 26.6457C11.8192 26.6457 10.7856 26.4417 9.82689 26.0541H9.82008C9.5268 25.9284 9.34412 25.6858 9.34412 25.3469C9.34412 24.8429 9.81006 24.3912 10.4254 24.6397C11.0984 24.9049 11.8533 25.0477 12.6624 25.0477C13.8264 25.0477 15.1718 24.7667 15.1718 23.6061C15.1718 22.4977 14.179 21.9605 12.1456 21.9605C12.0776 21.938 11.1392 22.0823 11.1392 21.1785C11.1392 20.7344 11.5013 20.4033 11.9145 20.4033H12.0029C12.9277 20.4033 13.6484 20.2605 14.1313 19.9817C14.5869 19.7233 14.8113 19.3425 14.8113 18.8257C14.8113 17.7875 13.7335 17.4861 12.6965 17.4861C11.9145 17.4861 11.1801 17.6425 10.5273 17.9485C9.92945 18.1899 9.48689 17.7859 9.48689 17.3161C9.48689 17.0373 9.61605 16.8129 9.86092 16.6769C10.8129 16.1737 11.8056 15.9153 12.812 15.9153C14.8076 15.9153 16.4637 16.721 16.4637 18.6897C16.4637 19.3969 16.2801 19.9613 15.9265 20.3761C15.675 20.6617 15.3756 20.8997 15.029 21.0765C15.4301 21.2329 15.7973 21.4641 16.1305 21.7701Z" fill="#474646"/>
<path d="M24.6576 25.7205C24.6576 26.1856 24.2914 26.4957 23.8688 26.4957H19.3944C19.1767 26.4957 18.9931 26.4209 18.8435 26.2781V26.2713C18.694 26.1217 18.6191 25.9381 18.6191 25.7205C18.6191 25.2909 18.933 24.9317 19.3944 24.9317H20.9448V18.0365L19.7208 18.6417C19.3151 18.8201 18.9733 18.7473 18.7416 18.5261C18.4106 18.1953 18.4023 17.5054 18.9863 17.2069L20.9516 16.1869C21.3004 16.0124 21.5121 16.0794 21.7403 16.0645C22.2554 16.0645 22.604 16.4762 22.604 16.9281V24.9317H23.8688C24.3318 24.9317 24.6576 25.2911 24.6576 25.7205Z" fill="#474646"/>
</svg>
