<svg width="24" height="24" viewBox="0 0 24 24" fill="none" xmlns="http://www.w3.org/2000/svg">
<g id="Capa_1" clip-path="url(#clip0_1_2109)">
<g id="Group">
<g id="_x31_5_38_">
<g id="Group_2">
<path id="Vector" d="M5.86477 5.70741H6.20813C6.72994 5.70741 7.15293 5.28427 7.15293 4.7626V2.15535V1.18011C7.15293 0.658438 6.72994 0.235352 6.20813 0.235352H5.86477C5.343 0.235352 4.92001 0.658438 4.92001 1.18011V2.1554V4.7626C4.92001 5.28427 5.343 5.70741 5.86477 5.70741Z" fill="#3D6DF5"/>
<path id="Vector_2" d="M17.9832 5.68397H18.3265C18.8483 5.68397 19.2713 5.26089 19.2713 4.73917V1.90787V1.15662C19.2713 0.635 18.8483 0.211914 18.3265 0.211914H17.9832C17.4613 0.211914 17.0383 0.635 17.0383 1.15662V1.90787V4.73912C17.0384 5.26089 17.4614 5.68397 17.9832 5.68397Z" fill="#3D6DF5"/>
<path id="Vector_3" d="M22.4641 2.15527H20.0393V4.98652C20.0393 5.93098 19.271 6.45191 18.3266 6.45191H17.9833C17.0388 6.45191 16.2705 5.68353 16.2705 4.73907V2.15527H7.92095V4.76248C7.92095 5.70694 7.15262 6.47531 6.20817 6.47531H5.86481C4.9204 6.47531 4.15207 5.70694 4.15207 4.76248V2.15527H1.53596C0.689043 2.15527 0 2.84432 0 3.69128V22.2513C0 23.0983 0.689043 23.7873 1.53596 23.7873H22.4641C23.311 23.7873 24 23.0983 24 22.2513V3.69128C24.0001 2.84437 23.311 2.15527 22.4641 2.15527ZM22.4641 22.2513H1.53601L1.53596 8.23526H22.4644L22.4652 22.2513C22.4651 22.2513 22.4648 22.2513 22.4641 22.2513Z" fill="#3D6DF5"/>
<path id="Vector_4" d="M12.793 12.9364H15.5509C15.6602 12.9364 15.7488 12.8477 15.7488 12.7384V10.3503C15.7488 10.241 15.6602 10.1523 15.5509 10.1523H12.793C12.6836 10.1523 12.595 10.241 12.595 10.3503V12.7384C12.595 12.8477 12.6836 12.9364 12.793 12.9364Z" fill="#3D6DF5"/>
<path id="Vector_5" d="M17.2938 12.9364H20.0517C20.161 12.9364 20.2496 12.8477 20.2496 12.7384V10.3503C20.2496 10.241 20.161 10.1523 20.0517 10.1523H17.2938C17.1845 10.1523 17.0958 10.241 17.0958 10.3503V12.7384C17.0958 12.8477 17.1845 12.9364 17.2938 12.9364Z" fill="#3D6DF5"/>
<path id="Vector_6" d="M3.79143 16.8466H6.54929C6.65861 16.8466 6.74725 16.7579 6.74725 16.6486V14.2605C6.74725 14.1511 6.65861 14.0625 6.54929 14.0625H3.79143C3.68211 14.0625 3.59348 14.1511 3.59348 14.2605V16.6486C3.59348 16.7579 3.68211 16.8466 3.79143 16.8466Z" fill="#3D6DF5"/>
<path id="Vector_7" d="M8.29223 16.8466H11.0501C11.1594 16.8466 11.248 16.7579 11.248 16.6486V14.2605C11.248 14.1511 11.1594 14.0625 11.0501 14.0625H8.29223C8.1829 14.0625 8.09427 14.1511 8.09427 14.2605V16.6486C8.09427 16.7579 8.1829 16.8466 8.29223 16.8466Z" fill="#3D6DF5"/>
<path id="Vector_8" d="M12.793 16.8466H15.5508C15.6602 16.8466 15.7488 16.7579 15.7488 16.6486V14.2605C15.7488 14.1511 15.6602 14.0625 15.5508 14.0625H12.793C12.6837 14.0625 12.595 14.1511 12.595 14.2605V16.6486C12.595 16.7579 12.6837 16.8466 12.793 16.8466Z" fill="#3D6DF5"/>
<path id="Vector_9" d="M17.2938 16.8466H20.0517C20.161 16.8466 20.2496 16.7579 20.2496 16.6486V14.2605C20.2496 14.1511 20.161 14.0625 20.0517 14.0625H17.2938C17.1845 14.0625 17.0958 14.1511 17.0958 14.2605V16.6486C17.0958 16.7579 17.1845 16.8466 17.2938 16.8466Z" fill="#3D6DF5"/>
<path id="Vector_10" d="M6.5493 17.9717H3.79149C3.68217 17.9717 3.59354 18.0603 3.59354 18.1696V20.5578C3.59354 20.6671 3.68217 20.7558 3.79149 20.7558H6.54935C6.65867 20.7558 6.74731 20.6671 6.74731 20.5578V18.1696C6.74726 18.0603 6.65862 17.9717 6.5493 17.9717Z" fill="#3D6DF5"/>
<path id="Vector_11" d="M11.0501 17.9717H8.29226C8.18294 17.9717 8.0943 18.0603 8.0943 18.1696V20.5578C8.0943 20.6671 8.18294 20.7558 8.29226 20.7558H11.0501C11.1594 20.7558 11.2481 20.6671 11.2481 20.5578V18.1696C11.2481 18.0603 11.1594 17.9717 11.0501 17.9717Z" fill="#3D6DF5"/>
<path id="Vector_12" d="M15.551 17.9717H12.7931C12.6837 17.9717 12.5951 18.0603 12.5951 18.1696V20.5578C12.5951 20.6671 12.6837 20.7558 12.7931 20.7558H15.551C15.6603 20.7558 15.7489 20.6671 15.7489 20.5578V18.1696C15.7489 18.0603 15.6603 17.9717 15.551 17.9717Z" fill="#3D6DF5"/>
<path id="Vector_13" d="M20.0517 17.9717H17.2938C17.1845 17.9717 17.0958 18.0603 17.0958 18.1696V20.5578C17.0958 20.6671 17.1845 20.7558 17.2938 20.7558H20.0517C20.161 20.7558 20.2496 20.6671 20.2496 20.5578V18.1696C20.2496 18.0603 20.161 17.9717 20.0517 17.9717Z" fill="#3D6DF5"/>
</g>
</g>
</g>
</g>
<defs>
<clipPath id="clip0_1_2109">
<rect width="24" height="24" fill="white"/>
</clipPath>
</defs>
</svg>
