<svg width="28" height="28" viewBox="0 0 28 28" fill="none" xmlns="http://www.w3.org/2000/svg">
<g clip-path="url(#clip0_2_5019)">
<path d="M24.5854 0.512207H3.41463C1.53659 0.512207 0 2.04879 0 3.92684V18.2683C0 20.1464 1.53659 21.6829 3.41463 21.6829H6.14634V27.4878L14.6829 21.6829H24.5854C26.4634 21.6829 28 20.1464 28 18.2683V3.92684C28 2.04879 26.4634 0.512207 24.5854 0.512207ZM7.4439 7.34148H14.4098C14.9902 7.34148 15.4341 7.78538 15.4341 8.36587C15.4341 8.94635 14.9902 9.39026 14.4098 9.39026H7.4439C6.89756 9.39026 6.41951 8.94635 6.41951 8.36587C6.41951 7.81952 6.86341 7.34148 7.4439 7.34148ZM19.8732 14.1707H7.4439C6.89756 14.1707 6.41951 13.7268 6.41951 13.1464C6.41951 12.6 6.86341 12.122 7.4439 12.122H19.8732C20.4537 12.122 20.8976 12.5659 20.8976 13.1464C20.8976 13.7268 20.4537 14.1707 19.8732 14.1707Z" fill="#CCCCCC"/>
</g>
<defs>
<clipPath id="clip0_2_5019">
<rect width="28" height="28" fill="white"/>
</clipPath>
</defs>
</svg>
