<svg width="27" height="27" viewBox="0 0 27 27" fill="none" xmlns="http://www.w3.org/2000/svg">
<g clip-path="url(#clip0_2_6200)">
<path d="M23.7073 0.493911H3.29268C1.4817 0.493911 0 1.97562 0 3.78659V17.6158C0 19.4268 1.4817 20.9085 3.29268 20.9085H5.92682V26.5061L14.1585 20.9085H23.7073C25.5182 20.9085 27 19.4268 27 17.6158V3.78659C27 1.97562 25.5182 0.493911 23.7073 0.493911ZM7.17804 7.07927H13.8951C14.4549 7.07927 14.8829 7.50731 14.8829 8.06707C14.8829 8.62682 14.4549 9.05487 13.8951 9.05487H7.17804C6.65121 9.05487 6.19023 8.62682 6.19023 8.06707C6.19023 7.54024 6.61828 7.07927 7.17804 7.07927ZM19.1634 13.6646H7.17804C6.65121 13.6646 6.19023 13.2366 6.19023 12.6768C6.19023 12.15 6.61828 11.689 7.17804 11.689H19.1634C19.7231 11.689 20.1512 12.1171 20.1512 12.6768C20.1512 13.2366 19.7231 13.6646 19.1634 13.6646Z" fill="#3D6DF5"/>
</g>
<defs>
<clipPath id="clip0_2_6200">
<rect width="26.8657" height="26.8657" fill="white" transform="scale(1.005)"/>
</clipPath>
</defs>
</svg>
