<svg width="35" height="35" viewBox="0 0 35 35" fill="none" xmlns="http://www.w3.org/2000/svg">
<g id="Capa_1" clip-path="url(#clip0_1071_1815)">
<path id="Vector" d="M14.8483 24.1575C14.3225 23.6115 13.6423 23.2083 12.8641 23.0218L10.0516 22.3478V20.6309H6.61712V22.3534L3.81192 23.0235C1.97764 23.4617 0.683594 25.1012 0.683594 26.9871V31.5822H6.9017L14.8483 24.1575Z" fill="#78D2FA"/>
<path id="Vector_2" d="M10.1254 20.6309V22.3942L8.34299 26.6636L6.5625 22.4003V20.6309H10.1254Z" fill="#FFB487"/>
<path id="Vector_3" d="M12.1643 14.7153V17.0936C12.1643 19.2078 10.4504 20.9217 8.33607 20.9217C6.22179 20.9217 4.50781 19.2078 4.50781 17.0936V14.7153H12.1643Z" fill="#FFCDAC"/>
<path id="Vector_4" d="M12.1643 15.4675V14.5459C12.1643 12.4317 10.4504 10.7178 8.33607 10.7178C6.22179 10.7178 4.50781 12.4317 4.50781 14.5459V15.4675H7.14669C8.79921 15.4675 10.4208 15.0188 11.8383 14.1694" fill="#878791"/>
<path id="Vector_5" d="M20.1523 24.1575C20.6782 23.6115 21.3583 23.2083 22.1365 23.0218L24.9491 22.3478V20.6309H28.3836V22.3534L31.1888 23.0235C33.023 23.4617 34.3171 25.1012 34.3171 26.9871V31.5822H28.099L20.1523 24.1575Z" fill="#A5DC69"/>
<path id="Vector_6" d="M15.1049 24.0898L11.1875 25.0286C8.63437 25.6404 6.83398 27.9231 6.83398 30.5484V34.3162H28.1532V30.5516C28.1532 27.9249 26.3509 25.6413 23.7959 25.0309L19.8886 24.0975L15.1049 24.0898Z" fill="#FF5A5A"/>
<g id="Group">
<path id="Vector_7" d="M28.4379 20.6309V22.4003L26.6574 26.6636L24.875 22.3942V20.6309H28.4379Z" fill="#FFB487"/>
<path id="Vector_8" d="M17.5015 29.582L20.052 23.7914C19.8627 23.4735 19.7548 23.1036 19.7548 22.7119V22.1553H15.2454V22.7119C15.2454 23.1029 15.138 23.4724 14.9492 23.7899L17.5015 29.582Z" fill="#FFB487"/>
</g>
<path id="Vector_9" d="M22.832 13.0923V16.7713C22.832 19.7161 20.4448 22.1034 17.5 22.1034C14.5552 22.1034 12.168 19.7162 12.168 16.7713V13.0923H22.832Z" fill="#FFCDAC"/>
<path id="Vector_10" d="M17.5001 7.89111C14.5552 7.89111 12.168 10.2784 12.168 13.2231V14.5067H14.775C16.508 14.5067 18.1521 13.7394 19.2651 12.4111L22.832 14.5067V13.2231C22.8322 10.2784 20.4449 7.89111 17.5001 7.89111Z" fill="#F5B955"/>
<path id="Vector_11" d="M22.8359 14.7153V17.0936C22.8359 19.2078 24.5499 20.9217 26.6642 20.9217C28.7785 20.9217 30.4925 19.2078 30.4925 17.0936V14.7153H22.8359Z" fill="#FFCDAC"/>
<path id="Vector_12" d="M22.8359 15.4675V14.5459C22.8359 12.4317 24.5499 10.7178 26.6642 10.7178C28.7785 10.7178 30.4925 12.4317 30.4925 14.5459V15.4675H27.8536C26.2011 15.4675 24.5795 15.0188 23.162 14.1694" fill="#878791"/>
<path id="Vector_13" d="M17.4824 33.6328C17.3026 33.6328 17.1262 33.706 16.9991 33.8331C16.872 33.9603 16.7988 34.1366 16.7988 34.3164C16.7988 34.4962 16.8719 34.6726 16.9991 34.7997C17.1262 34.9269 17.3026 35 17.4824 35C17.6622 35 17.8386 34.9269 17.9657 34.7997C18.0928 34.6726 18.166 34.4962 18.166 34.3164C18.166 34.1366 18.0929 33.9603 17.9657 33.8331C17.8386 33.706 17.6622 33.6328 17.4824 33.6328Z" fill="black"/>
<path id="Vector_14" d="M31.3469 22.3583L29.0665 21.8135V20.909C30.3323 20.109 31.1753 18.6981 31.1753 17.0933V14.5458C31.1753 12.058 29.1513 10.034 26.6634 10.034C25.3214 10.034 24.1151 10.6237 23.2879 11.5567C22.5634 9.04775 20.2462 7.20752 17.5071 7.20752H17.507C14.7635 7.20752 12.4432 9.05356 11.7227 11.5687C10.8953 10.6288 9.68454 10.034 8.33677 10.034C5.8489 10.034 3.82491 12.058 3.82491 14.5458V17.0933C3.82491 18.6982 4.66792 20.1091 5.93366 20.909V21.8135L3.65333 22.3583C1.50227 22.8721 0 24.7754 0 26.9868V31.5819C0 31.9595 0.306113 32.2655 0.683594 32.2655H6.14981V34.3163C6.14981 34.6939 6.45593 34.9999 6.83341 34.9999H14.3327C14.7102 34.9999 15.0163 34.6939 15.0163 34.3163C15.0163 33.9388 14.7102 33.6327 14.3327 33.6327H11.2809V30.6241C11.2809 30.2465 10.9748 29.9405 10.5973 29.9405C10.2199 29.9405 9.91375 30.2465 9.91375 30.6241V33.6327H7.51693V30.5485C7.51693 28.2301 9.09152 26.2337 11.3461 25.6935L14.7082 24.8878L16.8715 29.8094C16.9806 30.0576 17.2261 30.2179 17.4972 30.2179H17.4973C17.7684 30.2179 18.0139 30.0577 18.123 29.8095L20.2841 24.895L23.6365 25.6959C25.8931 26.2349 27.4691 28.2317 27.4691 30.5517V31.3145C27.4341 31.3967 27.4147 31.487 27.4147 31.5819C27.4147 31.6768 27.4341 31.7671 27.4691 31.8492V33.6327H25.0863V30.6241C25.0863 30.2465 24.7801 29.9405 24.4027 29.9405C24.0252 29.9405 23.7191 30.2465 23.7191 30.6241V33.6327H20.3712C19.9937 33.6327 19.6876 33.9388 19.6876 34.3163C19.6876 34.6939 19.9937 34.9999 20.3712 34.9999H28.1526C28.5301 34.9999 28.8362 34.6939 28.8362 34.3163V32.2655H34.3164C34.6939 32.2655 35 31.9595 35 31.5819V26.9868C35 24.7754 33.4977 22.8721 31.3469 22.3583ZM27.7009 22.39L26.6571 24.8891L25.6275 22.4229C25.6303 22.3981 25.6322 22.3731 25.6322 22.3481C25.6322 22.3417 25.6322 22.3353 25.632 22.329V21.4847C25.9635 21.5626 26.3084 21.605 26.6634 21.605C27.0199 21.605 27.3664 21.5622 27.6993 21.4836V22.353C27.6993 22.3655 27.7002 22.3777 27.7009 22.39ZM14.4206 22.9391C13.9915 22.6729 13.5206 22.4759 13.0235 22.3568L10.7352 21.8085V20.9119C11.3043 20.5533 11.7877 20.0712 12.148 19.5033C12.6634 20.5101 13.4544 21.3533 14.4206 21.9332V22.9391ZM12.8584 16.7715V15.1904H14.7819C16.5267 15.1904 18.1804 14.5008 19.4021 13.2804L22.1516 14.8956V16.932C22.0665 19.421 20.0165 21.42 17.507 21.42C14.9437 21.42 12.8584 19.3347 12.8584 16.7715ZM20.5717 21.9461C21.5439 21.3681 22.3404 20.5243 22.8597 19.5153C23.2193 20.0779 23.6998 20.5557 24.2648 20.9119V21.8085L21.9765 22.3568C21.4764 22.4766 21.0029 22.6755 20.5716 22.9441L20.5717 21.9461ZM26.6634 20.2378C24.9294 20.2378 23.5187 18.8272 23.5187 17.0933V16.9817C23.5211 16.912 23.5228 15.1437 23.5228 15.1437C24.8667 15.8046 26.3482 16.151 27.8528 16.151H29.8081V17.0934C29.808 18.8272 28.3973 20.2378 26.6634 20.2378ZM26.6634 11.4012C28.3973 11.4012 29.808 12.8119 29.808 14.5458V14.715V14.7837H27.8528C26.3758 14.7837 24.9244 14.3959 23.6454 13.6608C24.0286 12.3564 25.2365 11.4012 26.6634 11.4012ZM12.8584 13.2232C12.8584 10.66 14.9438 8.57478 17.507 8.57478C20.0702 8.57478 22.1556 10.6601 22.1556 13.2232V13.3124L19.6185 11.8218C19.3306 11.6526 18.9627 11.7162 18.7482 11.9721C17.7625 13.1484 16.3168 13.8231 14.782 13.8231H12.8584V13.2232ZM5.19196 14.5458C5.19196 12.8118 6.6027 11.4012 8.33663 11.4012C9.7635 11.4012 10.9714 12.3564 11.3546 13.6609C10.0755 14.3959 8.62422 14.7838 7.14718 14.7838H5.19196V14.7151V14.5458ZM5.19196 16.1509H7.14725C8.65334 16.1509 10.1364 15.8039 11.4813 15.1417V17.0933C11.4813 18.8272 10.0706 20.2378 8.33663 20.2378C6.6027 20.2378 5.19196 18.8272 5.19196 17.0933V16.1509ZM8.33663 21.605C8.69155 21.605 9.03649 21.5625 9.36804 21.4847V22.3098C9.36728 22.3227 9.36694 22.3355 9.36694 22.3484C9.36694 22.3699 9.36899 22.3913 9.37105 22.4127L8.33677 24.8891L7.29859 22.4023C7.29976 22.386 7.30071 22.3696 7.30071 22.3531V21.4837C7.63355 21.5622 7.98014 21.605 8.33663 21.605ZM6.14981 30.5485V30.8983H4.10156V27.8612C4.10156 27.4837 3.79545 27.1776 3.41797 27.1776C3.04049 27.1776 2.73438 27.4837 2.73438 27.8612V30.8983H1.36719V26.9868C1.36719 25.4107 2.43783 24.0543 3.97079 23.6881L6.13765 23.1704L7.55187 26.5579C6.66736 27.6567 6.14981 29.0495 6.14981 30.5485ZM11.0275 24.3639C10.6239 24.4607 10.2381 24.5953 9.87185 24.7613L10.5377 23.167L12.7049 23.6863C12.873 23.7266 13.0367 23.7798 13.1953 23.8445L11.0275 24.3639ZM17.4974 27.8358L15.7878 23.9463V22.5365C16.3328 22.6993 16.9098 22.7872 17.507 22.7872C18.0962 22.7872 18.6659 22.7016 19.2044 22.5429V23.9539L17.4974 27.8358ZM21.7922 23.8497C21.9546 23.7827 22.1226 23.7277 22.2951 23.6863L24.4571 23.1683L25.1256 24.7697C24.7546 24.6007 24.3636 24.464 23.9541 24.3662L21.7922 23.8497ZM33.6328 30.8983H32.2656V27.8612C32.2656 27.4837 31.9595 27.1776 31.582 27.1776C31.2046 27.1776 30.8984 27.4837 30.8984 27.8612V30.8983H28.8362V30.5518C28.8362 29.0548 28.3204 27.6639 27.4384 26.5661L28.8571 23.1692L31.0292 23.6881C32.5622 24.0543 33.6328 25.4107 33.6328 26.9868V30.8983Z" fill="black"/>
<path id="Vector_15" d="M15.207 15.8081C15.0272 15.8081 14.8509 15.8812 14.7237 16.0084C14.5966 16.1355 14.5234 16.3119 14.5234 16.4917C14.5234 16.6715 14.5965 16.8479 14.7237 16.975C14.8509 17.1021 15.0272 17.1753 15.207 17.1753C15.3875 17.1753 15.5632 17.1021 15.6903 16.975C15.8181 16.8479 15.8906 16.6715 15.8906 16.4917C15.8906 16.3119 15.8181 16.1355 15.6903 16.0084C15.5632 15.8812 15.3868 15.8081 15.207 15.8081Z" fill="black"/>
<path id="Vector_16" d="M19.7793 17.1753C19.9591 17.1753 20.1354 17.1021 20.2625 16.975C20.3904 16.8479 20.4629 16.6715 20.4629 16.4917C20.4629 16.3119 20.3904 16.1355 20.2625 16.0084C20.1354 15.8812 19.9591 15.8081 19.7793 15.8081C19.5995 15.8081 19.4231 15.8812 19.296 16.0084C19.1688 16.1355 19.0957 16.3119 19.0957 16.4917C19.0957 16.6715 19.1688 16.8479 19.296 16.975C19.4232 17.1021 19.5995 17.1753 19.7793 17.1753Z" fill="black"/>
<path id="Vector_17" d="M18.8162 18.3096C18.5492 18.0426 18.1165 18.0426 17.8494 18.3096C17.6472 18.5117 17.3184 18.5117 17.1162 18.3096C16.8492 18.0426 16.4165 18.0426 16.1494 18.3096C15.8825 18.5765 15.8825 19.0094 16.1494 19.2764C16.5171 19.644 16.9999 19.8278 17.4828 19.8278C17.9657 19.8278 18.4485 19.644 18.8161 19.2764C19.0831 19.0094 19.0831 18.5765 18.8162 18.3096Z" fill="black"/>
<path id="Vector_18" d="M27.7969 5.05859H28.2658C28.6432 5.05859 28.9493 4.75255 28.9493 4.375C28.9493 3.99745 28.6432 3.69141 28.2658 3.69141H27.7969C27.4194 3.69141 27.1133 3.99745 27.1133 4.375C27.1133 4.75255 27.4194 5.05859 27.7969 5.05859Z" fill="black"/>
<path id="Vector_19" d="M31.1133 5.05859H31.5822C31.9596 5.05859 32.2658 4.75255 32.2658 4.375C32.2658 3.99745 31.9596 3.69141 31.5822 3.69141H31.1133C30.7358 3.69141 30.4297 3.99745 30.4297 4.375C30.4297 4.75255 30.7357 5.05859 31.1133 5.05859Z" fill="black"/>
<path id="Vector_20" d="M29.6895 6.9513C30.0669 6.9513 30.373 6.64525 30.373 6.26771V5.79883C30.373 5.42128 30.0669 5.11523 29.6895 5.11523C29.312 5.11523 29.0059 5.42128 29.0059 5.79883V6.26771C29.0059 6.64525 29.3119 6.9513 29.6895 6.9513Z" fill="black"/>
<path id="Vector_21" d="M29.6895 3.6344C30.0669 3.6344 30.373 3.32836 30.373 2.95081V2.48193C30.373 2.10438 30.0669 1.79834 29.6895 1.79834C29.312 1.79834 29.0059 2.10438 29.0059 2.48193V2.95081C29.0059 3.32836 29.3119 3.6344 29.6895 3.6344Z" fill="black"/>
<path id="Vector_22" d="M3.38086 5.05859H3.84967C4.22715 5.05859 4.53326 4.75255 4.53326 4.375C4.53326 3.99745 4.22715 3.69141 3.84967 3.69141H3.38086C3.00338 3.69141 2.69727 3.99745 2.69727 4.375C2.69727 4.75255 3.00338 5.05859 3.38086 5.05859Z" fill="black"/>
<path id="Vector_23" d="M6.69727 5.05859H7.16607C7.54355 5.05859 7.84967 4.75255 7.84967 4.375C7.84967 3.99745 7.54355 3.69141 7.16607 3.69141H6.69727C6.31979 3.69141 6.01367 3.99745 6.01367 4.375C6.01367 4.75255 6.31972 5.05859 6.69727 5.05859Z" fill="black"/>
<path id="Vector_24" d="M5.27344 6.9513C5.65092 6.9513 5.95703 6.64525 5.95703 6.26771V5.79883C5.95703 5.42128 5.65092 5.11523 5.27344 5.11523C4.89596 5.11523 4.58984 5.42128 4.58984 5.79883V6.26771C4.58984 6.64525 4.89589 6.9513 5.27344 6.9513Z" fill="black"/>
<path id="Vector_25" d="M5.27344 3.6344C5.65092 3.6344 5.95703 3.32836 5.95703 2.95081V2.48193C5.95703 2.10438 5.65092 1.79834 5.27344 1.79834C4.89596 1.79834 4.58984 2.10438 4.58984 2.48193V2.95081C4.58984 3.32836 4.89589 3.6344 5.27344 3.6344Z" fill="black"/>
<path id="Vector_26" d="M17.5 5.76924C17.8775 5.76924 18.1836 5.46319 18.1836 5.08564V3.28711C18.1836 2.90956 17.8775 2.60352 17.5 2.60352C17.1225 2.60352 16.8164 2.90956 16.8164 3.28711V5.08564C16.8164 5.46319 17.1225 5.76924 17.5 5.76924Z" fill="black"/>
<path id="Vector_27" d="M17.5 1.36719C17.6798 1.36719 17.8562 1.29404 17.9832 1.16689C18.1104 1.03975 18.1836 0.863379 18.1836 0.683594C18.1836 0.503809 18.1104 0.327441 17.9832 0.200293C17.8562 0.0731445 17.6798 0 17.5 0C17.3202 0 17.1438 0.0731445 17.0167 0.200293C16.8895 0.327441 16.8164 0.503809 16.8164 0.683594C16.8164 0.863379 16.8895 1.03975 17.0167 1.16689C17.1439 1.29404 17.3202 1.36719 17.5 1.36719Z" fill="black"/>
<path id="Vector_28" d="M14.1381 3.70938C14.2717 3.84288 14.4466 3.9096 14.6215 3.9096C14.7964 3.9096 14.9714 3.84288 15.1049 3.70938C15.3718 3.44243 15.3718 3.00958 15.1049 2.74257L14.1045 1.7422C13.8375 1.47526 13.4048 1.47526 13.1377 1.7422C12.8708 2.00914 12.8708 2.44199 13.1377 2.70901L14.1381 3.70938Z" fill="black"/>
<path id="Vector_29" d="M20.3458 3.90543C20.5208 3.90543 20.6956 3.83871 20.8291 3.70521L21.8629 2.67141C22.1299 2.40447 22.1299 1.97161 21.8629 1.7046C21.5959 1.43766 21.1632 1.43766 20.8961 1.7046L19.8623 2.7384C19.5954 3.00534 19.5954 3.4382 19.8623 3.70521C19.9959 3.83871 20.1708 3.90543 20.3458 3.90543Z" fill="black"/>
</g>
<defs>
<clipPath id="clip0_1071_1815">
<rect width="35" height="35" fill="white"/>
</clipPath>
</defs>
</svg>
