<svg width="22" height="22" viewBox="0 0 22 22" fill="none" xmlns="http://www.w3.org/2000/svg">
<g id="Layer_1">
<path id="Vector" d="M14.1442 9.78091C13.8754 9.5121 13.4409 9.5121 13.1721 9.78091L10.9996 11.9527L8.82705 9.78022C8.55824 9.51141 8.12374 9.51141 7.85493 9.78022C7.58612 10.049 7.58612 10.4835 7.85493 10.7523L10.0274 12.9248L7.85493 15.0973C7.58612 15.3662 7.58612 15.8007 7.85493 16.0695C7.98899 16.2035 8.16499 16.2709 8.34099 16.2709C8.51699 16.2709 8.69299 16.2035 8.82705 16.0695L10.9996 13.897L13.1721 16.0695C13.3061 16.2035 13.4821 16.2709 13.6581 16.2709C13.8341 16.2709 14.0101 16.2035 14.1442 16.0695C14.413 15.8007 14.413 15.3662 14.1442 15.0973L11.9717 12.9248L14.1442 10.7523C14.4123 10.4842 14.4123 10.049 14.1442 9.78091Z" fill="#3D6DF5"/>
<path id="Vector_2" d="M5.50479 21.3127H16.4952C17.7464 21.3127 18.7646 20.2952 18.7646 19.0432V6.99756C18.7646 6.61737 18.4566 6.31006 18.0771 6.31006C17.6976 6.31006 17.3896 6.61737 17.3896 6.99756V19.0432C17.3896 19.5362 16.9888 19.9377 16.4952 19.9377H5.50479C5.01185 19.9377 4.61035 19.5362 4.61035 19.0432V6.99756C4.61035 6.61737 4.30235 6.31006 3.92285 6.31006C3.54335 6.31006 3.23535 6.61737 3.23535 6.99756V19.0432C3.23535 20.2952 4.25354 21.3127 5.50479 21.3127Z" fill="#3D6DF5"/>
<path id="Vector_3" d="M2.36328 4.78706H7.79659H14.2048H19.6381C20.0176 4.78706 20.3256 4.47975 20.3256 4.09956C20.3256 3.71938 20.0176 3.41206 19.6381 3.41206H14.8923V1.375C14.8923 0.994813 14.5843 0.6875 14.2048 0.6875H7.79659C7.41709 0.6875 7.10909 0.994813 7.10909 1.375V3.41206H2.36328C1.98378 3.41206 1.67578 3.71938 1.67578 4.09956C1.67578 4.47975 1.98309 4.78706 2.36328 4.78706ZM8.48341 2.0625H13.5166V3.41206H8.48341V2.0625Z" fill="#3D6DF5"/>
</g>
</svg>
