<svg width="70" height="95" viewBox="0 0 70 95" fill="none" xmlns="http://www.w3.org/2000/svg">
<path fill-rule="evenodd" clip-rule="evenodd" d="M31.3989 88.5204H31.9512C32.0498 87.9113 32.1276 87.2775 32.2017 86.6587C32.5566 83.7437 32.9209 80.7301 35.61 80.0963C37.1646 79.728 38.2499 78.3579 38.2499 76.7598C38.2499 74.8716 36.7126 73.3345 34.8243 73.3345C32.9362 73.3345 31.3989 74.8716 31.3989 76.7598V88.5204ZM32.5623 89.9779H30.6703C30.2679 89.9779 29.9414 89.6516 29.9414 89.2492L29.9416 76.7598C29.9416 74.0688 32.1315 71.877 34.8243 71.877C37.5173 71.877 39.7074 74.0688 39.7074 76.7598C39.7074 79.0354 38.1607 80.9899 35.9459 81.5138C34.3594 81.8877 34.0198 83.7741 33.6496 86.8334C33.5456 87.6816 33.4389 88.5564 33.2759 89.3895C33.2094 89.7311 32.9096 89.9779 32.5623 89.9779Z" fill="black"/>
<path fill-rule="evenodd" clip-rule="evenodd" d="M34.7941 4.33643C30.6872 4.33643 26.8726 5.36691 24.0507 7.24012C21.8872 8.67469 19.3101 11.3089 19.3101 15.7099C19.3101 21.0445 19.4921 23.4206 20.6992 28.8936C20.9232 29.9147 21.4659 30.7004 22.0769 30.8977C22.4625 31.021 22.8646 30.8977 23.2744 30.5315C30.8127 23.7906 38.561 23.7867 46.3039 30.524C46.7253 30.8921 47.137 31.0116 47.5243 30.8844C48.1297 30.6833 48.6647 29.9033 48.8887 28.8936C50.0958 23.4204 50.2778 21.0426 50.2778 15.7099C50.278 7.8949 42.2502 4.33643 34.7941 4.33643ZM22.3711 32.4027C22.1244 32.4027 21.8759 32.3647 21.6309 32.2851C20.4999 31.9206 19.6193 30.7705 19.2758 29.2088C18.0385 23.6007 17.8525 21.166 17.8525 15.7099C17.8525 11.715 19.7161 8.36544 23.244 6.0254C26.3035 3.9968 30.4044 2.87891 34.7938 2.87891C39.1817 2.87891 43.2846 3.9968 46.3419 6.0254C49.87 8.36544 51.7354 11.715 51.7354 15.7099C51.7356 21.1658 51.5476 23.6007 50.3121 29.2088C49.9705 30.7555 49.0994 31.8998 47.9815 32.2681C47.0972 32.5603 46.1616 32.3325 45.3475 31.6246C38.1493 25.3601 31.247 25.3581 24.2461 31.617C23.6673 32.1352 23.0202 32.4027 22.3711 32.4027Z" fill="black"/>
<path fill-rule="evenodd" clip-rule="evenodd" d="M68.9216 94.7411H0.728872C0.324769 94.7411 0 94.4148 0 94.0125L0.000218849 74.6968C0.000218849 59.7727 9.86086 47.6309 21.982 47.6309H24.2632C24.6656 47.6309 24.9919 47.9572 24.9919 48.3595C24.9919 48.7619 24.6654 49.0884 24.263 49.0884H21.9822C10.6636 49.0884 1.45753 60.5755 1.45753 74.6968V93.2838H68.1929V74.6968C68.1929 60.5755 58.9849 49.0884 47.6665 49.0884H45.3227C44.9206 49.0884 44.5941 48.7619 44.5941 48.3595C44.5941 47.9572 44.9204 47.6309 45.3227 47.6309H47.6667C59.7876 47.6309 69.6502 59.7727 69.6502 74.6968L69.6504 94.0125C69.6504 94.4148 69.3239 94.7411 68.9216 94.7411Z" fill="black"/>
<path fill-rule="evenodd" clip-rule="evenodd" d="M34.7917 49.0591C27.7397 49.0591 20.023 42.0298 18.6853 26.3275C18.6512 25.9271 18.9471 25.5742 19.3495 25.5401C19.7499 25.506 20.1028 25.8039 20.1371 26.2042C21.3973 40.9841 28.4056 47.6016 34.7917 47.6016C41.1798 47.6016 48.1898 40.9841 49.45 26.2023C49.4843 25.8019 49.8373 25.502 50.2377 25.5381C50.6383 25.5722 50.936 25.9254 50.9019 26.3258C49.5621 42.0298 41.8457 49.0591 34.7917 49.0591Z" fill="black"/>
<path fill-rule="evenodd" clip-rule="evenodd" d="M24.2629 49.0883C24.1641 49.0883 24.0616 49.0673 23.9648 49.0236C23.5968 48.8586 23.4335 48.4278 23.5985 48.0596C24.297 46.5091 24.6613 44.9472 24.684 43.4158C24.6897 43.0134 25.0162 42.6965 25.4223 42.6982C25.8249 42.7042 26.1453 43.0342 26.1396 43.4365C26.1171 45.1675 25.7088 46.9246 24.9288 48.6573C24.8073 48.9287 24.5418 49.0883 24.2629 49.0883Z" fill="black"/>
<path fill-rule="evenodd" clip-rule="evenodd" d="M45.3233 49.0884C45.0462 49.0884 44.7804 48.9288 44.6591 48.6574C43.8793 46.9247 43.4711 45.1675 43.4464 43.4366C43.4407 43.0342 43.7615 42.7042 44.1637 42.6983C44.5737 42.6926 44.8982 43.0135 44.9039 43.4158C44.9249 44.9472 45.2892 46.5092 45.9875 48.0596C46.1527 48.4279 45.9894 48.8587 45.6231 49.0237C45.5244 49.0674 45.4238 49.0884 45.3233 49.0884Z" fill="black"/>
<path fill-rule="evenodd" clip-rule="evenodd" d="M34.7938 61.3839C28.586 61.3839 23.5342 55.5407 23.5342 48.3595C23.5342 47.9572 23.8605 47.6309 24.2628 47.6309C24.6654 47.6309 24.9917 47.9572 24.9917 48.3595C24.9917 54.736 29.3888 59.9264 34.7936 59.9264C40.1966 59.9264 44.5939 54.736 44.5939 48.3595C44.5939 47.9572 44.9202 47.6309 45.3225 47.6309C45.7251 47.6309 46.0512 47.9572 46.0512 48.3595C46.0512 55.5407 41.0013 61.3839 34.7938 61.3839Z" fill="black"/>
<path fill-rule="evenodd" clip-rule="evenodd" d="M11.7433 94.7412C11.3412 94.7412 11.0146 94.4149 11.0146 94.0125V75.8849C11.0146 75.4826 11.3409 75.1562 11.7433 75.1562C12.1459 75.1562 12.472 75.4826 12.472 75.8849L12.4722 94.0125C12.4722 94.4149 12.1457 94.7412 11.7433 94.7412Z" fill="black"/>
<path fill-rule="evenodd" clip-rule="evenodd" d="M57.9054 94.7412C57.5031 94.7412 57.1768 94.4149 57.1768 94.0125V75.8849C57.1768 75.4826 57.5031 75.1562 57.9054 75.1562C58.3078 75.1562 58.6341 75.4826 58.6341 75.8849L58.6343 94.0125C58.6343 94.4149 58.3078 94.7412 57.9054 94.7412Z" fill="black"/>
<path fill-rule="evenodd" clip-rule="evenodd" d="M34.8246 73.3337C34.5949 73.3337 34.3805 73.2272 34.2419 73.0432L16.549 49.4918C16.308 49.1712 16.3724 48.7137 16.695 48.4727C17.0156 48.2299 17.4731 48.2963 17.7141 48.6169L34.8246 71.3923L51.9348 48.6169C52.1759 48.2963 52.6333 48.2299 52.9539 48.4727C53.2767 48.7137 53.341 49.1712 53.1001 49.4918L35.4072 73.0432C35.2706 73.2272 35.0541 73.3337 34.8246 73.3337Z" fill="black"/>
<path fill-rule="evenodd" clip-rule="evenodd" d="M28.0512 20.2C27.6547 20.2 27.3302 19.8812 27.3245 19.4828C27.3075 18.4387 27.2998 17.2756 27.2998 15.7099C27.2998 6.89459 31.1846 2.87891 34.794 2.87891C38.4018 2.87891 42.2864 6.89459 42.2864 15.7099C42.2866 17.2015 42.2807 18.3174 42.2656 19.3252C42.2599 19.7275 41.9317 20.0482 41.5273 20.0425C41.1252 20.0368 40.8024 19.7066 40.8081 19.3042C40.8234 18.3021 40.8288 17.1939 40.8288 15.7099C40.8291 11.159 39.7416 8.47363 38.8269 7.02003C37.7394 5.2891 36.3066 4.33643 34.794 4.33643C31.7937 4.33643 28.7573 8.24218 28.7573 15.7099C28.7573 17.268 28.7648 18.4256 28.7801 19.4598C28.7877 19.8622 28.4669 20.1944 28.0645 20.2C28.0591 20.2 28.0551 20.2 28.0512 20.2Z" fill="black"/>
<path fill-rule="evenodd" clip-rule="evenodd" d="M36.4413 4.39159C36.0392 4.39159 35.7124 4.06529 35.7124 3.66294L35.7127 2.37807C35.7127 1.8695 35.3007 1.45774 34.7939 1.45774C34.2853 1.45774 33.8735 1.8695 33.8735 2.37807V3.66272C33.8735 4.06507 33.547 4.39159 33.1449 4.39159C32.7425 4.39159 32.416 4.06529 32.416 3.66294L32.4162 2.37807C32.4162 1.06675 33.4825 0 34.7939 0C36.1034 0 37.17 1.06675 37.17 2.37807L37.1702 3.66272C37.1702 4.06507 36.8434 4.39159 36.4413 4.39159Z" fill="black"/>
<path fill-rule="evenodd" clip-rule="evenodd" d="M50.7481 23.1563C50.6362 23.1563 50.5224 23.1299 50.4159 23.0767C42.303 18.9149 34.2354 19.1389 28.897 20.0592C23.1052 21.0573 19.2108 23.054 19.1728 23.0748C18.8161 23.2588 18.3757 23.1205 18.1897 22.7636C18.0057 22.4067 18.1443 21.9665 18.5012 21.7805C18.6681 21.6951 22.6364 19.6588 28.6503 18.6227C34.2072 17.6643 42.6103 17.4346 51.0821 21.7785C51.439 21.9628 51.5812 22.401 51.3972 22.7598C51.2681 23.0123 51.0119 23.1563 50.7481 23.1563Z" fill="black"/>
<path fill-rule="evenodd" clip-rule="evenodd" d="M45.3471 31.6249C38.1488 25.3604 31.2465 25.3584 24.2456 31.6173C23.6669 32.1355 23.0198 32.403 22.3707 32.403C22.1239 32.403 21.8754 32.365 21.6307 32.2854C21.409 32.2139 21.1973 32.1125 20.9971 31.9838C22.0426 36.7255 23.7851 40.3251 25.8776 42.8664C25.9449 42.9226 26.0017 42.9905 26.0452 43.067C28.6584 46.1438 31.7936 47.6022 34.7917 47.6022C37.79 47.6022 40.9253 46.1445 43.539 43.0686C43.5829 42.991 43.6408 42.9219 43.709 42.8653C45.8025 40.3224 47.5459 36.7209 48.5913 31.9759C48.3981 32.0996 48.1942 32.198 47.9811 32.2684C47.0968 32.5606 46.1612 32.3328 45.3471 31.6249Z" fill="#FCC09C"/>
<path fill-rule="evenodd" clip-rule="evenodd" d="M43.5924 45.1367C40.8983 47.7941 37.7857 49.0597 34.7924 49.0597C31.8004 49.0597 28.6889 47.7943 25.9954 45.1382C25.8193 46.2642 25.4838 47.3941 24.9932 48.5144C25.0638 54.8199 29.4333 59.9264 34.7941 59.9264C40.1546 59.9264 44.525 54.8177 44.5936 48.5101C44.1038 47.3907 43.769 46.2618 43.5924 45.1367Z" fill="#FCC09C"/>
<path fill-rule="evenodd" clip-rule="evenodd" d="M34.7939 61.3834C28.7977 61.3834 23.8796 55.9314 23.5516 49.0879H21.9822C20.7486 49.0879 19.5403 49.2243 18.3662 49.4857L34.8243 71.3925L51.2822 49.4857C50.1081 49.2243 48.8997 49.0879 47.6664 49.0879H46.0341C45.706 55.9314 40.7901 61.3834 34.7939 61.3834Z" fill="#FFF500"/>
<path fill-rule="evenodd" clip-rule="evenodd" d="M33.5012 72.0589L16.8525 49.8977C8.00835 52.7465 1.45703 62.7844 1.45703 74.6968V93.2838H11.0141L11.0143 75.8849C11.0143 75.4825 11.3406 75.1562 11.743 75.1562C12.1455 75.1562 12.4716 75.4825 12.4716 75.8849L12.4718 93.2838H57.1758V75.8849C57.1758 75.4825 57.5021 75.1562 57.9045 75.1562C58.3069 75.1562 58.6331 75.4825 58.6331 75.8849L58.6334 93.2838H68.1924V74.6968C68.1924 62.7844 61.6396 52.7463 52.795 49.8975L36.1465 72.0589C38.1987 72.6372 39.7067 74.5266 39.7067 76.7597C39.7067 79.0353 38.16 80.9898 35.9452 81.5137C34.3588 81.8876 34.0189 83.7739 33.6489 86.8332C33.5449 87.6814 33.4382 88.5563 33.2752 89.3894C33.2087 89.731 32.9089 89.9778 32.5616 89.9778H30.6696C30.2672 89.9778 29.9407 89.6512 29.9407 89.2491L29.941 76.7597C29.941 74.5266 31.449 72.6372 33.5012 72.0589Z" fill="#FFF500"/>
<path fill-rule="evenodd" clip-rule="evenodd" d="M34.8238 73.334C32.9355 73.334 31.3984 74.8711 31.3984 76.7594V88.5201H31.9507C32.0493 87.9108 32.1271 87.277 32.2012 86.6582C32.5563 83.7432 32.9204 80.7296 35.6095 80.0956C37.1641 79.7275 38.2494 78.3574 38.2494 76.7594C38.2494 74.8711 36.7121 73.334 34.8238 73.334Z" fill="#FF4646"/>
<path fill-rule="evenodd" clip-rule="evenodd" d="M19.4695 21.3276C20.8501 20.7202 23.6247 19.6349 27.3154 18.8756C27.3044 17.9846 27.2994 16.9797 27.2994 15.7103C27.2994 10.2621 28.7832 6.6472 30.7689 4.68066C28.2291 5.12695 25.9214 5.99853 24.0504 7.24057C21.887 8.67536 19.3096 11.3094 19.3096 15.7103C19.3096 17.9566 19.3419 19.6784 19.4695 21.3276Z" fill="#333333"/>
<path fill-rule="evenodd" clip-rule="evenodd" d="M34.7935 4.33691C31.7932 4.33691 28.7568 8.24266 28.7568 15.7104C28.7568 16.8538 28.7608 17.7816 28.7691 18.6031C32.015 18.0535 36.2121 17.758 40.8179 18.467C40.8255 17.6787 40.8286 16.7948 40.8286 15.7104C40.8286 11.1595 39.7411 8.47411 38.8264 7.0203C37.7391 5.28958 36.3061 4.33691 34.7935 4.33691Z" fill="#333333"/>
<path fill-rule="evenodd" clip-rule="evenodd" d="M38.8223 4.68652C40.8048 6.65437 42.2859 10.2675 42.2859 15.7105C42.2859 16.9117 42.2822 17.8692 42.2728 18.7228C44.8134 19.2253 47.4577 20.0464 50.1192 21.3052C50.2453 19.6624 50.2772 17.9461 50.2772 15.7105C50.2775 9.30104 44.8777 5.75481 38.8223 4.68652Z" fill="#333333"/>
<path fill-rule="evenodd" clip-rule="evenodd" d="M35.7119 2.89489L35.7122 2.37757C35.7122 1.869 35.3002 1.45703 34.7934 1.45703C34.2848 1.45703 33.873 1.869 33.873 2.37757V2.89511C34.1784 2.88418 34.4852 2.8785 34.7934 2.8785C35.1011 2.8785 35.4075 2.88418 35.7119 2.89489Z" fill="#E57373"/>
<path fill-rule="evenodd" clip-rule="evenodd" d="M49.97 22.8523C42.0084 18.9234 34.1379 19.1557 28.8972 20.0592C24.2316 20.8633 20.7973 22.3151 19.6182 22.8604C19.8234 24.613 20.1584 26.4427 20.6989 28.8935C20.9229 29.9144 21.4656 30.7001 22.0767 30.8975C22.4622 31.0209 22.8641 30.8975 23.2741 30.5312C30.8122 23.7904 38.5607 23.7864 46.3036 30.5237C46.725 30.8918 47.1367 31.0113 47.524 30.8841C48.1294 30.6831 48.6644 29.903 48.8884 28.8935C49.4298 26.4392 49.7648 24.6073 49.97 22.8523Z" fill="#333333"/>
</svg>
