<svg width="18" height="18" viewBox="0 0 18 18" fill="none" xmlns="http://www.w3.org/2000/svg">
<rect width="18" height="18" fill="black"/>
<g id="Client/Stuent Flow">
<path d="M-3493 -1067C-3493 -1068.1 -3492.1 -1069 -3491 -1069H5382C5383.1 -1069 5384 -1068.1 5384 -1067V7581C5384 7582.1 5383.1 7583 5382 7583H-3491C-3492.1 7583 -3493 7582.1 -3493 7581V-1067Z" fill="#151515"/>
<path d="M-3491 -1068H5382V-1070H-3491V-1068ZM5383 -1067V7581H5385V-1067H5383ZM5382 7582H-3491V7584H5382V7582ZM-3492 7581V-1067H-3494V7581H-3492ZM-3491 7582C-3491.55 7582 -3492 7581.55 -3492 7581H-3494C-3494 7582.66 -3492.66 7584 -3491 7584V7582ZM5383 7581C5383 7581.55 5382.55 7582 5382 7582V7584C5383.66 7584 5385 7582.66 5385 7581H5383ZM5382 -1068C5382.55 -1068 5383 -1067.55 5383 -1067H5385C5385 -1068.66 5383.66 -1070 5382 -1070V-1068ZM-3491 -1070C-3492.66 -1070 -3494 -1068.66 -3494 -1067H-3492C-3492 -1067.55 -3491.55 -1068 -3491 -1068V-1070Z" fill="#151515"/>
<g id="Register (student Info)">
<rect x="-342" y="-659" width="390" height="1365" rx="20" fill="white"/>
<circle id="Ellipse 34" cx="9" cy="9" r="16" fill="#ECECEC"/>
<g id="Layer_1">
<path id="Vector" d="M11.5729 8.00243C11.353 7.78249 10.9975 7.78249 10.7775 8.00243L9.00004 9.77937L7.22254 8.00187C7.0026 7.78193 6.6471 7.78193 6.42716 8.00187C6.20722 8.2218 6.20722 8.5773 6.42716 8.79724L8.20466 10.5747L6.42716 12.3522C6.20722 12.5722 6.20722 12.9277 6.42716 13.1476C6.53685 13.2573 6.68085 13.3124 6.82485 13.3124C6.96885 13.3124 7.11285 13.2573 7.22254 13.1476L9.00004 11.3701L10.7775 13.1476C10.8872 13.2573 11.0312 13.3124 11.1752 13.3124C11.3192 13.3124 11.4632 13.2573 11.5729 13.1476C11.7928 12.9277 11.7928 12.5722 11.5729 12.3522L9.79541 10.5747L11.5729 8.79724C11.7923 8.57787 11.7923 8.2218 11.5729 8.00243Z" fill="#CB1616"/>
<path id="Vector_2" d="M4.50391 17.438H13.496C14.5198 17.438 15.3528 16.6055 15.3528 15.5811V5.72559C15.3528 5.41452 15.1008 5.16309 14.7903 5.16309C14.4798 5.16309 14.2278 5.41452 14.2278 5.72559V15.5811C14.2278 15.9845 13.8999 16.313 13.496 16.313H4.50391C4.10059 16.313 3.77209 15.9845 3.77209 15.5811V5.72559C3.77209 5.41452 3.52009 5.16309 3.20959 5.16309C2.89909 5.16309 2.64709 5.41452 2.64709 5.72559V15.5811C2.64709 16.6055 3.48016 17.438 4.50391 17.438Z" fill="#CB1616"/>
<path id="Vector_3" d="M1.93335 3.91669H6.37879H11.6218H16.0673C16.3778 3.91669 16.6298 3.66525 16.6298 3.35419C16.6298 3.04313 16.3778 2.79169 16.0673 2.79169H12.1843V1.125C12.1843 0.813938 11.9323 0.5625 11.6218 0.5625H6.37879C6.06829 0.5625 5.81629 0.813938 5.81629 1.125V2.79169H1.93335C1.62285 2.79169 1.37085 3.04313 1.37085 3.35419C1.37085 3.66525 1.62229 3.91669 1.93335 3.91669ZM6.94072 1.6875H11.0588V2.79169H6.94072V1.6875Z" fill="#CB1616"/>
</g>
</g>
</g>
</svg>
