<svg width="55" height="60" viewBox="0 0 55 60" fill="none" xmlns="http://www.w3.org/2000/svg">
<path d="M52.9942 12.7197C43.5603 11.7848 34.0697 11.3032 24.6074 11.3032C18.9981 11.3032 13.3887 11.5865 7.77935 12.1531L2 12.7197" stroke="#3D6DF5" stroke-width="2.5" stroke-linecap="round" stroke-linejoin="round"/>
<path d="M17.5816 9.85838L18.2048 6.14714C18.6581 3.45577 18.9981 1.44434 23.7859 1.44434H31.2084C35.9962 1.44434 36.3645 3.5691 36.7894 6.17547L37.4127 9.85838" stroke="#3D6DF5" stroke-width="2.5" stroke-linecap="round" stroke-linejoin="round"/>
<path d="M46.9032 21.6724L45.0618 50.2008C44.7501 54.6486 44.4952 58.1049 36.5911 58.1049H18.4031C10.499 58.1049 10.244 54.6486 9.93242 50.2008L8.09096 21.6724" stroke="#3D6DF5" stroke-width="2.5" stroke-linecap="round" stroke-linejoin="round"/>
<path d="M22.7801 42.5229H32.214" stroke="#3D6DF5" stroke-width="2.5" stroke-linecap="round" stroke-linejoin="round"/>
<path d="M20.4146 31.1909H34.5796" stroke="#3D6DF5" stroke-width="2.5" stroke-linecap="round" stroke-linejoin="round"/>
</svg>
