<svg width="31" height="31" viewBox="0 0 31 31" fill="none" xmlns="http://www.w3.org/2000/svg">
<g clip-path="url(#clip0_2_6646)">
<path d="M15.5 0C6.95332 0 0 6.95332 0 15.5C0 24.0467 6.95332 31 15.5 31C24.0467 31 31 24.0467 31 15.5C31 6.95332 24.0467 0 15.5 0ZM15.5 28.3043C8.43963 28.3043 2.69567 22.5604 2.69567 15.5C2.69567 8.43963 8.43963 2.69567 15.5 2.69567C22.5604 2.69567 28.3043 8.43963 28.3043 15.5C28.3043 22.5604 22.5604 28.3043 15.5 28.3043Z" fill="#3D6DF5"/>
<path d="M15.4999 4.38043C9.36889 4.38043 4.38037 9.36895 4.38037 15.5C4.38037 21.631 9.36889 26.6195 15.4999 26.6195C21.631 26.6195 26.6195 21.631 26.6195 15.5C26.6195 9.36895 21.631 4.38043 15.4999 4.38043ZM15.9725 14.6063C17.4131 15.3677 19.2065 16.316 19.2065 18.1957C19.2065 19.8883 18.064 21.3167 16.5108 21.7584V22.2391C16.5108 22.7972 16.058 23.25 15.4999 23.25C14.9419 23.25 14.489 22.7972 14.489 22.2391V21.7584C12.9359 21.3167 11.7934 19.8883 11.7934 18.1957C11.7934 17.6376 12.2462 17.1848 12.8043 17.1848C13.3623 17.1848 13.8151 17.6376 13.8151 18.1957C13.8151 19.1249 14.5707 19.8804 15.4999 19.8804C16.4292 19.8804 17.1847 19.1249 17.1847 18.1957C17.1847 17.5336 16.0883 16.9544 15.0274 16.3937C13.5867 15.6323 11.7934 14.6839 11.7934 12.8043C11.7934 11.1117 12.9358 9.68325 14.489 9.24162V8.76088C14.489 8.20282 14.9419 7.74999 15.4999 7.74999C16.058 7.74999 16.5108 8.20282 16.5108 8.76088V9.24162C18.064 9.68325 19.2065 11.1117 19.2065 12.8043C19.2065 13.3624 18.7537 13.8152 18.1956 13.8152C17.6375 13.8152 17.1847 13.3624 17.1847 12.8043C17.1847 11.875 16.4292 11.1195 15.4999 11.1195C14.5707 11.1195 13.8151 11.875 13.8151 12.8043C13.8151 13.4664 14.9116 14.0455 15.9725 14.6063Z" fill="#3D6DF5"/>
</g>
<defs>
<clipPath id="clip0_2_6646">
<rect width="31" height="31" fill="white"/>
</clipPath>
</defs>
</svg>
