<svg width="35" height="33" viewBox="0 0 35 33" fill="none" xmlns="http://www.w3.org/2000/svg">
<g clip-path="url(#clip0_142_2690)">
<path d="M17.5 0C7.85053 0 0 7.40193 0 16.5C0 25.5981 7.85053 33 17.5 33C27.1495 33 35 25.5981 35 16.5C35 7.40193 27.1495 0 17.5 0ZM17.5 30.1304C9.52861 30.1304 3.0435 24.0159 3.0435 16.5C3.0435 8.98412 9.52861 2.86958 17.5 2.86958C25.4714 2.86958 31.9565 8.98412 31.9565 16.5C31.9565 24.0159 25.4714 30.1304 17.5 30.1304Z" fill="url(#paint0_linear_142_2690)"/>
<path d="M17.5 4.66309C10.5779 4.66309 4.94571 9.97344 4.94571 16.5C4.94571 23.0266 10.5779 28.337 17.5 28.337C24.4222 28.337 30.0544 23.0266 30.0544 16.5C30.0544 9.97344 24.4222 4.66309 17.5 4.66309ZM18.0336 15.5486C19.6601 16.3592 21.6849 17.3687 21.6849 19.3696C21.6849 21.1715 20.395 22.692 18.6414 23.1622V23.6739C18.6414 24.268 18.1301 24.75 17.5 24.75C16.87 24.75 16.3587 24.268 16.3587 23.6739V23.1622C14.6052 22.692 13.3152 21.1715 13.3152 19.3696C13.3152 18.7755 13.8265 18.2935 14.4565 18.2935C15.0866 18.2935 15.5979 18.7755 15.5979 19.3696C15.5979 20.3588 16.4509 21.1631 17.5 21.1631C18.5492 21.1631 19.4022 20.3588 19.4022 19.3696C19.4022 18.6648 18.1643 18.0483 16.9665 17.4514C15.34 16.6409 13.3152 15.6313 13.3152 13.6304C13.3152 11.8286 14.6051 10.308 16.3587 9.8379V9.32614C16.3587 8.73208 16.87 8.25003 17.5 8.25003C18.1301 8.25003 18.6414 8.73208 18.6414 9.32614V9.8379C20.3949 10.308 21.6849 11.8286 21.6849 13.6304C21.6849 14.2245 21.1736 14.7066 20.5435 14.7066C19.9135 14.7066 19.4022 14.2245 19.4022 13.6304C19.4022 12.6412 18.5492 11.837 17.5 11.837C16.4509 11.837 15.5979 12.6412 15.5979 13.6304C15.5979 14.3352 16.8358 14.9517 18.0336 15.5486Z" fill="url(#paint1_linear_142_2690)"/>
</g>
<defs>
<linearGradient id="paint0_linear_142_2690" x1="17.5" y1="0" x2="17.5" y2="33" gradientUnits="userSpaceOnUse">
<stop stop-color="#F5C13D"/>
<stop offset="1" stop-color="#F5953D" stop-opacity="0.82"/>
</linearGradient>
<linearGradient id="paint1_linear_142_2690" x1="17.5" y1="4.66309" x2="17.5" y2="28.337" gradientUnits="userSpaceOnUse">
<stop stop-color="#F5C13D"/>
<stop offset="1" stop-color="#F5953D" stop-opacity="0.82"/>
</linearGradient>
<clipPath id="clip0_142_2690">
<rect width="35" height="33" fill="white"/>
</clipPath>
</defs>
</svg>
