<svg width="21" height="21" viewBox="0 0 21 21" fill="none" xmlns="http://www.w3.org/2000/svg">
<g id="Group 2357">
<path id="Vector" d="M17.0222 9.1052C16.6824 9.1052 16.4069 9.38068 16.4069 9.72046V18.7443C16.4069 19.3097 15.9469 19.7697 15.3815 19.7697H2.25595C1.69053 19.7697 1.23052 19.3097 1.23052 18.7443V5.61874C1.23052 5.05332 1.69053 4.59331 2.25595 4.59331H11.2797C11.6195 4.59331 11.895 4.31784 11.895 3.97805C11.895 3.63826 11.6195 3.36279 11.2797 3.36279H2.25595C1.01202 3.36279 0 4.37481 0 5.61874V18.7443C0 19.9882 1.01202 21.0002 2.25595 21.0002H15.3815C16.6254 21.0002 17.6374 19.9882 17.6374 18.7443V9.72046C17.6374 9.38068 17.3619 9.1052 17.0222 9.1052Z" fill="#3D6DF5"/>
<path id="Vector_2" d="M20.5805 1.57996L19.4203 0.419791C18.8606 -0.13993 17.9499 -0.13993 17.3901 0.419791L8.10898 9.70092C8.02309 9.78681 7.96456 9.89621 7.94069 10.0153L7.36058 12.9157C7.32026 13.1174 7.38339 13.3259 7.52887 13.4714C7.6454 13.5879 7.80238 13.6516 7.9639 13.6516C8.00406 13.6516 8.04442 13.6477 8.08453 13.6397L10.9849 13.0596C11.104 13.0357 11.2134 12.9772 11.2993 12.8913L20.5805 3.61019C20.5805 3.61019 20.5805 3.61019 20.5805 3.61015C21.1402 3.05047 21.1402 2.13973 20.5805 1.57996ZM10.5609 11.8895L8.74823 12.2521L9.11083 10.4394L16.665 2.88509L18.1152 4.3353L10.5609 11.8895ZM19.7104 2.74009L18.9853 3.4652L17.5351 2.01499L18.2601 1.28993C18.3401 1.20995 18.4702 1.20991 18.5502 1.28989L19.7103 2.45006C19.7904 2.53 19.7904 2.66015 19.7104 2.74009Z" fill="#3D6DF5"/>
</g>
</svg>
