<svg width="25" height="25" viewBox="0 0 25 25" fill="none" xmlns="http://www.w3.org/2000/svg">
<g clip-path="url(#clip0_2_5031)">
<path d="M17.1875 0.78125H7.8125C5.9477 0.78125 4.15927 1.52204 2.84066 2.84066C1.52204 4.15927 0.78125 5.9477 0.78125 7.8125V17.1875C0.78125 19.0523 1.52204 20.8407 2.84066 22.1593C4.15927 23.478 5.9477 24.2188 7.8125 24.2188H17.1875C19.0523 24.2188 20.8407 23.478 22.1593 22.1593C23.478 20.8407 24.2188 19.0523 24.2188 17.1875V7.8125C24.2188 5.9477 23.478 4.15927 22.1593 2.84066C20.8407 1.52204 19.0523 0.78125 17.1875 0.78125ZM22.6562 17.1875C22.6562 18.6379 22.0801 20.0289 21.0545 21.0545C20.0289 22.0801 18.6379 22.6562 17.1875 22.6562H7.8125C6.3621 22.6562 4.9711 22.0801 3.94551 21.0545C2.91992 20.0289 2.34375 18.6379 2.34375 17.1875V7.8125C2.34375 6.3621 2.91992 4.9711 3.94551 3.94551C4.9711 2.91992 6.3621 2.34375 7.8125 2.34375H17.1875C18.6379 2.34375 20.0289 2.91992 21.0545 3.94551C22.0801 4.9711 22.6562 6.3621 22.6562 7.8125V17.1875Z" fill="#3D6DF5"/>
<path d="M17.9062 12.2031C17.8691 12.1072 17.8133 12.0196 17.7422 11.9453L13.8359 8.03905C13.6888 7.89194 13.4893 7.8093 13.2812 7.8093C13.0732 7.8093 12.8737 7.89194 12.7266 8.03905C12.5795 8.18617 12.4968 8.38569 12.4968 8.59374C12.4968 8.80179 12.5795 9.00132 12.7266 9.14843L15.3047 11.7187H7.8125C7.6053 11.7187 7.40659 11.8011 7.26007 11.9476C7.11356 12.0941 7.03125 12.2928 7.03125 12.5C7.03125 12.7072 7.11356 12.9059 7.26007 13.0524C7.40659 13.1989 7.6053 13.2812 7.8125 13.2812H15.3047L12.7266 15.8516C12.6533 15.9242 12.5952 16.0106 12.5556 16.1058C12.5159 16.201 12.4955 16.3031 12.4955 16.4062C12.4955 16.5094 12.5159 16.6115 12.5556 16.7067C12.5952 16.8019 12.6533 16.8883 12.7266 16.9609C12.7992 17.0342 12.8856 17.0923 12.9808 17.1319C13.076 17.1716 13.1781 17.192 13.2812 17.192C13.3844 17.192 13.4865 17.1716 13.5817 17.1319C13.6769 17.0923 13.7633 17.0342 13.8359 16.9609L17.7422 13.0547C17.8133 12.9804 17.8691 12.8928 17.9062 12.7969C17.9844 12.6067 17.9844 12.3933 17.9062 12.2031Z" fill="#3D6DF5"/>
</g>
<defs>
<clipPath id="clip0_2_5031">
<rect width="25" height="25" fill="white"/>
</clipPath>
</defs>
</svg>
