<svg width="28" height="28" viewBox="0 0 28 28" fill="none" xmlns="http://www.w3.org/2000/svg">
<path d="M26.9342 16.0991C26.3546 16.4984 25.7312 16.5969 25.0312 16.5641C25.0257 19.4466 25.0531 22.2689 25.0148 25.1404C24.9875 26.6719 23.6805 27.9573 22.1493 27.9846C20.6182 28.012 19.0815 27.9956 17.5449 27.9901C17.0527 27.9901 16.7246 27.6346 16.7246 27.1095C16.7191 25.8132 16.7246 24.5169 16.7191 23.2206C16.7191 22.3673 16.7191 21.5086 16.7191 20.6553C16.7137 19.7747 16.1613 19.2114 15.27 19.2004C14.4333 19.1895 13.5966 19.1895 12.76 19.2004C11.8905 19.2114 11.3327 19.7802 11.3327 20.6499C11.3272 22.7666 11.3272 24.8779 11.3272 26.9946C11.3272 27.7002 11.0319 27.9956 10.321 27.9956C8.93202 27.9956 7.54302 27.9956 6.15403 27.9956C4.32209 27.9901 3.02059 26.7102 3.00966 24.8724C2.99872 22.1048 3.00419 19.3317 3.00419 16.5641C0.466815 16.8047 -1.00967 13.9496 0.80586 12.1063C4.55724 8.35415 8.30861 4.60198 12.0655 0.855285C12.3006 0.609152 12.574 0.406776 12.8748 0.242687C13.7497 -0.194883 15.1114 -0.0581427 15.9426 0.795119C18.048 2.95562 20.1971 5.07237 22.3298 7.20552C23.9649 8.84641 25.589 10.4982 27.2514 12.1173C28.3451 13.1838 28.2412 15.2295 26.9342 16.0991Z" fill="#3D6DF5"/>
</svg>
