<svg width="22" height="21" viewBox="0 0 22 21" fill="none" xmlns="http://www.w3.org/2000/svg">
<path d="M16.6174 21C16.3296 21.0002 16.0461 20.9299 15.7916 20.7953L11.0655 18.3113C11.0289 18.2917 10.988 18.2814 10.9464 18.2814C10.9049 18.2814 10.864 18.2917 10.8274 18.3113L6.10199 20.7953C5.80916 20.9494 5.47905 21.0184 5.149 20.9947C4.81896 20.9709 4.50216 20.8552 4.23445 20.6607C3.96674 20.4662 3.75881 20.2007 3.63418 19.8941C3.50955 19.5876 3.4732 19.2523 3.52925 18.9262L4.43157 13.6647C4.4385 13.6235 4.43521 13.5812 4.42199 13.5415C4.40877 13.5019 4.38602 13.4661 4.35574 13.4372L0.535683 9.70892C0.298504 9.47785 0.130785 9.18497 0.0515287 8.86346C-0.0277278 8.54195 -0.015353 8.20467 0.0872508 7.88983C0.189855 7.575 0.378586 7.29519 0.63206 7.08212C0.885535 6.86905 1.19362 6.73122 1.52141 6.68427L6.80109 5.91768C6.84218 5.9117 6.88118 5.89581 6.91474 5.87136C6.9483 5.84692 6.9754 5.81467 6.99369 5.7774L9.35412 0.989062C9.50032 0.692223 9.72671 0.44225 10.0077 0.267448C10.2886 0.0926463 10.6129 0 10.9438 0C11.2747 0 11.599 0.0926463 11.8799 0.267448C12.1609 0.44225 12.3873 0.692223 12.5335 0.989062L14.8954 5.77589C14.9138 5.81304 14.941 5.84519 14.9745 5.86961C15.008 5.89403 15.047 5.91 15.088 5.91616L20.3722 6.68351C20.6999 6.73073 21.0077 6.8687 21.261 7.08181C21.5143 7.29491 21.7029 7.57465 21.8055 7.88937C21.908 8.20409 21.9205 8.54124 21.8414 8.86266C21.7623 9.18409 21.5948 9.47697 21.358 9.70817L17.5341 13.4342C17.5039 13.4631 17.4813 13.4989 17.468 13.5386C17.4548 13.5782 17.4515 13.6205 17.4583 13.6617L18.3606 18.9232C18.404 19.1774 18.3915 19.438 18.3239 19.6869C18.2564 19.9358 18.1354 20.167 17.9694 20.3644C17.8034 20.5618 17.5964 20.7206 17.3628 20.8299C17.1291 20.9391 16.8745 20.9961 16.6166 20.997L16.6174 21ZM10.9464 16.7644C11.234 16.7644 11.5172 16.8347 11.7714 16.9692L16.4968 19.4524C16.5386 19.4763 16.5866 19.4873 16.6347 19.4839C16.6827 19.4805 16.7287 19.463 16.7668 19.4335C16.8065 19.4062 16.8374 19.3679 16.8555 19.3233C16.8737 19.2787 16.8785 19.2297 16.8691 19.1825L15.966 13.9202C15.9178 13.637 15.939 13.3463 16.0277 13.0731C16.1165 12.7999 16.2701 12.5522 16.4756 12.3514L20.2994 8.62463C20.3336 8.5912 20.3577 8.54889 20.3691 8.50249C20.3804 8.45608 20.3786 8.40742 20.3638 8.36199C20.3489 8.31657 20.3217 8.2762 20.2852 8.24543C20.2486 8.21467 20.2042 8.19473 20.1569 8.18788L14.8734 7.41977C14.589 7.37858 14.3188 7.26876 14.0863 7.0998C13.8538 6.93083 13.6659 6.7078 13.5389 6.44997L11.1739 1.66239C11.1527 1.61954 11.12 1.58347 11.0794 1.55826C11.0388 1.53304 10.992 1.51967 10.9442 1.51967C10.8964 1.51967 10.8495 1.53304 10.8089 1.55826C10.7683 1.58347 10.7356 1.61954 10.7144 1.66239L8.35399 6.44845C8.2269 6.70638 8.0389 6.92947 7.80625 7.09844C7.5736 7.26742 7.3033 7.37718 7.01871 7.41826L1.73599 8.18788C1.68861 8.19458 1.64406 8.21445 1.60742 8.24523C1.57078 8.27602 1.54351 8.31647 1.52874 8.36198C1.51396 8.4075 1.51226 8.45625 1.52384 8.50269C1.53541 8.54912 1.55979 8.59137 1.5942 8.62463L5.41729 12.3514C5.62274 12.5522 5.77642 12.7999 5.86517 13.0731C5.95392 13.3463 5.97507 13.637 5.92683 13.9202L5.02376 19.1825C5.01557 19.2298 5.02081 19.2784 5.03889 19.3228C5.05697 19.3673 5.08717 19.4058 5.12604 19.4339C5.16492 19.462 5.2109 19.4787 5.25877 19.4819C5.30664 19.4852 5.35447 19.475 5.39682 19.4524L10.1215 16.9684C10.3758 16.8344 10.659 16.7644 10.9464 16.7644Z" fill="black" fill-opacity="0.5"/>
</svg>
