<svg width="28" height="24" viewBox="0 0 28 24" fill="none" xmlns="http://www.w3.org/2000/svg">
<path fill-rule="evenodd" clip-rule="evenodd" d="M11.3006 19.5326C10.4881 19.5326 9.68195 19.3379 8.93986 18.9536C7.71939 18.3216 6.81825 17.2519 6.40224 15.9421C5.98623 14.6321 6.10525 13.2386 6.73751 12.0182C7.36969 10.7977 8.43923 9.89655 9.74902 9.48053C11.059 9.06452 12.4525 9.18355 13.673 9.81573C14.8935 10.4479 15.7946 11.5174 16.2106 12.8272C16.6266 14.1373 16.5076 15.5307 15.8756 16.7512C15.2434 17.9717 14.1738 18.8728 12.864 19.2887C12.3503 19.4517 11.8241 19.5326 11.3006 19.5326ZM11.3112 10.1118C10.8766 10.1118 10.44 10.1789 10.0138 10.3142C8.92656 10.6594 8.03894 11.4074 7.51431 12.4203C6.98961 13.4331 6.89086 14.5898 7.23616 15.6768C7.81274 17.4927 9.49806 18.655 11.3091 18.6552C11.7364 18.6552 12.1704 18.5906 12.5988 18.4544C14.8431 17.7417 16.0891 15.3361 15.3765 13.0916C15.0312 12.0044 14.2832 11.1168 13.2704 10.5922C12.6545 10.2733 11.9855 10.1118 11.3112 10.1118Z" fill="#3D6DF5"/>
<path fill-rule="evenodd" clip-rule="evenodd" d="M11.3038 16.9069C10.9056 16.9069 10.5108 16.8116 10.1471 16.6233C9.54919 16.3135 9.10751 15.7894 8.90364 15.1476C8.48292 13.8226 9.21848 12.4024 10.5436 11.9817C11.1854 11.7779 11.8684 11.8362 12.4663 12.1459C13.0642 12.4557 13.5059 12.9798 13.7098 13.6216C13.9136 14.2634 13.8552 14.9463 13.5455 15.5443C13.2359 16.1422 12.7117 16.5839 12.0699 16.7877C11.8182 16.8672 11.5603 16.9069 11.3038 16.9069ZM11.3085 12.7375C11.1409 12.7375 10.9727 12.7634 10.8085 12.8155C10.3893 12.9485 10.0472 13.2369 9.84504 13.6274C9.64285 14.0179 9.60479 14.4636 9.73787 14.8828C9.87094 15.3019 10.1593 15.644 10.5497 15.8462C10.9402 16.0484 11.3859 16.0864 11.805 15.9534C12.2241 15.8203 12.5662 15.5319 12.7684 15.1416C12.9706 14.7511 13.0087 14.3054 12.8756 13.8863C12.7425 13.4672 12.4541 13.1251 12.0639 12.9229C11.8262 12.7997 11.5683 12.7375 11.3085 12.7375Z" fill="#3D6DF5"/>
<path fill-rule="evenodd" clip-rule="evenodd" d="M2.90203 12.8541C2.8342 12.8541 2.76546 12.8382 2.70113 12.805L1.19682 12.0259C0.111632 11.4638 -0.314102 10.1235 0.248126 9.03835C0.520276 8.51281 0.98095 8.12468 1.54538 7.94549C2.10943 7.76631 2.70948 7.81751 3.23525 8.08951L4.61705 8.80539C4.83162 8.91659 4.91548 9.18054 4.80428 9.39512C4.69308 9.60969 4.42913 9.69355 4.21455 9.58235L2.83291 8.86646C2.51481 8.70187 2.15166 8.67088 1.81024 8.77934C1.46859 8.88781 1.18991 9.12266 1.02508 9.44054C0.684949 10.0973 0.942516 10.9084 1.59931 11.2485L3.10362 12.0277C3.3182 12.1389 3.40205 12.4028 3.29085 12.6174C3.213 12.768 3.06025 12.8541 2.90203 12.8541Z" fill="#3D6DF5"/>
<path fill-rule="evenodd" clip-rule="evenodd" d="M11.2943 23.4323C11.0201 23.4323 10.7456 23.4198 10.4705 23.3946C9.30757 23.2883 8.18919 22.9625 7.14624 22.4264C6.10351 21.8903 5.18802 21.1705 4.42511 20.2869C3.6354 19.3723 3.04438 18.3213 2.66848 17.1634C2.16025 15.5977 2.09371 13.9211 2.47631 12.3152C2.76509 11.1034 3.31456 9.93319 4.06523 8.93163C5.21369 7.39815 6.78241 6.28213 8.60171 5.70426L12.1641 4.57289C12.3944 4.49982 12.6404 4.6272 12.7136 4.8575L12.8859 5.39997C13.03 5.85427 13.517 6.10637 13.971 5.9622C14.1911 5.8924 14.3707 5.74087 14.4769 5.53601C14.583 5.33108 14.6031 5.09706 14.5333 4.87702L14.361 4.33446C14.3258 4.22379 14.3362 4.10386 14.3894 4.00086C14.4428 3.89787 14.5349 3.82024 14.6455 3.785L26.2232 0.108568C26.4537 0.0354985 26.6995 0.162877 26.7727 0.3931L27.9795 4.19364C28.0411 4.38794 27.9605 4.59909 27.7852 4.70262L19.137 9.8147C19.4656 10.3831 19.7327 10.9881 19.9331 11.6189C20.3035 12.7852 20.4344 13.9895 20.3221 15.1983C20.2137 16.3656 19.8841 17.4876 19.3427 18.5329C18.8013 19.5783 18.075 20.4947 17.1841 21.2567C16.2617 22.0459 15.2024 22.6338 14.0359 23.0042C13.1396 23.289 12.2205 23.4323 11.2943 23.4323ZM12.0118 5.53951L8.86642 6.53833C7.22212 7.06045 5.80402 8.06945 4.76547 9.45634C4.08604 10.3629 3.58891 11.4217 3.32747 12.518C2.98217 13.9675 3.04203 15.4803 3.50065 16.8932C4.88609 21.1615 9.49328 23.5288 13.7711 22.1703C15.8566 21.5081 17.5592 20.0734 18.5655 18.1304C19.5717 16.1876 19.7613 13.9692 19.0991 11.8837C18.8761 11.1815 18.5617 10.5146 18.1646 9.90189C18.0999 9.80186 18.0785 9.67987 18.1059 9.56374C18.1332 9.44783 18.2065 9.34787 18.3091 9.28718L27.0398 4.12634L26.0706 1.07465L15.3269 4.48615L15.3668 4.61178C15.5073 5.0546 15.4672 5.52561 15.2536 5.93812C15.04 6.35072 14.6785 6.6553 14.2357 6.79582C13.3216 7.08605 12.3418 6.57851 12.0516 5.66445L12.0118 5.53951Z" fill="#4A4A4A"/>
<path fill-rule="evenodd" clip-rule="evenodd" d="M12.5483 1.89103C12.3627 1.89103 12.1906 1.77216 12.1314 1.58584L11.8087 0.570078C11.7356 0.339855 11.863 0.0937572 12.0932 0.0206114C12.3234 -0.0524584 12.5695 0.0749202 12.6427 0.305143L12.9654 1.3209C13.0384 1.55113 12.911 1.79722 12.6807 1.87037C12.6367 1.88435 12.592 1.89103 12.5483 1.89103Z" fill="#3D6DF5"/>
<path fill-rule="evenodd" clip-rule="evenodd" d="M14.6453 2.46077C14.5775 2.46077 14.5088 2.4449 14.4444 2.41171C14.2298 2.30051 14.146 2.03656 14.2572 1.82198L14.7474 0.875495C14.8586 0.660919 15.1226 0.577063 15.3371 0.688263C15.5517 0.799463 15.6356 1.06341 15.5244 1.27799L15.0341 2.22448C14.9563 2.37456 14.8035 2.46077 14.6453 2.46077Z" fill="#3D6DF5"/>
<path fill-rule="evenodd" clip-rule="evenodd" d="M11.1634 3.56625C11.0956 3.56625 11.0268 3.55038 10.9625 3.51718L10.016 3.02696C9.80142 2.91576 9.71757 2.65182 9.82877 2.43724C9.93997 2.22266 10.2039 2.13881 10.4185 2.25001L11.365 2.74023C11.5796 2.85143 11.6634 3.11538 11.5522 3.32995C11.4744 3.48019 11.3216 3.56625 11.1634 3.56625Z" fill="#3D6DF5"/>
</svg>
