<svg width="21" height="21" viewBox="0 0 21 21" fill="none" xmlns="http://www.w3.org/2000/svg">
<path d="M7.875 14C7.875 14.2321 7.78281 14.4546 7.61872 14.6187C7.45462 14.7828 7.23206 14.875 7 14.875C6.76794 14.875 6.54538 14.7828 6.38128 14.6187C6.21719 14.4546 6.125 14.2321 6.125 14C6.125 13.7679 6.21719 13.5454 6.38128 13.3813C6.54538 13.2172 6.76794 13.125 7 13.125C7.23206 13.125 7.45462 13.2172 7.61872 13.3813C7.78281 13.5454 7.875 13.7679 7.875 14ZM11.375 14C11.375 14.2321 11.2828 14.4546 11.1187 14.6187C10.9546 14.7828 10.7321 14.875 10.5 14.875C10.2679 14.875 10.0454 14.7828 9.88128 14.6187C9.71719 14.4546 9.625 14.2321 9.625 14C9.625 13.7679 9.71719 13.5454 9.88128 13.3813C10.0454 13.2172 10.2679 13.125 10.5 13.125C10.7321 13.125 10.9546 13.2172 11.1187 13.3813C11.2828 13.5454 11.375 13.7679 11.375 14ZM14.875 14C14.875 14.2321 14.7828 14.4546 14.6187 14.6187C14.4546 14.7828 14.2321 14.875 14 14.875C13.7679 14.875 13.5454 14.7828 13.3813 14.6187C13.2172 14.4546 13.125 14.2321 13.125 14C13.125 13.7679 13.2172 13.5454 13.3813 13.3813C13.5454 13.2172 13.7679 13.125 14 13.125C14.2321 13.125 14.4546 13.2172 14.6187 13.3813C14.7828 13.5454 14.875 13.7679 14.875 14Z" fill="black" fill-opacity="0.5"/>
<path d="M5.25 8.75033V7.00033C5.25 6.70283 5.2745 6.4097 5.32263 6.12533M15.75 8.75033V7.00033C15.7501 5.93391 15.4254 4.89276 14.8191 4.01543C14.2129 3.1381 13.3538 2.4662 12.3563 2.08913C11.3588 1.71207 10.2701 1.64772 9.23508 1.90466C8.20008 2.1616 7.26787 2.72764 6.5625 3.52745M9.625 19.2503H7C4.5255 19.2503 3.28737 19.2503 2.51912 18.4812C1.75 17.713 1.75 16.4748 1.75 14.0003C1.75 11.5258 1.75 10.2877 2.51912 9.51945C3.28737 8.75033 4.5255 8.75033 7 8.75033H14C16.4745 8.75033 17.7126 8.75033 18.4809 9.51945C19.25 10.2877 19.25 11.5258 19.25 14.0003C19.25 16.4748 19.25 17.713 18.4809 18.4812C17.7126 19.2503 16.4745 19.2503 14 19.2503H13.125" stroke="black" stroke-opacity="0.5" stroke-width="1.5" stroke-linecap="round"/>
</svg>
