<svg width="23" height="23" viewBox="0 0 23 23" fill="none" xmlns="http://www.w3.org/2000/svg">
<path d="M14.9141 4.13281H15.0938C14.9949 4.13281 14.9141 4.05195 14.9141 3.95312V4.13281H8.08594V3.95312C8.08594 4.05195 8.00508 4.13281 7.90625 4.13281H8.08594V5.75H6.46875V3.95312C6.46875 3.16025 7.11338 2.51562 7.90625 2.51562H15.0938C15.8866 2.51562 16.5312 3.16025 16.5312 3.95312V5.75H14.9141V4.13281ZM3.59375 5.75H19.4062C19.8038 5.75 20.125 6.07119 20.125 6.46875V7.1875C20.125 7.28633 20.0441 7.36719 19.9453 7.36719H18.5887L18.0339 19.1143C17.9979 19.8802 17.3646 20.4844 16.5986 20.4844H6.40137C5.6332 20.4844 5.00205 19.8824 4.96611 19.1143L4.41133 7.36719H3.05469C2.95586 7.36719 2.875 7.28633 2.875 7.1875V6.46875C2.875 6.07119 3.19619 5.75 3.59375 5.75ZM6.57432 18.8672H16.4257L16.9692 7.36719H6.03076L6.57432 18.8672Z" fill="black" fill-opacity="0.5"/>
</svg>
