<svg width="75" height="89" viewBox="0 0 75 89" fill="none" xmlns="http://www.w3.org/2000/svg">
<path fill-rule="evenodd" clip-rule="evenodd" d="M69.6669 38.1577C67.0074 38.1577 64.8695 36.0197 64.8695 33.4124C64.8695 30.753 67.0074 28.615 69.6669 28.615C72.2742 28.615 74.4122 30.753 74.4122 33.4124C74.4122 36.0197 72.2742 38.1577 69.6669 38.1577ZM69.6669 30.7009C68.1547 30.7009 66.9553 31.9002 66.9553 33.4124C66.9553 34.8725 68.1547 36.0719 69.6669 36.0719C71.127 36.0719 72.3263 34.8725 72.3263 33.4124C72.3263 31.9002 71.127 30.7009 69.6669 30.7009Z" fill="#1A1A1A"/>
<path fill-rule="evenodd" clip-rule="evenodd" d="M66.9553 33.4125C66.9553 34.8726 68.1547 36.0719 69.6669 36.0719C71.127 36.0719 72.3263 34.8726 72.3263 33.4125C72.3263 31.9003 71.127 30.7009 69.6669 30.7009C68.1547 30.7009 66.9553 31.9003 66.9553 33.4125Z" fill="#FF4646"/>
<path fill-rule="evenodd" clip-rule="evenodd" d="M70.2405 89H1.04292C0.469313 89 0 88.5307 0 87.9571V87.3313C0 70.5403 11.9414 55.8873 28.3674 52.4457C28.6802 52.3936 28.9931 52.4457 29.2017 52.6543C31.0789 54.0101 33.2691 54.7401 35.6156 54.7401C37.9622 54.7401 40.2045 54.0101 42.0296 52.6543C42.2903 52.4457 42.6032 52.3936 42.8639 52.4457C59.342 55.8873 71.2834 70.5403 71.2834 87.3313V87.9571C71.2834 88.5307 70.8141 89 70.2405 89ZM2.08583 86.9141H69.1976C68.989 71.4268 58.0384 57.9732 42.9161 54.5837C40.7781 56.0438 38.2751 56.826 35.6156 56.826C33.0083 56.826 30.5053 56.0438 28.3674 54.5837C13.2451 57.9732 2.29442 71.4268 2.08583 86.9141Z" fill="#1A1A1A"/>
<path fill-rule="evenodd" clip-rule="evenodd" d="M13.1929 89C12.6193 89 12.15 88.5307 12.15 87.9571V72.8869C12.15 72.3133 12.6193 71.844 13.1929 71.844C13.7665 71.844 14.2358 72.3133 14.2358 72.8869V87.9571C14.2358 88.5307 13.7665 89 13.1929 89Z" fill="#1A1A1A"/>
<path fill-rule="evenodd" clip-rule="evenodd" d="M58.0905 89C57.5169 89 57.0476 88.5307 57.0476 87.9571V72.8869C57.0476 72.3133 57.5169 71.844 58.0905 71.844C58.6641 71.844 59.1334 72.3133 59.1334 72.8869V87.9571C59.1334 88.5307 58.6641 89 58.0905 89Z" fill="#1A1A1A"/>
<path fill-rule="evenodd" clip-rule="evenodd" d="M35.6156 56.826C33.7905 56.826 32.0176 56.461 30.3489 55.6788C29.9839 55.5223 29.7232 55.1573 29.7232 54.7402V48.7434C29.7232 48.4827 29.8274 48.1698 30.036 48.0133C30.2968 47.8048 30.5575 47.7005 30.8704 47.7005C31.1311 47.7526 31.3918 47.7526 31.6526 47.7526H39.1616C39.5266 47.7526 39.9437 47.7526 40.3609 47.7005C40.6738 47.6483 40.9345 47.7526 41.1952 47.909C41.4038 48.1176 41.5081 48.4305 41.5081 48.6912V54.7402C41.5081 55.1573 41.2995 55.5223 40.9345 55.6788C39.2658 56.461 37.4929 56.826 35.6156 56.826ZM31.809 54.0623C34.2598 55.0009 37.0236 55.0009 39.4223 54.0623V49.8384C39.318 49.8384 39.2658 49.8384 39.1616 49.8384H31.809V54.0623Z" fill="#1A1A1A"/>
<path fill-rule="evenodd" clip-rule="evenodd" d="M50.06 28.9279H20.7019C20.1283 28.9279 19.659 28.4586 19.659 27.885V12.9713C19.659 12.6063 19.8154 12.2934 20.1283 12.0848C20.4412 11.8762 20.8062 11.8762 21.1191 12.0327L35.4071 18.3423L49.6429 12.0327C49.9558 11.8762 50.3208 11.8762 50.6336 12.0848C50.9465 12.2934 51.103 12.6063 51.103 12.9713V27.885C51.103 28.4586 50.6336 28.9279 50.06 28.9279ZM21.7448 26.8421H49.0171V14.5878L35.8242 20.4282C35.5635 20.5325 35.2506 20.5325 34.9377 20.4282L21.7448 14.5878V26.8421Z" fill="#1A1A1A"/>
<path fill-rule="evenodd" clip-rule="evenodd" d="M35.407 20.5324C35.2506 20.5324 35.0942 20.4803 34.9377 20.4281L11.7328 10.1033C11.3678 9.94683 11.1071 9.5818 11.1071 9.11249C11.1592 8.69533 11.4199 8.3303 11.8371 8.17387L35.042 0.0391094C35.2506 -0.0130365 35.5113 -0.0130365 35.7199 0.0391094L58.9248 8.17387C59.342 8.3303 59.6027 8.69533 59.6549 9.11249C59.6549 9.5818 59.3941 9.94683 59.0291 10.1033L35.8242 20.4281C35.6678 20.4803 35.5113 20.5324 35.407 20.5324ZM15.018 9.26893L35.407 18.3423L55.7961 9.26893L35.407 2.12494L15.018 9.26893Z" fill="#1A1A1A"/>
<path fill-rule="evenodd" clip-rule="evenodd" d="M39.1616 49.8384H31.6525C25.03 49.8384 19.659 44.4674 19.659 37.8449V27.885C19.659 27.3114 20.1283 26.8421 20.7019 26.8421H50.06C50.6336 26.8421 51.103 27.3114 51.103 27.885V37.8449C51.103 44.4674 45.7319 49.8384 39.1616 49.8384ZM21.7448 28.928V37.8449C21.7448 43.3202 26.1772 47.7526 31.6525 47.7526H39.1616C44.5847 47.7526 49.0171 43.3202 49.0171 37.8449V28.928H21.7448Z" fill="#1A1A1A"/>
<path fill-rule="evenodd" clip-rule="evenodd" d="M50.06 36.4369C49.4864 36.4369 49.0171 36.0198 49.0171 35.394V22.8269C49.0171 22.2533 49.4864 21.7839 50.06 21.7839C53.7102 21.7839 56.6826 25.0691 56.6826 29.1365C56.6826 33.1517 53.7102 36.4369 50.06 36.4369ZM51.1029 23.9741V34.2468C53.1366 33.6732 54.5967 31.5874 54.5967 29.1365C54.5967 26.6335 53.1366 24.5477 51.1029 23.9741Z" fill="#1A1A1A"/>
<path fill-rule="evenodd" clip-rule="evenodd" d="M20.7019 36.4369C17.0517 36.4369 14.0794 33.1517 14.0794 29.1365C14.0794 25.0691 17.0517 21.7839 20.7019 21.7839C21.2755 21.7839 21.7448 22.2533 21.7448 22.8269V35.394C21.7448 36.0198 21.2755 36.4369 20.7019 36.4369ZM19.659 23.9741C17.6253 24.5477 16.1652 26.6335 16.1652 29.1365C16.1652 31.5874 17.6253 33.6732 19.659 34.2468V23.9741Z" fill="#1A1A1A"/>
<path fill-rule="evenodd" clip-rule="evenodd" d="M69.6669 30.7009C69.0411 30.7009 68.624 30.2316 68.624 29.658V10.2076H58.612C58.0384 10.2076 57.569 9.73825 57.569 9.16465C57.569 8.59104 58.0384 8.12173 58.612 8.12173H69.6669C70.2405 8.12173 70.7098 8.59104 70.7098 9.16465V29.658C70.7098 30.2316 70.2405 30.7009 69.6669 30.7009Z" fill="#1A1A1A"/>
<path fill-rule="evenodd" clip-rule="evenodd" d="M72.9521 45.6146H66.3295C66.0167 45.6146 65.7038 45.5103 65.4952 45.2496C65.2866 44.9888 65.2345 44.676 65.2866 44.3631L67.0074 36.5412C67.1117 36.2283 67.3203 35.9676 67.581 35.8112C67.8939 35.7069 68.2068 35.7069 68.4675 35.8112C69.1976 36.1762 70.084 36.1762 70.8141 35.8112C71.0748 35.7069 71.3877 35.7069 71.7006 35.8112C71.9613 35.9676 72.1699 36.2283 72.2742 36.5412L73.995 44.3631C74.0471 44.676 73.995 44.9888 73.7864 45.2496C73.5778 45.5103 73.3171 45.6146 72.9521 45.6146ZM67.6332 43.5287H71.7006L70.4491 38.1056C69.9276 38.2099 69.354 38.2099 68.8325 38.1056L67.6332 43.5287Z" fill="#1A1A1A"/>
<path fill-rule="evenodd" clip-rule="evenodd" d="M69.1976 86.9141C68.989 71.4268 58.0384 57.9731 42.9161 54.5837C41.1953 55.783 39.2659 56.5131 37.2322 56.7216C36.7107 56.8259 36.1371 56.8259 35.6156 56.8259C35.5114 56.8259 35.4071 56.8259 35.3028 56.8259C35.042 56.8259 34.7292 56.8259 34.4684 56.7738C34.312 56.7738 34.2077 56.7738 34.0513 56.7216C32.0176 56.5131 30.0882 55.783 28.3674 54.5837C13.2451 57.9731 2.29443 71.4268 2.08585 86.9141H12.15V72.8869C12.15 72.3133 12.6193 71.8439 13.1929 71.8439C13.7665 71.8439 14.2358 72.3133 14.2358 72.8869V86.9141H57.0476V72.8869C57.0476 72.3133 57.5169 71.8439 58.0905 71.8439C58.6641 71.8439 59.1334 72.3133 59.1334 72.8869V86.9141H69.1976Z" fill="#FFF500"/>
<path fill-rule="evenodd" clip-rule="evenodd" d="M39.4223 54.0622V49.8384C39.318 49.8384 39.2659 49.8384 39.1616 49.8384H31.809V54.0622C34.2599 55.0008 37.0236 55.0008 39.4223 54.0622Z" fill="#FCC09C"/>
<path fill-rule="evenodd" clip-rule="evenodd" d="M31.6526 47.7526H39.1616C39.5266 47.7526 39.9438 47.7526 40.3609 47.7004L40.4131 47.6483C45.2626 47.0226 49.0171 42.903 49.0171 37.8449V35.394V28.9279H21.7448V35.394V37.8449C21.7448 43.0595 25.7601 47.2833 30.8182 47.7004H30.8704C31.1311 47.7526 31.3918 47.7526 31.6526 47.7526Z" fill="#FCC09C"/>
<path fill-rule="evenodd" clip-rule="evenodd" d="M21.7448 26.8421H49.0171V22.8269V14.5878L35.8242 20.4282C35.6678 20.4803 35.5114 20.5325 35.4071 20.5325C35.2506 20.5325 35.0942 20.4803 34.9378 20.4282L21.7448 14.5878V22.8269V26.8421Z" fill="#333333"/>
<path fill-rule="evenodd" clip-rule="evenodd" d="M21.1191 12.0327L35.407 18.3423L49.6429 12.0327L55.7961 9.26893L35.407 2.12494L15.018 9.26893L21.1191 12.0327Z" fill="#333333"/>
<path fill-rule="evenodd" clip-rule="evenodd" d="M19.659 27.885V23.9741C17.6253 24.5477 16.1652 26.6335 16.1652 29.1365C16.1652 31.5874 17.6253 33.6732 19.659 34.2468V27.885Z" fill="#FCC09C"/>
<path fill-rule="evenodd" clip-rule="evenodd" d="M51.103 27.885V34.2468C53.1366 33.6732 54.5967 31.5874 54.5967 29.1365C54.5967 26.6335 53.1366 24.5477 51.103 23.9741V27.885Z" fill="#FCC09C"/>
<path fill-rule="evenodd" clip-rule="evenodd" d="M68.8326 38.1056L67.6332 43.5288H71.7006L70.4491 38.1056C70.3448 38.1056 70.1883 38.1577 70.0841 38.1577C69.9276 38.1577 69.7712 38.1577 69.6669 38.1577C69.5105 38.1577 69.354 38.1577 69.1976 38.1577C69.0411 38.1577 68.9368 38.1056 68.8326 38.1056Z" fill="#FFA016"/>
</svg>
