<svg width="17" height="16" viewBox="0 0 17 16" fill="none" xmlns="http://www.w3.org/2000/svg">
<path d="M16.6286 14.7023L12.2715 10.6175C13.3719 9.3494 13.9112 7.73386 13.7785 6.10379C13.6457 4.47384 12.8509 2.95385 11.5579 1.85704C10.265 0.760337 8.57239 0.170518 6.82923 0.209105C5.08604 0.247856 3.42508 0.912023 2.18891 2.06489C0.959228 3.22385 0.25077 4.78104 0.209416 6.41522C0.168234 8.04948 0.797354 9.63625 1.9672 10.8483C3.13716 12.0606 4.75847 12.8057 6.49704 12.9302C8.23565 13.0546 9.95892 12.549 11.3117 11.5174L15.6688 15.6022C15.8441 15.743 16.0835 15.7908 16.3047 15.7296C16.526 15.6682 16.6991 15.5059 16.7646 15.2985C16.8299 15.091 16.7788 14.8668 16.6286 14.7023ZM3.14879 10.1901C2.12697 9.23269 1.55273 7.93383 1.55242 6.57953C1.55211 5.22508 2.12577 3.92607 3.14712 2.96826C4.16863 2.01044 5.55408 1.47234 6.99881 1.47234C8.44339 1.47234 9.82899 2.01044 10.8503 2.96826C11.8719 3.92607 12.4455 5.22508 12.4452 6.57953C12.4449 7.93383 11.8705 9.23269 10.8487 10.1901C9.83187 11.1547 8.44537 11.6977 6.99881 11.6977C5.55209 11.6977 4.1656 11.1547 3.14879 10.1901Z" fill="#0A0A0A" fill-opacity="0.3"/>
<path d="M16.7052 14.6324L16.7054 14.6322L16.6995 14.6267L12.4146 10.6096C13.489 9.33277 14.0142 7.72166 13.8818 6.09539L13.8818 6.09537C13.7467 4.43689 12.9381 2.89187 11.6249 1.77799C10.3121 0.664384 8.59464 0.0663443 6.82694 0.105475L6.82693 0.105475C5.05918 0.144772 3.37363 0.818265 2.11821 1.98908L2.11821 1.98908L2.11781 1.98946C0.868769 3.16667 0.147872 4.74976 0.105793 6.4126L0.105793 6.41261C0.0638876 8.07555 0.704147 9.68894 1.89262 10.9203C3.081 12.1517 4.72654 12.9073 6.48964 13.0336C8.22286 13.1576 9.94187 12.6643 11.3043 11.6526L15.5979 15.6778L15.5977 15.678L15.6039 15.683C15.8059 15.8452 16.0798 15.8994 16.3324 15.8295L16.3325 15.8295C16.5853 15.7593 16.7867 15.5727 16.8634 15.3297L16.8634 15.3296C16.9402 15.0859 16.8795 14.8233 16.7052 14.6324ZM3.22014 10.1149L3.21967 10.1144C2.21796 9.17589 1.65638 7.90408 1.65607 6.57951C1.65578 5.25479 2.21678 3.98283 3.21803 3.04387C4.21966 2.10469 5.57949 1.57599 6.99881 1.57599C8.41798 1.57599 9.77796 2.10469 10.7794 3.04387L10.8503 2.96826L10.7794 3.04387C11.7808 3.98284 12.3418 5.25479 12.3415 6.57951C12.3412 7.90407 11.7795 9.17589 10.7778 10.1144L10.7773 10.1149C9.78046 11.0606 8.41977 11.594 6.99881 11.594C5.57769 11.594 4.217 11.0606 3.22014 10.1149Z" stroke="black" stroke-opacity="0.4" stroke-width="0.2"/>
</svg>
