<svg width="25" height="25" viewBox="0 0 25 25" fill="none" xmlns="http://www.w3.org/2000/svg">
<path d="M5.20801 20.8337V19.792C5.20801 17.8581 5.97623 16.0035 7.34369 14.636C8.71114 13.2686 10.5658 12.5003 12.4997 12.5003M12.4997 12.5003C14.4335 12.5003 16.2882 13.2686 17.6557 14.636C19.0231 16.0035 19.7913 17.8581 19.7913 19.792V20.8337M12.4997 12.5003C13.6047 12.5003 14.6646 12.0613 15.446 11.2799C16.2274 10.4985 16.6663 9.43873 16.6663 8.33366C16.6663 7.22859 16.2274 6.16878 15.446 5.38738C14.6646 4.60598 13.6047 4.16699 12.4997 4.16699C11.3946 4.16699 10.3348 4.60598 9.5534 5.38738C8.77199 6.16878 8.33301 7.22859 8.33301 8.33366C8.33301 9.43873 8.77199 10.4985 9.5534 11.2799C10.3348 12.0613 11.3946 12.5003 12.4997 12.5003Z" stroke="black" stroke-opacity="0.5" stroke-width="1.5" stroke-linecap="round" stroke-linejoin="round"/>
</svg>
