<svg width="24" height="24" viewBox="0 0 24 24" fill="none" xmlns="http://www.w3.org/2000/svg">
<path d="M16.2825 12.5326C16.3528 12.4629 16.4086 12.3799 16.4467 12.2885C16.4848 12.1971 16.5044 12.0991 16.5044 12.0001C16.5044 11.9011 16.4848 11.8031 16.4467 11.7117C16.4086 11.6203 16.3528 11.5373 16.2825 11.4676L8.78252 3.96761C8.71259 3.89768 8.62957 3.8422 8.5382 3.80436C8.44684 3.76651 8.34891 3.74704 8.25002 3.74704C8.15112 3.74704 8.0532 3.76651 7.96183 3.80436C7.87046 3.84221 7.78744 3.89768 7.71752 3.96761C7.64759 4.03753 7.59212 4.12055 7.55427 4.21192C7.51643 4.30328 7.49695 4.40121 7.49695 4.5001C7.49695 4.599 7.51643 4.69692 7.55427 4.78829C7.59212 4.87966 7.64759 4.96267 7.71752 5.0326L14.6925 12.0001L7.71752 18.9676C7.57629 19.1088 7.49695 19.3004 7.49695 19.5001C7.49695 19.6998 7.57629 19.8914 7.71752 20.0326C7.85874 20.1738 8.05029 20.2532 8.25002 20.2532C8.44974 20.2532 8.64129 20.1738 8.78252 20.0326L16.2825 12.5326Z" fill="black" fill-opacity="0.6"/>
</svg>
