<svg width="70" height="95" viewBox="0 0 70 95" fill="none" xmlns="http://www.w3.org/2000/svg">
<path fill-rule="evenodd" clip-rule="evenodd" d="M31.4846 88.7621H32.0384C32.1372 88.1514 32.2152 87.5158 32.2895 86.8954C32.6454 83.9724 33.0107 80.9505 35.7072 80.315C37.266 79.9457 38.3543 78.5719 38.3543 76.9694C38.3543 75.076 36.8128 73.5347 34.9193 73.5347C33.0261 73.5347 31.4846 75.076 31.4846 76.9694V88.7621ZM32.6511 90.2236H30.7539C30.3505 90.2236 30.0231 89.8965 30.0231 89.493L30.0233 76.9694C30.0233 74.2711 32.2192 72.0732 34.9193 72.0732C37.6197 72.0732 39.8158 74.2711 39.8158 76.9694C39.8158 79.2512 38.2649 81.2111 36.044 81.7364C34.4532 82.1114 34.1126 84.0029 33.7414 87.0705C33.6371 87.921 33.5301 88.7983 33.3666 89.6337C33.3 89.9762 32.9993 90.2236 32.6511 90.2236Z" fill="black"/>
<path fill-rule="evenodd" clip-rule="evenodd" d="M34.8894 4.34835C30.7713 4.34835 26.9463 5.38165 24.1166 7.25998C21.9472 8.69848 19.363 11.3399 19.363 15.7529C19.363 21.1022 19.5456 23.4848 20.7559 28.9727C20.9806 29.9966 21.5247 30.7844 22.1374 30.9823C22.524 31.1059 22.9273 30.9823 23.3382 30.615C30.8971 23.8558 38.6666 23.8518 46.4307 30.6076C46.8532 30.9766 47.2661 31.0965 47.6544 30.969C48.2615 30.7673 48.7979 29.9852 49.0226 28.9727C50.2329 23.4845 50.4155 21.1002 50.4155 15.7529C50.4157 7.91656 42.3659 4.34835 34.8894 4.34835ZM22.4324 32.4914C22.185 32.4914 21.9358 32.4533 21.6902 32.3735C20.5561 32.0079 19.6731 30.8548 19.3286 29.2887C18.088 23.6653 17.9015 21.224 17.9015 15.7529C17.9015 11.7471 19.7702 8.38839 23.3077 6.04195C26.3756 4.0078 30.4877 2.88684 34.8891 2.88684C39.289 2.88684 43.4031 4.0078 46.4688 6.04195C50.0065 8.38839 51.877 11.7471 51.877 15.7529C51.8772 21.2238 51.6887 23.6653 50.4499 29.2887C50.1074 30.8397 49.2338 31.9871 48.1129 32.3564C47.2262 32.6494 46.288 32.421 45.4717 31.7112C38.2537 25.4295 31.3325 25.4275 24.3125 31.7035C23.7322 32.2232 23.0833 32.4914 22.4324 32.4914Z" fill="black"/>
<path fill-rule="evenodd" clip-rule="evenodd" d="M69.1101 95H0.730865C0.325657 95 0 94.6728 0 94.2694L0.000219448 74.9009C0.000219448 59.936 9.88784 47.7609 22.0421 47.7609H24.3296C24.7331 47.7609 25.0603 48.0881 25.0603 48.4916C25.0603 48.895 24.7328 49.2224 24.3294 49.2224H22.0423C10.6928 49.2224 1.46151 60.7409 1.46151 74.9009V93.5387H68.3794V74.9009C68.3794 60.7409 59.1462 49.2224 47.7969 49.2224H45.4467C45.0435 49.2224 44.7161 48.895 44.7161 48.4916C44.7161 48.0881 45.0432 47.7609 45.4467 47.7609H47.7971C59.9511 47.7609 69.8407 59.936 69.8407 74.9009L69.841 94.2694C69.841 94.6728 69.5135 95 69.1101 95Z" fill="black"/>
<path fill-rule="evenodd" clip-rule="evenodd" d="M34.8871 49.1937C27.8158 49.1937 20.0781 42.1452 18.7366 26.3999C18.7025 25.9984 18.9992 25.6445 19.4026 25.6103C19.8041 25.5761 20.1581 25.8748 20.1925 26.2763C21.4561 41.0965 28.4836 47.7322 34.8871 47.7322C41.2927 47.7322 48.3219 41.0965 49.5855 26.2743C49.6199 25.8728 49.9739 25.5722 50.3754 25.6083C50.7771 25.6425 51.0755 25.9967 51.0413 26.3981C49.698 42.1452 41.9604 49.1937 34.8871 49.1937Z" fill="black"/>
<path fill-rule="evenodd" clip-rule="evenodd" d="M24.3297 49.2224C24.2306 49.2224 24.1279 49.2014 24.0308 49.1576C23.6617 48.9921 23.498 48.5602 23.6635 48.1909C24.3639 46.6362 24.7292 45.07 24.752 43.5344C24.7577 43.1309 25.0851 42.8132 25.4923 42.8149C25.896 42.8208 26.2172 43.1518 26.2115 43.5552C26.189 45.2909 25.7796 47.0529 24.9974 48.7903C24.8756 49.0625 24.6093 49.2224 24.3297 49.2224Z" fill="black"/>
<path fill-rule="evenodd" clip-rule="evenodd" d="M45.4468 49.2224C45.169 49.2224 44.9025 49.0625 44.7808 48.7903C43.9989 47.0529 43.5895 45.2909 43.5648 43.5552C43.5591 43.1518 43.8808 42.8208 44.284 42.8149C44.6952 42.8092 45.0206 43.1309 45.0263 43.5344C45.0473 45.07 45.4127 46.6363 46.1128 48.1909C46.2785 48.5602 46.1148 48.9921 45.7475 49.1576C45.6485 49.2014 45.5477 49.2224 45.4468 49.2224Z" fill="black"/>
<path fill-rule="evenodd" clip-rule="evenodd" d="M34.8891 61.5516C28.6644 61.5516 23.5987 55.6924 23.5987 48.4916C23.5987 48.0881 23.9259 47.7609 24.3294 47.7609C24.7331 47.7609 25.0603 48.0881 25.0603 48.4916C25.0603 54.8855 29.4693 60.0901 34.8889 60.0901C40.3067 60.0901 44.716 54.8855 44.716 48.4916C44.716 48.0881 45.0432 47.7609 45.4467 47.7609C45.8504 47.7609 46.1773 48.0881 46.1773 48.4916C46.1773 55.6924 41.1137 61.5516 34.8891 61.5516Z" fill="black"/>
<path fill-rule="evenodd" clip-rule="evenodd" d="M11.7756 95C11.3724 95 11.045 94.6728 11.045 94.2694V76.0922C11.045 75.6887 11.3722 75.3615 11.7756 75.3615C12.1793 75.3615 12.5063 75.6887 12.5063 76.0922L12.5065 94.2694C12.5065 94.6728 12.1791 95 11.7756 95Z" fill="black"/>
<path fill-rule="evenodd" clip-rule="evenodd" d="M58.0635 95C57.66 95 57.3329 94.6728 57.3329 94.2694V76.0922C57.3329 75.6887 57.66 75.3615 58.0635 75.3615C58.467 75.3615 58.7941 75.6887 58.7941 76.0922L58.7944 94.2694C58.7944 94.6728 58.467 95 58.0635 95Z" fill="black"/>
<path fill-rule="evenodd" clip-rule="evenodd" d="M34.9195 73.5347C34.6891 73.5347 34.4742 73.428 34.3352 73.2435L16.5939 49.6277C16.3522 49.3062 16.4168 48.8475 16.7403 48.6058C17.0618 48.3623 17.5205 48.4289 17.7622 48.7504L34.9195 71.588L52.0765 48.7504C52.3182 48.4289 52.7769 48.3623 53.0984 48.6058C53.4221 48.8475 53.4865 49.3062 53.245 49.6277L35.5037 73.2435C35.3668 73.428 35.1496 73.5347 34.9195 73.5347Z" fill="black"/>
<path fill-rule="evenodd" clip-rule="evenodd" d="M28.1277 20.2554C27.7301 20.2554 27.4047 19.9356 27.399 19.5361C27.3819 18.4892 27.3742 17.3229 27.3742 15.7529C27.3742 6.91351 31.2696 2.88684 34.8889 2.88684C38.5066 2.88684 42.4018 6.91351 42.4018 15.7529C42.402 17.2486 42.3961 18.3676 42.381 19.3781C42.3753 19.7816 42.0461 20.1031 41.6407 20.0974C41.2375 20.0917 40.9138 19.7605 40.9195 19.3571C40.9348 18.3523 40.9403 17.241 40.9403 15.7529C40.9405 11.1896 39.85 8.49687 38.9329 7.0393C37.8424 5.30363 36.4056 4.34835 34.8889 4.34835C31.8804 4.34835 28.8357 8.26479 28.8357 15.7529C28.8357 17.3152 28.8432 18.4761 28.8585 19.5131C28.8662 19.9166 28.5445 20.2497 28.141 20.2554C28.1356 20.2554 28.1316 20.2554 28.1277 20.2554Z" fill="black"/>
<path fill-rule="evenodd" clip-rule="evenodd" d="M36.5406 4.4036C36.1373 4.4036 35.8097 4.07641 35.8097 3.67296L35.8099 2.38457C35.8099 1.87461 35.3968 1.46173 34.8886 1.46173C34.3786 1.46173 33.9658 1.87461 33.9658 2.38457V3.67274C33.9658 4.07619 33.6384 4.4036 33.2351 4.4036C32.8317 4.4036 32.5043 4.07641 32.5043 3.67296L32.5045 2.38457C32.5045 1.06967 33.5737 0 34.8886 0C36.2018 0 37.2712 1.06967 37.2712 2.38457L37.2714 3.67274C37.2714 4.07619 36.9438 4.4036 36.5406 4.4036Z" fill="black"/>
<path fill-rule="evenodd" clip-rule="evenodd" d="M50.8873 23.22C50.7751 23.22 50.6609 23.1935 50.5542 23.1402C42.4191 18.967 34.3294 19.1916 28.9765 20.1144C23.1688 21.1153 19.2637 23.1174 19.2256 23.1383C18.8679 23.3228 18.4264 23.1841 18.2399 22.8262C18.0553 22.4683 18.1943 22.027 18.5521 21.8405C18.7196 21.7548 22.6987 19.7129 28.729 18.674C34.3011 17.713 42.7273 17.4827 51.2222 21.8385C51.58 22.0232 51.7227 22.4626 51.5382 22.8225C51.4087 23.0756 51.1518 23.22 50.8873 23.22Z" fill="black"/>
<path fill-rule="evenodd" clip-rule="evenodd" d="M45.4714 31.7113C38.2534 25.4295 31.3322 25.4276 24.3122 31.7036C23.7319 32.2232 23.083 32.4914 22.4321 32.4914C22.1847 32.4914 21.9355 32.4533 21.6901 32.3735C21.4678 32.3019 21.2555 32.2002 21.0548 32.0711C22.1032 36.8258 23.8504 40.4352 25.9486 42.9835C26.0161 43.0398 26.0731 43.1079 26.1167 43.1846C28.7371 46.2698 31.8808 47.7322 34.8871 47.7322C37.8936 47.7322 41.0375 46.2705 43.6583 43.1862C43.7024 43.1084 43.7605 43.0391 43.8288 42.9824C45.9281 40.4326 47.6762 36.8212 48.7244 32.0632C48.5307 32.1873 48.3262 32.2859 48.1126 32.3564C47.2259 32.6494 46.2877 32.4211 45.4714 31.7113Z" fill="#FCC09C"/>
<path fill-rule="evenodd" clip-rule="evenodd" d="M43.7114 45.2599C41.0099 47.9246 37.8888 49.1937 34.8873 49.1937C31.8872 49.1937 28.7671 47.9248 26.0663 45.2615C25.8897 46.3905 25.5533 47.5235 25.0613 48.6469C25.1321 54.9696 29.5135 60.0901 34.8891 60.0901C40.2642 60.0901 44.6465 54.9674 44.7153 48.6425C44.2242 47.52 43.8885 46.3881 43.7114 45.2599Z" fill="#FCC09C"/>
<path fill-rule="evenodd" clip-rule="evenodd" d="M34.8894 61.5516C28.8768 61.5516 23.9453 56.0847 23.6163 49.2224H22.0426C20.8057 49.2224 19.594 49.3592 18.4168 49.6213L34.9199 71.588L51.4227 49.6213C50.2455 49.3592 49.0338 49.2224 47.7971 49.2224H46.1603C45.8313 56.0847 40.902 61.5516 34.8894 61.5516Z" fill="#FFF500"/>
<path fill-rule="evenodd" clip-rule="evenodd" d="M33.5932 72.2557L16.899 50.0339C8.03069 52.8905 1.46145 62.9559 1.46145 74.9009V93.5387H11.0447L11.0449 76.0922C11.0449 75.6887 11.3721 75.3615 11.7755 75.3615C12.1792 75.3615 12.5062 75.6887 12.5062 76.0922L12.5064 93.5387H57.3327V76.0922C57.3327 75.6887 57.6599 75.3615 58.0633 75.3615C58.4668 75.3615 58.794 75.6887 58.794 76.0922L58.7942 93.5387H68.3794V74.9009C68.3794 62.9559 61.8086 52.8903 52.9398 50.0337L36.2458 72.2557C38.3036 72.8356 39.8158 74.7302 39.8158 76.9695C39.8158 79.2512 38.2649 81.2111 36.044 81.7364C34.4532 82.1114 34.1124 84.0029 33.7414 87.0705C33.6371 87.921 33.5301 88.7983 33.3666 89.6337C33.3 89.9762 32.9993 90.2236 32.6511 90.2236H30.7539C30.3505 90.2236 30.0231 89.8962 30.0231 89.493L30.0233 76.9695C30.0233 74.7302 31.5354 72.8356 33.5932 72.2557Z" fill="#FFF500"/>
<path fill-rule="evenodd" clip-rule="evenodd" d="M34.9195 73.5347C33.026 73.5347 31.4848 75.076 31.4848 76.9694V88.7623H32.0385C32.1374 88.1514 32.2154 87.5158 32.2897 86.8954C32.6458 83.9724 33.0109 80.9505 35.7073 80.3148C37.2662 79.9457 38.3545 78.5719 38.3545 76.9694C38.3545 75.076 36.813 73.5347 34.9195 73.5347Z" fill="#FF4646"/>
<path fill-rule="evenodd" clip-rule="evenodd" d="M19.523 21.3855C20.9074 20.7765 23.6895 19.6882 27.3903 18.9269C27.3793 18.0334 27.3743 17.0258 27.3743 15.7529C27.3743 10.2898 28.8621 6.66501 30.8533 4.6931C28.3065 5.1406 25.9925 6.01458 24.1164 7.26001C21.947 8.69873 19.3626 11.3399 19.3626 15.7529C19.3626 18.0054 19.395 19.7318 19.523 21.3855Z" fill="#333333"/>
<path fill-rule="evenodd" clip-rule="evenodd" d="M34.8891 4.34835C31.8806 4.34835 28.836 8.26478 28.836 15.7529C28.836 16.8995 28.8399 17.8298 28.8483 18.6536C32.1031 18.1024 36.3116 17.8061 40.93 18.5171C40.9377 17.7266 40.9407 16.8403 40.9407 15.7529C40.9407 11.1896 39.8503 8.49686 38.9331 7.03907C37.8428 5.30362 36.4059 4.34835 34.8891 4.34835Z" fill="#333333"/>
<path fill-rule="evenodd" clip-rule="evenodd" d="M38.9291 4.69879C40.917 6.67202 42.4022 10.295 42.4022 15.7529C42.4022 16.9574 42.3984 17.9175 42.389 18.7735C44.9366 19.2773 47.5881 20.1007 50.2569 21.363C50.3834 19.7156 50.4154 17.9946 50.4154 15.7529C50.4156 9.32593 45.0011 5.77 38.9291 4.69879Z" fill="#333333"/>
<path fill-rule="evenodd" clip-rule="evenodd" d="M35.8101 2.90329L35.8103 2.38457C35.8103 1.8746 35.3972 1.46151 34.889 1.46151C34.379 1.46151 33.9661 1.8746 33.9661 2.38457V2.90351C34.2723 2.89256 34.58 2.88686 34.889 2.88686C35.1975 2.88686 35.5048 2.89256 35.8101 2.90329Z" fill="#E57373"/>
<path fill-rule="evenodd" clip-rule="evenodd" d="M50.1069 22.9152C42.1234 18.9755 34.2314 19.2085 28.9764 20.1145C24.298 20.9207 20.8543 22.3765 19.672 22.9233C19.8777 24.6807 20.2137 26.5154 20.7556 28.973C20.9803 29.9966 21.5244 30.7844 22.1372 30.9823C22.5237 31.1062 22.9268 30.9823 23.3379 30.615C30.8966 23.8558 38.6663 23.8519 46.4304 30.6076C46.8529 30.9766 47.2658 31.0965 47.6541 30.969C48.2612 30.7674 48.7977 29.9852 49.0223 28.973C49.5651 26.5119 49.9011 24.675 50.1069 22.9152Z" fill="#333333"/>
</svg>
