<svg width="20" height="20" viewBox="0 0 20 20" fill="none" xmlns="http://www.w3.org/2000/svg">
<path d="M14.6742 18.5569C14.437 18.557 14.2033 18.4991 13.9936 18.3881L10.098 16.3406C10.0678 16.3245 10.0341 16.316 9.99985 16.316C9.96561 16.316 9.93191 16.3245 9.90172 16.3406L6.00672 18.3881C5.76535 18.5151 5.49325 18.5721 5.22121 18.5525C4.94916 18.5329 4.68803 18.4375 4.46737 18.2772C4.24671 18.1169 4.07531 17.898 3.97259 17.6454C3.86986 17.3927 3.8399 17.1163 3.8861 16.8475L4.62985 12.5106C4.63556 12.4766 4.63285 12.4418 4.62196 12.4091C4.61106 12.3764 4.59231 12.3469 4.56735 12.3231L1.4186 9.25001C1.2231 9.05954 1.08485 8.81812 1.01952 8.55311C0.954196 8.28811 0.964396 8.0101 1.04897 7.75059C1.13354 7.49108 1.28911 7.26044 1.49804 7.08481C1.70697 6.90918 1.96091 6.79558 2.2311 6.75688L6.58297 6.12501C6.61684 6.12008 6.64899 6.10697 6.67665 6.08683C6.70431 6.06668 6.72664 6.0401 6.74172 6.00938L8.68735 2.06251C8.80786 1.81783 8.99447 1.61179 9.22605 1.4677C9.45762 1.32362 9.72492 1.24725 9.99766 1.24725C10.2704 1.24725 10.5377 1.32362 10.7693 1.4677C11.0009 1.61179 11.1875 1.81783 11.308 2.06251L13.2548 6.00813C13.2701 6.03875 13.2924 6.06525 13.3201 6.08538C13.3477 6.10551 13.3798 6.11868 13.4136 6.12376L17.7692 6.75626C18.0393 6.79518 18.293 6.9089 18.5018 7.08456C18.7106 7.26021 18.8661 7.49079 18.9506 7.75021C19.0351 8.00962 19.0454 8.28752 18.9802 8.55246C18.915 8.8174 18.777 9.05881 18.5817 9.24938L15.4298 12.3206C15.405 12.3444 15.3863 12.374 15.3754 12.4066C15.3645 12.4393 15.3617 12.4742 15.3673 12.5081L16.1111 16.845C16.1469 17.0546 16.1366 17.2694 16.0809 17.4745C16.0252 17.6797 15.9255 17.8703 15.7886 18.033C15.6518 18.1957 15.4812 18.3266 15.2886 18.4166C15.0961 18.5067 14.8862 18.5537 14.6736 18.5544L14.6742 18.5569ZM9.99985 15.0656C10.2369 15.0656 10.4703 15.1235 10.6798 15.2344L14.5748 17.2813C14.6093 17.301 14.6489 17.31 14.6885 17.3072C14.7281 17.3044 14.766 17.29 14.7973 17.2656C14.8301 17.2432 14.8555 17.2116 14.8705 17.1748C14.8855 17.1381 14.8894 17.0977 14.8817 17.0588L14.1373 12.7213C14.0976 12.4878 14.115 12.2482 14.1882 12.023C14.2613 11.7978 14.388 11.5937 14.5573 11.4281L17.7092 8.35626C17.7374 8.3287 17.7572 8.29383 17.7666 8.25558C17.776 8.21732 17.7745 8.17721 17.7622 8.13977C17.75 8.10233 17.7276 8.06906 17.6975 8.0437C17.6673 8.01834 17.6307 8.0019 17.5917 7.99625L13.2367 7.36313C13.0023 7.32918 12.7796 7.23866 12.5879 7.09939C12.3963 6.96011 12.2414 6.77628 12.1367 6.56376L10.1873 2.61751C10.1699 2.58219 10.1429 2.55246 10.1094 2.53167C10.076 2.51089 10.0374 2.49987 9.99797 2.49987C9.95858 2.49987 9.91997 2.51089 9.8865 2.53167C9.85304 2.55246 9.82605 2.58219 9.8086 2.61751L7.86297 6.56251C7.75822 6.7751 7.60326 6.95899 7.41149 7.09827C7.21973 7.23755 6.99692 7.32803 6.76235 7.36188L2.40797 7.99625C2.36892 8.00178 2.3322 8.01816 2.30199 8.04353C2.27179 8.0689 2.24932 8.10225 2.23714 8.13977C2.22496 8.17728 2.22356 8.21747 2.2331 8.25574C2.24264 8.29402 2.26273 8.32884 2.2911 8.35626L5.44235 11.4281C5.61169 11.5937 5.73837 11.7978 5.81152 12.023C5.88467 12.2482 5.90211 12.4878 5.86235 12.7213L5.11797 17.0588C5.11122 17.0977 5.11554 17.1378 5.13045 17.1744C5.14535 17.2111 5.17024 17.2428 5.20228 17.266C5.23432 17.2892 5.27223 17.3029 5.31169 17.3056C5.35115 17.3083 5.39057 17.2999 5.42547 17.2813L9.31985 15.2338C9.5295 15.1233 9.76289 15.0656 9.99985 15.0656Z" fill="black" fill-opacity="0.5"/>
</svg>
