<svg width="106" height="89" viewBox="0 0 106 89" fill="none" xmlns="http://www.w3.org/2000/svg">
<path fill-rule="evenodd" clip-rule="evenodd" d="M42.7793 73.9435C39.7035 73.9435 36.6518 73.2066 33.8425 71.7519C29.2222 69.3592 25.8108 65.3097 24.2359 60.3513C22.661 55.392 23.1116 50.1168 25.5051 45.4965C27.8983 40.8762 31.9472 37.4648 36.9057 35.8899C41.8649 34.315 47.1402 34.7656 51.7605 37.1589C56.3807 39.5521 59.7922 43.601 61.3671 48.5594C62.9419 53.5187 62.4914 58.794 60.0987 63.4142C57.7055 68.0345 53.6566 71.4459 48.6979 73.0205C46.7532 73.6373 44.7614 73.9435 42.7793 73.9435ZM42.8196 38.2797C41.1743 38.2797 39.5214 38.5336 37.908 39.0457C33.7921 40.3529 30.4319 43.1844 28.4458 47.0188C26.4595 50.8532 26.0857 55.2319 27.3928 59.3469C29.5756 66.2212 35.9556 70.6215 42.8115 70.6221C44.4293 70.6221 46.0723 70.3777 47.694 69.8621C56.1901 67.1638 60.907 58.057 58.2092 49.5604C56.9021 45.4444 54.0706 42.0842 50.2365 40.0981C47.9048 38.891 45.3721 38.2797 42.8196 38.2797Z" fill="#FFF500"/>
<path fill-rule="evenodd" clip-rule="evenodd" d="M42.7906 64.0037C41.2833 64.0037 39.7886 63.6428 38.4118 62.93C36.1483 61.7574 34.4762 59.7734 33.7044 57.3436C32.1117 52.3277 34.8963 46.9512 39.9128 45.3585C42.3426 44.587 44.9279 44.8078 47.1914 45.9802C49.455 47.1528 51.127 49.1368 51.8988 51.5666C52.6703 53.9963 52.4495 56.5816 51.2771 58.8452C50.1048 61.1087 48.1205 62.7808 45.6907 63.5526C44.7381 63.8533 43.7616 64.0037 42.7906 64.0037ZM42.8084 48.2195C42.1741 48.2195 41.5371 48.3176 40.9155 48.5149C39.3288 49.0186 38.0337 50.1104 37.2683 51.5887C36.5028 53.067 36.3588 54.7543 36.8625 56.3409C37.3663 57.9276 38.4581 59.2227 39.9358 59.9882C41.4141 60.7536 43.1014 60.8977 44.6881 60.3939C46.2747 59.8901 47.5698 58.7983 48.3353 57.3209C49.1007 55.8426 49.2448 54.1553 48.741 52.5687C48.2372 50.982 47.1454 49.6869 45.668 48.9214C44.7683 48.4553 43.7918 48.2195 42.8084 48.2195Z" fill="#FFF500"/>
<path fill-rule="evenodd" clip-rule="evenodd" d="M10.9861 48.6612C10.7293 48.6612 10.4691 48.6011 10.2256 48.4755L4.53075 45.5258C0.422602 43.398 -1.18908 38.3243 0.93932 34.2161C1.96959 32.2266 3.71355 30.7573 5.85029 30.079C7.98559 29.4006 10.2572 29.5944 12.2476 30.6241L17.4786 33.3343C18.2909 33.7552 18.6083 34.7544 18.1874 35.5667C17.7664 36.3791 16.7672 36.6965 15.9549 36.2755L10.7245 33.5654C9.52022 32.9423 8.14547 32.825 6.85296 33.2356C5.55958 33.6462 4.50458 34.5353 3.88061 35.7387C2.59299 38.2251 3.56805 41.2955 6.05445 42.5831L11.7493 45.5327C12.5616 45.9537 12.879 46.9529 12.4581 47.7652C12.1633 48.3354 11.5851 48.6612 10.9861 48.6612Z" fill="#FFF500"/>
<path fill-rule="evenodd" clip-rule="evenodd" d="M42.7577 88.7066C41.7197 88.7066 40.6805 88.6592 39.639 88.5637C35.2367 88.1614 31.0029 86.9281 27.0546 84.8984C23.1072 82.8689 19.6414 80.1441 16.7534 76.7991C13.7638 73.3368 11.5264 69.358 10.1033 64.9747C8.17936 59.0473 7.92747 52.7003 9.37583 46.621C10.4691 42.0333 12.5492 37.6034 15.391 33.8118C19.7386 28.0066 25.6773 23.7817 32.5646 21.5941L46.0507 17.3111C46.9222 17.0345 47.8539 17.5167 48.1308 18.3885L48.7829 20.4422C49.3287 22.162 51.1721 23.1163 52.8911 22.5706C53.7241 22.3063 54.4038 21.7326 54.8061 20.9571C55.2078 20.1813 55.2837 19.2954 55.0195 18.4624L54.3673 16.4085C54.2342 15.9895 54.2736 15.5355 54.4749 15.1456C54.677 14.7557 55.0255 14.4618 55.4445 14.3284L99.2737 0.410668C100.146 0.13405 101.077 0.616263 101.354 1.48781L105.922 15.8754C106.155 16.6109 105.85 17.4103 105.187 17.8022L72.4475 37.1548C73.6917 39.3065 74.7027 41.5971 75.4613 43.9848C76.8636 48.4001 77.3591 52.9591 76.9341 57.5354C76.5235 61.9543 75.2758 66.202 73.2262 70.1589C71.1766 74.1166 68.4271 77.5858 65.0545 80.4705C61.5625 83.4581 57.5527 85.6836 53.1366 87.086C49.7436 88.164 46.264 88.7066 42.7577 88.7066ZM45.4739 20.9704L33.5666 24.7516C27.3419 26.7282 21.9734 30.5479 18.0418 35.7982C15.4698 39.2303 13.5878 43.2384 12.5981 47.3888C11.2909 52.876 11.5175 58.603 13.2537 63.9516C18.4985 80.1099 35.9397 89.0718 52.134 83.9291C60.0291 81.422 66.4746 75.9908 70.284 68.6354C74.0934 61.2803 74.8111 52.8823 72.304 44.9872C71.4601 42.3289 70.2697 39.8045 68.7664 37.4849C68.5214 37.1062 68.4406 36.6444 68.5441 36.2048C68.6476 35.766 68.9251 35.3876 69.3136 35.1578L102.365 15.6206L98.696 4.06794L58.024 16.9827L58.175 17.4583C58.7069 19.1347 58.5551 20.9178 57.7465 22.4794C56.9377 24.0413 55.5693 25.1944 53.8929 25.7264C50.4326 26.8251 46.7232 24.9037 45.6245 21.4434L45.4739 20.9704Z" fill="white"/>
<path fill-rule="evenodd" clip-rule="evenodd" d="M47.5043 7.15881C46.8018 7.15881 46.1502 6.7088 45.926 6.00345L44.7045 2.15812C44.4279 1.28658 44.9101 0.354933 45.7816 0.0780279C46.6532 -0.19859 47.5848 0.283623 47.8617 1.15517L49.0832 5.0005C49.3598 5.87204 48.8776 6.80369 48.0058 7.08059C47.839 7.1335 47.6699 7.15881 47.5043 7.15881Z" fill="#FFF500"/>
<path fill-rule="evenodd" clip-rule="evenodd" d="M55.443 9.3157C55.1862 9.3157 54.926 9.25561 54.6825 9.12995C53.8701 8.70898 53.5527 7.70977 53.9737 6.89746L55.8295 3.31437C56.2504 2.50205 57.2496 2.18461 58.062 2.60557C58.8743 3.02654 59.1917 4.02575 58.7708 4.83807L56.9149 8.42115C56.6202 8.98934 56.042 9.3157 55.443 9.3157Z" fill="#FFF500"/>
<path fill-rule="evenodd" clip-rule="evenodd" d="M42.263 13.5005C42.0062 13.5005 41.746 13.4404 41.5024 13.3148L37.9193 11.459C37.107 11.038 36.7896 10.0388 37.2105 9.22646C37.6315 8.41415 38.6307 8.0967 39.443 8.51767L43.0261 10.3735C43.8384 10.7944 44.1559 11.7937 43.7349 12.606C43.4402 13.1747 42.8619 13.5005 42.263 13.5005Z" fill="#FFF500"/>
</svg>
