<svg width="54" height="60" viewBox="0 0 54 60" fill="none" xmlns="http://www.w3.org/2000/svg">
<path d="M52.7381 12.6438C43.215 11.7 33.6347 11.2139 24.083 11.2139C18.4206 11.2139 12.7582 11.4999 7.09585 12.0718L1.26188 12.6438" stroke="#3D6DF5" stroke-width="2.5" stroke-linecap="round" stroke-linejoin="round"/>
<path d="M16.9908 9.75539L17.6199 6.00907C18.0775 3.29227 18.4206 1.26181 23.2537 1.26181H30.7463C35.5794 1.26181 35.9512 3.40666 36.3801 6.03766L37.0093 9.75539" stroke="#3D6DF5" stroke-width="2.5" stroke-linecap="round" stroke-linejoin="round"/>
<path d="M46.5895 21.681L44.7306 50.4791C44.4161 54.969 44.1587 58.4579 36.1799 58.4579H17.82C9.84121 58.4579 9.58383 54.969 9.26925 50.4791L7.41039 21.681" stroke="#3D6DF5" stroke-width="2.5" stroke-linecap="round" stroke-linejoin="round"/>
<path d="M22.2384 42.7287H31.7615" stroke="#3D6DF5" stroke-width="2.5" stroke-linecap="round" stroke-linejoin="round"/>
<path d="M19.8505 31.2896H34.1494" stroke="#3D6DF5" stroke-width="2.5" stroke-linecap="round" stroke-linejoin="round"/>
</svg>
