<svg width="20" height="20" viewBox="0 0 20 20" fill="none" xmlns="http://www.w3.org/2000/svg">
<g clip-path="url(#clip0_2_6014)">
<path d="M0.342596 7.39409L2.54885 9.59995C2.44261 9.4811 2.31323 9.38517 2.16865 9.31804C2.02406 9.25091 1.86729 9.21399 1.70794 9.20953C1.54859 9.20507 1.39001 9.23317 1.24189 9.29211C1.09377 9.35104 0.95924 9.43958 0.846518 9.5523C0.733795 9.66503 0.645258 9.79956 0.586319 9.94768C0.527382 10.0958 0.499283 10.2544 0.503742 10.4137C0.508202 10.5731 0.545126 10.7298 0.612255 10.8744C0.679386 11.019 0.775311 11.1484 0.894159 11.2546L8.74572 19.1062C8.85196 19.225 8.98133 19.321 9.12592 19.3881C9.27051 19.4552 9.42728 19.4922 9.58663 19.4966C9.74598 19.5011 9.90456 19.473 10.0527 19.414C10.2008 19.3551 10.3353 19.2666 10.4481 19.1538C10.5608 19.0411 10.6493 18.9066 10.7082 18.7585C10.7672 18.6103 10.7953 18.4518 10.7908 18.2924C10.7864 18.1331 10.7494 17.9763 10.6823 17.8317C10.6152 17.6871 10.5193 17.5577 10.4004 17.4515L12.6055 19.657C12.8287 19.8566 13.1199 19.9631 13.4193 19.9547C13.7186 19.9463 14.0034 19.8237 14.2151 19.6119C14.4269 19.4002 14.5495 19.1154 14.5579 18.8161C14.5663 18.5167 14.4597 18.2255 14.2602 18.0023L13.4328 17.1749C13.6561 17.3745 13.9473 17.4811 14.2466 17.4727C14.546 17.4643 14.8307 17.3416 15.0425 17.1299C15.2542 16.9182 15.3769 16.6334 15.3852 16.334C15.3936 16.0347 15.2871 15.7435 15.0875 15.5203L17.668 18.1007C17.8876 18.3201 18.1853 18.4433 18.4957 18.4431C18.8061 18.443 19.1037 18.3195 19.3231 18.0999C19.5424 17.8804 19.6656 17.5826 19.6655 17.2722C19.6653 16.9619 19.5419 16.6642 19.3223 16.4449L18.0028 15.1253C18.2262 15.3228 18.5166 15.4277 18.8147 15.4186C19.1128 15.4094 19.3962 15.287 19.6072 15.0762C19.8181 14.8654 19.9408 14.5821 19.9501 14.284C19.9595 13.9859 19.8548 13.6954 19.6574 13.4718L16.8406 10.655C17.0639 10.8546 17.3551 10.9611 17.6544 10.9528C17.9538 10.9444 18.2385 10.8217 18.4503 10.61C18.662 10.3982 18.7847 10.1135 18.7931 9.81412C18.8014 9.51478 18.6949 9.22359 18.4953 9.00034L10.9992 1.50424C10.776 1.30467 10.4848 1.19814 10.1855 1.20651C9.88612 1.21489 9.60134 1.33754 9.3896 1.54929C9.17785 1.76104 9.0552 2.04581 9.04682 2.34515C9.03844 2.64448 9.14498 2.93567 9.34455 3.15893L6.52775 0.342132C6.30449 0.14256 6.01331 0.0360271 5.71397 0.0444044C5.41463 0.0527817 5.12986 0.175434 4.91811 0.38718C4.70637 0.598926 4.58371 0.8837 4.57534 1.18304C4.56696 1.48237 4.67349 1.77356 4.87306 1.99682L3.55471 0.676898C3.33504 0.457921 3.03753 0.334959 2.72736 0.334959C2.4172 0.334959 2.11968 0.457921 1.90002 0.676898C1.79137 0.785505 1.70518 0.914454 1.64638 1.05638C1.58757 1.1983 1.5573 1.35042 1.5573 1.50405C1.5573 1.65767 1.58757 1.80979 1.64638 1.95171C1.70518 2.09364 1.79137 2.22259 1.90002 2.3312L4.48049 4.91166C4.37425 4.79281 4.24487 4.69689 4.10028 4.62976C3.9557 4.56263 3.79893 4.52571 3.63958 4.52125C3.48023 4.51679 3.32165 4.54489 3.17353 4.60382C3.02541 4.66276 2.89088 4.7513 2.77816 4.86402C2.66544 4.97674 2.5769 5.11128 2.51796 5.2594C2.45902 5.40751 2.43092 5.5661 2.43538 5.72545C2.43984 5.8848 2.47677 6.04156 2.5439 6.18615C2.61102 6.33074 2.70695 6.46011 2.8258 6.56635L1.99846 5.73901C1.7752 5.53944 1.48401 5.4329 1.18467 5.44128C0.885336 5.44966 0.600563 5.57231 0.388817 5.78406C0.177069 5.9958 0.0544167 6.28058 0.0460396 6.57991C0.0376625 6.87925 0.144196 7.17044 0.343767 7.3937L0.342596 7.39409Z" fill="#F5F8FE"/>
<path d="M9.9899 2.0014C7.86799 1.99514 5.82982 2.82875 4.32047 4.32017C2.82903 5.82952 1.9954 7.86772 2.00166 9.98964C2.00792 12.1118 2.8537 14.1452 4.35427 15.6457C5.85484 17.1463 7.88824 17.9921 10.0104 17.9983C12.1323 18.0046 14.1705 17.171 15.6798 15.6795C17.1712 14.1702 18.0049 12.132 17.9986 10.0101C17.9923 7.88799 17.1466 5.85458 15.646 4.35401C14.1454 2.85344 12.112 2.00766 9.9899 2.0014ZM16.6376 9.99987C16.6376 13.6598 13.66 16.6374 10.0001 16.6374C6.34021 16.6374 3.36263 13.6598 3.36263 9.99987C3.36263 6.33996 6.34021 3.36237 10.0001 3.36237C13.66 3.36237 16.6376 6.33995 16.6376 9.99987Z" fill="#3D6DF5" stroke="#F5F8FE" stroke-width="0.2"/>
<path d="M8.49925 10.6075L8.52088 10.6673L8.47589 10.7123L6.77237 12.4143L6.7723 12.4143C6.64133 12.5449 6.56758 12.7221 6.5673 12.9071C6.56701 13.092 6.6402 13.2695 6.77076 13.4004C6.90132 13.5314 7.07857 13.6052 7.2635 13.6054C7.44843 13.6057 7.62591 13.5325 7.75688 13.402L9.46067 11.6982L9.50564 11.6532L9.56543 11.6749C9.99663 11.831 10.4714 11.8149 10.891 11.6298C11.3106 11.4447 11.6427 11.105 11.8181 10.6813C11.9936 10.2576 11.9989 9.78255 11.833 9.35502C11.667 8.9275 11.3426 8.58043 10.9273 8.38603L10.8697 8.35907V8.29546V6.56851C10.8697 6.38358 10.7962 6.20623 10.6654 6.07546C10.5347 5.9447 10.3573 5.87124 10.1724 5.87124C9.98747 5.87124 9.81012 5.9447 9.67936 6.07546C9.5486 6.20623 9.47513 6.38358 9.47513 6.56851V8.29546V8.35893L9.4177 8.38595C9.01532 8.57523 8.69811 8.90793 8.52822 9.31887C8.35833 9.72981 8.348 10.1894 8.49925 10.6075Z" fill="#3D6DF5" stroke="#F5F8FE" stroke-width="0.2"/>
</g>
<defs>
<clipPath id="clip0_2_6014">
<rect width="20" height="20" fill="white" transform="matrix(-1 0 0 1 20 0)"/>
</clipPath>
</defs>
</svg>
