<svg width="31" height="31" viewBox="0 0 31 31" fill="none" xmlns="http://www.w3.org/2000/svg">
<path d="M26.6458 16.6206L22.601 13.8674L18.5562 16.6206C17.8142 17.1225 16.8553 16.4385 17.0723 15.5821L18.3315 10.6104L14.5462 7.37667C13.8857 6.81285 14.2499 5.72202 15.1216 5.67164L19.9451 5.39845L21.6924 0.63212C22.0024 -0.210707 23.2015 -0.210707 23.5114 0.63212L25.2588 5.39845L30.0823 5.67164C30.954 5.72202 31.3182 6.81091 30.6576 7.37667L26.8724 10.6104L28.1316 15.5821C28.3505 16.4501 27.3741 17.1147 26.6458 16.6206Z" fill="#FFDAAB"/>
<path d="M28.4124 19.3743H27.1203C26.4617 19.3607 25.7895 19.1553 25.1967 18.7543L24.5381 18.3028V19.3743H5.16642V7.74909C5.16642 7.03801 5.74757 6.45675 6.4585 6.45675H11.6365C11.6501 6.13319 11.7005 5.81156 11.8051 5.50155C12.024 4.84279 12.425 4.28672 12.9422 3.87402H6.4585C4.32762 3.87402 2.58418 5.6178 2.58418 7.74909V19.3743H1.29209C0.581149 19.3743 0 19.9555 0 20.6666C0 21.3777 0.581149 21.9589 1.29209 21.9589H9.24802L6.53599 29.2576C6.28997 29.93 6.62704 30.6778 7.2973 30.9239C8.04117 31.1719 8.72886 30.7883 8.96326 30.1625L11.9988 21.9609H13.5601V27.1244C13.5601 27.8355 14.1413 28.4167 14.8522 28.4167C15.5632 28.4167 16.1443 27.8355 16.1443 27.1244V21.957H17.7076L20.7432 30.1586C20.9776 30.7863 21.6652 31.168 22.4091 30.92C23.0813 30.674 23.4164 29.9261 23.1704 29.2538L20.4584 21.9551H28.4143C29.1253 21.9551 29.7064 21.3738 29.7064 20.6627C29.7025 19.9555 29.1214 19.3743 28.4124 19.3743Z" fill="#F5A640"/>
</svg>
