<svg width="24" height="24" viewBox="0 0 24 24" fill="none" xmlns="http://www.w3.org/2000/svg">
<mask id="path-1-inside-1_2_6953" fill="white">
<path d="M11 9H13V7H11M12 20C7.59 20 4 16.41 4 12C4 7.59 7.59 4 12 4C16.41 4 20 7.59 20 12C20 16.41 16.41 20 12 20ZM12 2C10.6868 2 9.38642 2.25866 8.17317 2.7612C6.95991 3.26375 5.85752 4.00035 4.92893 4.92893C3.05357 6.8043 2 9.34784 2 12C2 14.6522 3.05357 17.1957 4.92893 19.0711C5.85752 19.9997 6.95991 20.7362 8.17317 21.2388C9.38642 21.7413 10.6868 22 12 22C14.6522 22 17.1957 20.9464 19.0711 19.0711C20.9464 17.1957 22 14.6522 22 12C22 10.6868 21.7413 9.38642 21.2388 8.17317C20.7362 6.95991 19.9997 5.85752 19.0711 4.92893C18.1425 4.00035 17.0401 3.26375 15.8268 2.7612C14.6136 2.25866 13.3132 2 12 2ZM11 17H13V11H11V17Z"/>
</mask>
<path d="M13 9V10H14V9H13ZM13 7H14V6H13V7ZM2 12H1H2ZM12 22V23V22ZM11 17H10V18H11V17ZM13 17V18H14V17H13ZM13 11H14V10H13V11ZM11 11V10H10V11H11ZM11 10H13V8H11V10ZM14 9V7H12V9H14ZM13 6H11V8H13V6ZM12 19C8.14228 19 5 15.8577 5 12H3C3 16.9623 7.03772 21 12 21V19ZM5 12C5 8.14228 8.14228 5 12 5V3C7.03772 3 3 7.03772 3 12H5ZM12 5C15.8577 5 19 8.14228 19 12H21C21 7.03772 16.9623 3 12 3V5ZM19 12C19 15.8577 15.8577 19 12 19V21C16.9623 21 21 16.9623 21 12H19ZM12 1C10.5555 1 9.12506 1.28452 7.79048 1.83733L8.55585 3.68508C9.64778 3.23279 10.8181 3 12 3V1ZM7.79048 1.83733C6.4559 2.39013 5.24327 3.20038 4.22183 4.22183L5.63604 5.63604C6.47177 4.80031 7.46392 4.13738 8.55585 3.68508L7.79048 1.83733ZM4.22183 4.22183C2.15893 6.28473 1 9.08262 1 12H3C3 9.61305 3.94821 7.32387 5.63604 5.63604L4.22183 4.22183ZM1 12C1 14.9174 2.15893 17.7153 4.22183 19.7782L5.63604 18.364C3.94821 16.6761 3 14.3869 3 12H1ZM4.22183 19.7782C5.24327 20.7996 6.4559 21.6099 7.79048 22.1627L8.55585 20.3149C7.46392 19.8626 6.47177 19.1997 5.63604 18.364L4.22183 19.7782ZM7.79048 22.1627C9.12506 22.7155 10.5555 23 12 23V21C10.8181 21 9.64778 20.7672 8.55585 20.3149L7.79048 22.1627ZM12 23C14.9174 23 17.7153 21.8411 19.7782 19.7782L18.364 18.364C16.6761 20.0518 14.3869 21 12 21V23ZM19.7782 19.7782C21.8411 17.7153 23 14.9174 23 12H21C21 14.3869 20.0518 16.6761 18.364 18.364L19.7782 19.7782ZM23 12C23 10.5555 22.7155 9.12506 22.1627 7.79048L20.3149 8.55585C20.7672 9.64778 21 10.8181 21 12H23ZM22.1627 7.79048C21.6099 6.4559 20.7996 5.24327 19.7782 4.22183L18.364 5.63604C19.1997 6.47177 19.8626 7.46392 20.3149 8.55585L22.1627 7.79048ZM19.7782 4.22183C18.7567 3.20038 17.5441 2.39013 16.2095 1.83733L15.4442 3.68508C16.5361 4.13738 17.5282 4.80031 18.364 5.63604L19.7782 4.22183ZM16.2095 1.83733C14.8749 1.28452 13.4445 1 12 1V3C13.1819 3 14.3522 3.23279 15.4442 3.68508L16.2095 1.83733ZM11 18H13V16H11V18ZM14 17V11H12V17H14ZM13 10H11V12H13V10ZM10 11V17H12V11H10Z" fill="black" fill-opacity="0.5" mask="url(#path-1-inside-1_2_6953)"/>
</svg>
