<svg width="17" height="17" viewBox="0 0 17 17" fill="none" xmlns="http://www.w3.org/2000/svg">
<g clip-path="url(#clip0_2_6025)">
<path fill-rule="evenodd" clip-rule="evenodd" d="M3.80451 11.2665L8.13513 16.7566C8.17862 16.8118 8.23404 16.8564 8.29724 16.887C8.36043 16.9176 8.42975 16.9336 8.49998 16.9336C8.57022 16.9336 8.63954 16.9176 8.70273 16.887C8.76592 16.8564 8.82135 16.8118 8.86484 16.7566L13.1956 11.2665C14.248 9.93246 14.9295 8.27015 14.9706 6.56082C14.9925 5.64734 14.8317 4.73481 14.4672 3.89521C14.1552 3.18301 13.7115 2.53619 13.1593 1.98882C11.9213 0.757408 10.2461 0.0661621 8.49998 0.0661621C6.75383 0.0661621 5.07869 0.757408 3.84067 1.98882C3.28861 2.53605 2.84494 3.18268 2.533 3.89468C2.16816 4.73471 2.00746 5.6472 2.02941 6.56089C2.07045 8.27022 2.75214 9.93243 3.80451 11.2665Z" fill="#F5F8FE"/>
<path fill-rule="evenodd" clip-rule="evenodd" d="M8.50001 5.21876C8.83105 5.21876 9.15466 5.31693 9.42991 5.50084C9.70516 5.68476 9.91969 5.94617 10.0464 6.25201C10.1731 6.55785 10.2062 6.89439 10.1416 7.21907C10.077 7.54375 9.91762 7.84199 9.68354 8.07607C9.44946 8.31015 9.15123 8.46956 8.82655 8.53414C8.50187 8.59872 8.16533 8.56558 7.85949 8.43889C7.55364 8.31221 7.29224 8.09768 7.10832 7.82243C6.92441 7.54718 6.82624 7.22357 6.82624 6.89253C6.82671 6.44876 7.0032 6.0233 7.31699 5.70951C7.63078 5.39572 8.05624 5.21923 8.50001 5.21876ZM8.50001 9.62894C9.04123 9.62897 9.57031 9.46851 10.0203 9.16784C10.4704 8.86718 10.8211 8.43982 11.0283 7.9398C11.2354 7.43979 11.2896 6.88958 11.1841 6.35875C11.0785 5.82792 10.8179 5.34032 10.4352 4.95761C10.0525 4.57489 9.56491 4.31426 9.03409 4.20866C8.50327 4.10306 7.95305 4.15724 7.45303 4.36435C6.953 4.57146 6.52562 4.92219 6.22492 5.3722C5.92423 5.82221 5.76374 6.35128 5.76374 6.8925C5.76454 7.61797 6.05308 8.31351 6.56605 8.82651C7.07902 9.33951 7.77454 9.62809 8.50001 9.62894ZM4.54519 2.69333C2.49297 4.74529 2.5102 8.01726 4.58669 10.6495L8.50001 15.6111L12.4133 10.6495C14.4901 8.01726 14.5072 4.74539 12.4548 2.69333C11.4051 1.646 9.98284 1.05781 8.50001 1.05781C7.01718 1.05781 5.59489 1.646 4.54519 2.69333ZM3.75239 11.3078L8.08301 16.7979C8.13272 16.8609 8.19607 16.9118 8.26829 16.9468C8.34052 16.9819 8.41974 17.0001 8.50001 17.0001C8.58028 17.0001 8.6595 16.9819 8.73173 16.9468C8.80395 16.9118 8.8673 16.8609 8.91701 16.7979L13.2478 11.3078C14.362 9.89526 14.9976 8.2099 15.037 6.56249C15.0799 4.78032 14.4471 3.18242 13.2063 1.94208C11.9558 0.698233 10.2638 0 8.50001 0C6.73626 0 5.04423 0.698233 3.79377 1.94208C2.55333 3.18271 1.92011 4.78032 1.96305 6.56249C2.00252 8.20977 2.63803 9.89526 3.75239 11.3078Z" fill="#3D6DF5"/>
</g>
<defs>
<clipPath id="clip0_2_6025">
<rect width="17" height="17" fill="white"/>
</clipPath>
</defs>
</svg>
