<svg width="20" height="20" viewBox="0 0 20 20" fill="none" xmlns="http://www.w3.org/2000/svg">
<g clip-path="url(#clip0_2_7210)">
<path d="M14.6743 18.5567C14.4371 18.5569 14.2034 18.4989 13.9937 18.3879L10.0981 16.3404C10.0679 16.3243 10.0342 16.3159 9.99997 16.3159C9.96574 16.3159 9.93203 16.3243 9.90184 16.3404L6.00684 18.3879C5.76547 18.515 5.49337 18.5719 5.22133 18.5523C4.94928 18.5327 4.68816 18.4373 4.46749 18.277C4.24683 18.1167 4.07544 17.8978 3.97271 17.6452C3.86998 17.3925 3.84002 17.1161 3.88622 16.8473L4.62997 12.5104C4.63568 12.4765 4.63297 12.4416 4.62208 12.4089C4.61118 12.3762 4.59243 12.3467 4.56747 12.3229L1.41872 9.24982C1.22322 9.05935 1.08497 8.81794 1.01965 8.55293C0.954318 8.28792 0.964518 8.00991 1.04909 7.7504C1.13366 7.49089 1.28923 7.26026 1.49816 7.08463C1.70709 6.909 1.96103 6.7954 2.23122 6.7567L6.58309 6.12482C6.61696 6.1199 6.64911 6.10679 6.67677 6.08665C6.70443 6.0665 6.72677 6.03992 6.74184 6.0092L8.68747 2.06232C8.80798 1.81765 8.99459 1.6116 9.22617 1.46752C9.45775 1.32344 9.72504 1.24707 9.99778 1.24707C10.2705 1.24707 10.5378 1.32344 10.7694 1.46752C11.001 1.6116 11.1876 1.81765 11.3081 2.06232L13.255 6.00795C13.2702 6.03857 13.2925 6.06507 13.3202 6.0852C13.3478 6.10533 13.3799 6.11849 13.4137 6.12357L17.7693 6.75607C18.0394 6.795 18.2932 6.90872 18.5019 7.08437C18.7107 7.26003 18.8662 7.49061 18.9507 7.75002C19.0353 8.00944 19.0455 8.28734 18.9803 8.55228C18.9151 8.81722 18.7771 9.05863 18.5818 9.2492L15.43 12.3204C15.4051 12.3443 15.3864 12.3738 15.3755 12.4065C15.3646 12.4391 15.3619 12.474 15.3675 12.5079L16.1112 16.8448C16.147 17.0544 16.1367 17.2692 16.081 17.4744C16.0253 17.6795 15.9256 17.8701 15.7888 18.0328C15.6519 18.1955 15.4813 18.3264 15.2887 18.4165C15.0962 18.5065 14.8863 18.5535 14.6737 18.5542L14.6743 18.5567ZM9.99997 15.0654C10.237 15.0654 10.4705 15.1233 10.68 15.2342L14.575 17.2811C14.6094 17.3008 14.649 17.3098 14.6886 17.307C14.7282 17.3042 14.7661 17.2898 14.7975 17.2654C14.8302 17.243 14.8557 17.2114 14.8707 17.1747C14.8857 17.1379 14.8895 17.0975 14.8818 17.0586L14.1375 12.7211C14.0977 12.4876 14.1151 12.248 14.1883 12.0228C14.2614 11.7976 14.3881 11.5935 14.5575 11.4279L17.7093 8.35607C17.7375 8.32852 17.7574 8.29365 17.7667 8.25539C17.7761 8.21714 17.7746 8.17703 17.7624 8.13959C17.7501 8.10215 17.7277 8.06887 17.6976 8.04351C17.6674 8.01815 17.6308 8.00172 17.5918 7.99607L13.2368 7.36295C13.0024 7.329 12.7797 7.23848 12.5881 7.0992C12.3964 6.95993 12.2415 6.77609 12.1368 6.56357L10.1875 2.61732C10.17 2.58201 10.143 2.55228 10.1096 2.53149C10.0761 2.5107 10.0375 2.49969 9.99809 2.49969C9.9587 2.49969 9.92009 2.5107 9.88663 2.53149C9.85316 2.55228 9.82618 2.58201 9.80872 2.61732L7.86309 6.56232C7.75834 6.77492 7.60338 6.95881 7.41161 7.09809C7.21985 7.23737 6.99705 7.32784 6.76247 7.3617L2.40809 7.99607C2.36904 8.0016 2.33232 8.01798 2.30211 8.04335C2.27191 8.06872 2.24944 8.10207 2.23726 8.13958C2.22508 8.1771 2.22368 8.21728 2.23322 8.25556C2.24276 8.29383 2.26286 8.32866 2.29122 8.35607L5.44247 11.4279C5.61181 11.5935 5.73849 11.7976 5.81164 12.0228C5.88479 12.248 5.90223 12.4876 5.86247 12.7211L5.11809 17.0586C5.11134 17.0975 5.11566 17.1376 5.13057 17.1743C5.14547 17.2109 5.17036 17.2426 5.2024 17.2658C5.23445 17.289 5.27235 17.3027 5.31181 17.3054C5.35127 17.3081 5.39069 17.2997 5.42559 17.2811L9.31997 15.2336C9.52962 15.1232 9.76301 15.0655 9.99997 15.0654Z" fill="black" fill-opacity="0.5"/>
<g clip-path="url(#clip1_2_7210)">
<path d="M14.6743 18.5567C14.4371 18.5569 14.2034 18.4989 13.9937 18.3879L10.0981 16.3404C10.0679 16.3243 10.0342 16.3159 9.99997 16.3159C9.96574 16.3159 9.93203 16.3243 9.90184 16.3404L6.00684 18.3879C5.76547 18.515 5.49337 18.5719 5.22133 18.5523C4.94928 18.5327 4.68816 18.4373 4.46749 18.277C4.24683 18.1167 4.07544 17.8978 3.97271 17.6452C3.86998 17.3925 3.84002 17.1161 3.88622 16.8473L4.62997 12.5104C4.63568 12.4765 4.63297 12.4416 4.62208 12.4089C4.61118 12.3762 4.59243 12.3467 4.56747 12.3229L1.41872 9.24982C1.22322 9.05935 1.08497 8.81794 1.01965 8.55293C0.954318 8.28792 0.964518 8.00991 1.04909 7.7504C1.13366 7.49089 1.28923 7.26026 1.49816 7.08463C1.70709 6.909 1.96103 6.7954 2.23122 6.7567L6.58309 6.12482C6.61696 6.1199 6.64911 6.10679 6.67677 6.08665C6.70443 6.0665 6.72677 6.03992 6.74184 6.0092L8.68747 2.06232C8.80798 1.81765 8.99459 1.6116 9.22617 1.46752C9.45775 1.32344 9.72504 1.24707 9.99778 1.24707C10.2705 1.24707 10.5378 1.32344 10.7694 1.46752C11.001 1.6116 11.1876 1.81765 11.3081 2.06232L13.255 6.00795C13.2702 6.03857 13.2925 6.06507 13.3202 6.0852C13.3478 6.10533 13.3799 6.11849 13.4137 6.12357L17.7693 6.75607C18.0394 6.795 18.2932 6.90872 18.5019 7.08437C18.7107 7.26003 18.8662 7.49061 18.9507 7.75002C19.0353 8.00944 19.0455 8.28734 18.9803 8.55228C18.9151 8.81722 18.7771 9.05863 18.5818 9.2492L15.43 12.3204C15.4051 12.3443 15.3864 12.3738 15.3755 12.4065C15.3646 12.4391 15.3619 12.474 15.3675 12.5079L16.1112 16.8448C16.147 17.0544 16.1367 17.2692 16.081 17.4744C16.0253 17.6795 15.9256 17.8701 15.7888 18.0328C15.6519 18.1955 15.4813 18.3264 15.2887 18.4165C15.0962 18.5065 14.8863 18.5535 14.6737 18.5542L14.6743 18.5567ZM9.99997 15.0654C10.237 15.0654 10.4705 15.1233 10.68 15.2342L14.575 17.2811C14.6094 17.3008 14.649 17.3098 14.6886 17.307C14.7282 17.3042 14.7661 17.2898 14.7975 17.2654C14.8302 17.243 14.8557 17.2114 14.8707 17.1747C14.8857 17.1379 14.8895 17.0975 14.8818 17.0586L14.1375 12.7211C14.0977 12.4876 14.1151 12.248 14.1883 12.0228C14.2614 11.7976 14.3881 11.5935 14.5575 11.4279L17.7093 8.35607C17.7375 8.32852 17.7574 8.29365 17.7667 8.25539C17.7761 8.21714 17.7746 8.17703 17.7624 8.13959C17.7501 8.10215 17.7277 8.06887 17.6976 8.04351C17.6674 8.01815 17.6308 8.00172 17.5918 7.99607L13.2368 7.36295C13.0024 7.329 12.7797 7.23848 12.5881 7.0992C12.3964 6.95993 12.2415 6.77609 12.1368 6.56357L10.1875 2.61732C10.17 2.58201 10.143 2.55228 10.1096 2.53149C10.0761 2.5107 10.0375 2.49969 9.99809 2.49969C9.9587 2.49969 9.92009 2.5107 9.88663 2.53149C9.85316 2.55228 9.82618 2.58201 9.80872 2.61732L7.86309 6.56232C7.75834 6.77492 7.60338 6.95881 7.41161 7.09809C7.21985 7.23737 6.99705 7.32784 6.76247 7.3617L2.40809 7.99607C2.36904 8.0016 2.33232 8.01798 2.30211 8.04335C2.27191 8.06872 2.24944 8.10207 2.23726 8.13958C2.22508 8.1771 2.22368 8.21728 2.23322 8.25556C2.24276 8.29383 2.26286 8.32866 2.29122 8.35607L5.44247 11.4279C5.61181 11.5935 5.73849 11.7976 5.81164 12.0228C5.88479 12.248 5.90223 12.4876 5.86247 12.7211L5.11809 17.0586C5.11134 17.0975 5.11566 17.1376 5.13057 17.1743C5.14547 17.2109 5.17036 17.2426 5.2024 17.2658C5.23445 17.289 5.27235 17.3027 5.31181 17.3054C5.35127 17.3081 5.39069 17.2997 5.42559 17.2811L9.31997 15.2336C9.52962 15.1232 9.76301 15.0655 9.99997 15.0654Z" fill="black" fill-opacity="0.5"/>
<path d="M19.9478 7.24275C19.8169 6.83778 19.4577 6.55014 19.0327 6.51184L13.2602 5.98769L10.9776 0.645004C10.8093 0.253454 10.426 0 10.0001 0C9.5742 0 9.19089 0.253454 9.02258 0.64592L6.73996 5.98769L0.966512 6.51184C0.542308 6.55106 0.184023 6.83778 0.0523364 7.24275C-0.0793501 7.64773 0.0422653 8.09193 0.363165 8.37193L4.72652 12.1986L3.43987 17.8663C3.34572 18.2831 3.50747 18.7138 3.85324 18.9638C4.03909 19.098 4.25654 19.1664 4.47581 19.1664C4.66487 19.1664 4.85241 19.1154 5.02072 19.0147L10.0001 16.0387L14.9776 19.0147C15.3419 19.2339 15.801 19.2139 16.146 18.9638C16.4919 18.7131 16.6535 18.2821 16.5594 17.8663L15.2727 12.1986L19.6361 8.37269C19.957 8.09193 20.0795 7.64849 19.9478 7.24275Z" fill="#FFC107"/>
</g>
</g>
<defs>
<clipPath id="clip0_2_7210">
<rect width="20" height="20" fill="white"/>
</clipPath>
<clipPath id="clip1_2_7210">
<rect width="20" height="20" fill="white"/>
</clipPath>
</defs>
</svg>
