<svg width="19" height="19" viewBox="0 0 19 19" fill="none" xmlns="http://www.w3.org/2000/svg">
<path d="M5.34375 1.1875C5.18628 1.1875 5.03525 1.25006 4.9239 1.3614C4.81256 1.47275 4.75 1.62378 4.75 1.78125V2.375H3.5625C2.25702 2.375 1.1875 3.44452 1.1875 4.75V15.4375C1.1875 16.743 2.25702 17.8125 3.5625 17.8125H8.90625C9.06372 17.8125 9.21475 17.7499 9.3261 17.6386C9.43744 17.5272 9.5 17.3762 9.5 17.2188C9.5 17.0613 9.43744 16.9103 9.3261 16.7989C9.21475 16.6876 9.06372 16.625 8.90625 16.625H3.5625C2.89435 16.625 2.375 16.1056 2.375 15.4375V7.125H16.625V8.90625C16.625 9.06372 16.6876 9.21475 16.7989 9.3261C16.9103 9.43744 17.0613 9.5 17.2188 9.5C17.3762 9.5 17.5272 9.43744 17.6386 9.3261C17.7499 9.21475 17.8125 9.06372 17.8125 8.90625V4.75C17.8125 3.44452 16.743 2.375 15.4375 2.375H14.25V1.78125C14.25 1.62378 14.1874 1.47275 14.0761 1.3614C13.9647 1.25006 13.8137 1.1875 13.6562 1.1875C13.4988 1.1875 13.3478 1.25006 13.2364 1.3614C13.1251 1.47275 13.0625 1.62378 13.0625 1.78125V2.375H10.0938V1.78125C10.0938 1.62378 10.0312 1.47275 9.91985 1.3614C9.8085 1.25006 9.65747 1.1875 9.5 1.1875C9.34253 1.1875 9.1915 1.25006 9.08015 1.3614C8.96881 1.47275 8.90625 1.62378 8.90625 1.78125V2.375H5.9375V1.78125C5.9375 1.62378 5.87494 1.47275 5.7636 1.3614C5.65225 1.25006 5.50122 1.1875 5.34375 1.1875ZM3.5625 3.5625H4.75V4.15625C4.75 4.31372 4.81256 4.46475 4.9239 4.5761C5.03525 4.68744 5.18628 4.75 5.34375 4.75C5.50122 4.75 5.65225 4.68744 5.7636 4.5761C5.87494 4.46475 5.9375 4.31372 5.9375 4.15625V3.5625H8.90625V4.15625C8.90625 4.31372 8.96881 4.46475 9.08015 4.5761C9.1915 4.68744 9.34253 4.75 9.5 4.75C9.65747 4.75 9.8085 4.68744 9.91985 4.5761C10.0312 4.46475 10.0938 4.31372 10.0938 4.15625V3.5625H13.0625V4.15625C13.0625 4.31372 13.1251 4.46475 13.2364 4.5761C13.3478 4.68744 13.4988 4.75 13.6562 4.75C13.8137 4.75 13.9647 4.68744 14.0761 4.5761C14.1874 4.46475 14.25 4.31372 14.25 4.15625V3.5625H15.4375C16.1056 3.5625 16.625 4.08185 16.625 4.75V5.9375H2.375V4.75C2.375 4.08185 2.89435 3.5625 3.5625 3.5625Z" fill="white"/>
<path d="M13.6562 9.5C11.3678 9.5 9.5 11.3678 9.5 13.6562C9.5 15.9447 11.3678 17.8125 13.6562 17.8125C15.9447 17.8125 17.8125 15.9447 17.8125 13.6562C17.8125 11.3678 15.9447 9.5 13.6562 9.5ZM13.6562 10.6875C15.3029 10.6875 16.625 12.0096 16.625 13.6562C16.625 15.3029 15.3029 16.625 13.6562 16.625C12.0096 16.625 10.6875 15.3029 10.6875 13.6562C10.6875 12.0096 12.0096 10.6875 13.6562 10.6875Z" fill="white"/>
<path d="M13.6562 11.875C13.4988 11.875 13.3478 11.9376 13.2364 12.0489C13.1251 12.1603 13.0625 12.3113 13.0625 12.4688V13.6562C13.0625 13.8137 13.1251 13.9647 13.2364 14.0761C13.3478 14.1874 13.4988 14.25 13.6562 14.25H14.8438C15.0012 14.25 15.1522 14.1874 15.2636 14.0761C15.3749 13.9647 15.4375 13.8137 15.4375 13.6562C15.4375 13.4988 15.3749 13.3478 15.2636 13.2364C15.1522 13.1251 15.0012 13.0625 14.8438 13.0625H14.25V12.4688C14.25 12.3113 14.1874 12.1603 14.0761 12.0489C13.9647 11.9376 13.8137 11.875 13.6562 11.875Z" fill="white"/>
</svg>
