<svg width="390" height="170" viewBox="0 0 390 170" fill="none" xmlns="http://www.w3.org/2000/svg">
<rect width="390" height="170" fill="#3D6DF5" fill-opacity="0.06"/>
<path d="M120 0H270V20C270 28.2843 263.284 35 255 35H135C126.716 35 120 28.2843 120 20V0Z" fill="#3D6DF5" fill-opacity="0.12"/>
<circle cx="41" cy="74" r="21" fill="white"/>
<path fill-rule="evenodd" clip-rule="evenodd" d="M38.1428 82.2603C37.3416 82.2603 36.5468 82.0683 35.815 81.6894C34.6116 81.0662 33.723 80.0114 33.3128 78.7199C32.9025 77.4282 33.0199 76.0541 33.6434 74.8506C34.2667 73.6472 35.3214 72.7586 36.6129 72.3484C37.9047 71.9382 39.2787 72.0555 40.4822 72.6789C41.6856 73.3023 42.5742 74.3569 42.9844 75.6484C43.3946 76.9402 43.2773 78.3143 42.654 79.5177C42.0307 80.7212 40.976 81.6097 39.6844 82.0199C39.1779 82.1805 38.6591 82.2603 38.1428 82.2603ZM38.1533 72.9709C37.7247 72.9709 37.2942 73.037 36.874 73.1704C35.8019 73.5109 34.9267 74.2484 34.4093 75.2471C33.8919 76.2459 33.7946 77.3864 34.1351 78.4583C34.7036 80.2489 36.3654 81.395 38.1512 81.3952C38.5726 81.3952 39.0005 81.3315 39.423 81.1972C41.636 80.4944 42.8646 78.1223 42.1619 75.9092C41.8214 74.8371 41.0839 73.9618 40.0852 73.4445C39.4779 73.1301 38.8182 72.9709 38.1533 72.9709Z" fill="#3D6DF5"/>
<path fill-rule="evenodd" clip-rule="evenodd" d="M38.1461 79.6712C37.7535 79.6712 37.3642 79.5773 37.0056 79.3916C36.416 79.0861 35.9804 78.5694 35.7794 77.9365C35.3646 76.63 36.0899 75.2295 37.3965 74.8147C38.0294 74.6137 38.7028 74.6712 39.2924 74.9766C39.882 75.282 40.3175 75.7988 40.5186 76.4317C40.7195 77.0646 40.662 77.738 40.3566 78.3276C40.0513 78.9172 39.5344 79.3527 38.9015 79.5537C38.6534 79.6321 38.399 79.6712 38.1461 79.6712ZM38.1507 75.5599C37.9855 75.5599 37.8196 75.5854 37.6577 75.6368C37.2444 75.768 36.9071 76.0524 36.7077 76.4375C36.5083 76.8225 36.4708 77.262 36.602 77.6753C36.7332 78.0886 37.0176 78.4259 37.4025 78.6253C37.7876 78.8247 38.2271 78.8622 38.6404 78.731C39.0536 78.5998 39.391 78.3154 39.5904 77.9306C39.7897 77.5455 39.8273 77.106 39.696 76.6927C39.5648 76.2794 39.2804 75.9421 38.8956 75.7427C38.6612 75.6213 38.4069 75.5599 38.1507 75.5599Z" fill="#3D6DF5"/>
<path fill-rule="evenodd" clip-rule="evenodd" d="M29.8616 75.6749C29.7947 75.6749 29.7269 75.6593 29.6635 75.6265L28.1801 74.8582C27.1101 74.304 26.6903 72.9824 27.2447 71.9124C27.513 71.3941 27.9673 71.0114 28.5238 70.8347C29.08 70.6581 29.6717 70.7085 30.1902 70.9767L31.5527 71.6827C31.7643 71.7923 31.847 72.0526 31.7373 72.2642C31.6277 72.4757 31.3674 72.5584 31.1558 72.4488L29.7934 71.7429C29.4798 71.5806 29.1217 71.55 28.785 71.657C28.4481 71.7639 28.1733 71.9955 28.0108 72.3089C27.6754 72.9566 27.9294 73.7563 28.577 74.0917L30.0604 74.86C30.2719 74.9697 30.3546 75.2299 30.245 75.4415C30.1682 75.5901 30.0176 75.6749 29.8616 75.6749Z" fill="#3D6DF5"/>
<path fill-rule="evenodd" clip-rule="evenodd" d="M38.1364 86.1057C37.866 86.1057 37.5953 86.0934 37.324 86.0685C36.1774 85.9637 35.0746 85.6425 34.0461 85.1138C33.018 84.5852 32.1152 83.8754 31.3629 83.0041C30.5842 82.1023 30.0015 81.066 29.6308 79.9242C29.1297 78.3803 29.064 76.7271 29.4413 75.1436C29.7261 73.9486 30.2679 72.7947 31.0081 71.8071C32.1405 70.295 33.6874 69.1946 35.4813 68.6247L38.9941 67.5091C39.2211 67.4371 39.4638 67.5627 39.5359 67.7898L39.7058 68.3247C39.8479 68.7727 40.3281 69.0212 40.7758 68.8791C40.9928 68.8103 41.1699 68.6608 41.2747 68.4588C41.3793 68.2568 41.3991 68.026 41.3302 67.809L41.1604 67.274C41.1257 67.1649 41.1359 67.0466 41.1884 66.9451C41.241 66.8435 41.3318 66.767 41.4409 66.7322L52.8572 63.107C53.0845 63.035 53.3269 63.1606 53.399 63.3876L54.589 67.1352C54.6498 67.3268 54.5703 67.535 54.3974 67.6371L45.8698 72.6779C46.1938 73.2383 46.4572 73.835 46.6548 74.4569C47.02 75.607 47.1491 76.7945 47.0384 77.9865C46.9314 79.1375 46.6065 80.2439 46.0726 81.2745C45.5387 82.3054 44.8225 83.2091 43.9441 83.9604C43.0345 84.7386 41.9901 85.3183 40.8398 85.6836C39.956 85.9644 39.0497 86.1057 38.1364 86.1057ZM38.8439 68.4623L35.7424 69.4472C34.121 69.962 32.7226 70.957 31.6986 72.3245C31.0286 73.2185 30.5384 74.2625 30.2806 75.3436C29.9401 76.7728 29.9991 78.2646 30.4514 79.6577C31.8175 83.8665 36.3605 86.2008 40.5786 84.8613C42.6351 84.2083 44.314 82.7936 45.3062 80.8777C46.2985 78.9619 46.4854 76.7745 45.8324 74.718C45.6126 74.0256 45.3025 73.3681 44.9109 72.7639C44.8471 72.6652 44.8261 72.5449 44.853 72.4304C44.88 72.3161 44.9523 72.2176 45.0535 72.1577L53.6624 67.0688L52.7068 64.0597L42.1128 67.4236L42.1521 67.5475C42.2907 67.9841 42.2512 68.4486 42.0406 68.8553C41.8299 69.2622 41.4734 69.5625 41.0368 69.7011C40.1355 69.9873 39.1693 69.4868 38.8831 68.5855L38.8439 68.4623Z" fill="#4A4A4A"/>
<path fill-rule="evenodd" clip-rule="evenodd" d="M39.3731 64.8647C39.1902 64.8647 39.0204 64.7474 38.962 64.5637L38.6439 63.5621C38.5718 63.3351 38.6974 63.0924 38.9244 63.0203C39.1514 62.9483 39.3941 63.0739 39.4662 63.3009L39.7844 64.3025C39.8564 64.5295 39.7308 64.7722 39.5038 64.8443C39.4603 64.8581 39.4163 64.8647 39.3731 64.8647Z" fill="#3D6DF5"/>
<path fill-rule="evenodd" clip-rule="evenodd" d="M41.441 65.4265C41.3741 65.4265 41.3063 65.4108 41.2429 65.3781C41.0313 65.2684 40.9486 65.0082 41.0582 64.7966L41.5416 63.8633C41.6513 63.6517 41.9115 63.569 42.1231 63.6787C42.3347 63.7883 42.4174 64.0486 42.3077 64.2602L41.8244 65.1935C41.7476 65.3415 41.597 65.4265 41.441 65.4265Z" fill="#3D6DF5"/>
<path fill-rule="evenodd" clip-rule="evenodd" d="M38.0076 66.5165C37.9407 66.5165 37.8729 66.5009 37.8095 66.4681L36.8762 65.9848C36.6646 65.8751 36.5819 65.6148 36.6915 65.4033C36.8012 65.1917 37.0615 65.109 37.273 65.2186L38.2063 65.702C38.4179 65.8117 38.5006 66.0719 38.391 66.2835C38.3142 66.4317 38.1636 66.5165 38.0076 66.5165Z" fill="#3D6DF5"/>
</svg>
