<svg width="22" height="22" viewBox="0 0 22 22" fill="none" xmlns="http://www.w3.org/2000/svg">
<g clip-path="url(#clip0_2_7080)">
<path fill-rule="evenodd" clip-rule="evenodd" d="M20.8439 0.00137613C20.7999 -0.000720958 20.7554 -0.00044905 20.7108 0.00238319C20.5918 0.00993586 20.4713 0.035436 20.353 0.0814391C20.3529 0.0815508 20.3528 0.0816627 20.3526 0.0817747L0.890999 7.65007C0.314007 7.87441 -0.00328175 8.42938 -9.83462e-05 8.96104C0.00308508 9.4927 0.326972 10.0438 0.906608 10.2612C0.906637 10.2612 0.906666 10.2612 0.906694 10.2613L8.27692 13.0252C8.59962 13.1462 8.85364 13.4002 8.97465 13.7229L11.7386 21.0933C11.9416 21.6344 12.4609 21.9965 13.0388 22C13.6167 22.0034 14.1402 21.6476 14.3497 21.109V21.1089L21.9184 1.64678C22.1024 1.1736 21.959 0.666047 21.6464 0.353435C21.4412 0.148283 21.1522 0.0160559 20.8439 0.00137613ZM16.9115 4.61574C17.0369 4.61576 17.1571 4.66557 17.2457 4.75421C17.2896 4.7981 17.3244 4.85021 17.3482 4.90756C17.3719 4.9649 17.3841 5.02637 17.3841 5.08844C17.3841 5.15051 17.3719 5.21197 17.3482 5.26932C17.3244 5.32666 17.2896 5.37877 17.2457 5.42266L12.0724 10.596C12.0285 10.6398 11.9764 10.6747 11.9191 10.6984C11.8617 10.7221 11.8003 10.7344 11.7382 10.7344C11.6761 10.7343 11.6147 10.7221 11.5573 10.6984C11.5 10.6746 11.4479 10.6398 11.404 10.5959C11.3601 10.552 11.3253 10.4999 11.3015 10.4425C11.2778 10.3852 11.2656 10.3237 11.2656 10.2616C11.2656 10.1996 11.2778 10.1381 11.3016 10.0807C11.3253 10.0234 11.3602 9.9713 11.4041 9.92742L16.5773 4.75421C16.666 4.66557 16.7862 4.61576 16.9115 4.61574Z" fill="#3D6DF5"/>
</g>
<defs>
<clipPath id="clip0_2_7080">
<rect width="22" height="22" fill="white"/>
</clipPath>
</defs>
</svg>
