<svg width="89" height="75" viewBox="0 0 89 75" fill="none" xmlns="http://www.w3.org/2000/svg">
<path fill-rule="evenodd" clip-rule="evenodd" d="M35.9186 62.0848C33.3361 62.0848 30.7738 61.466 28.415 60.2446C24.5357 58.2356 21.6714 54.8356 20.3491 50.6724C19.0268 46.5085 19.4051 42.0792 21.4148 38.1999C23.4242 34.3207 26.8238 31.4563 30.987 30.134C35.1509 28.8117 39.5801 29.19 43.4594 31.1995C47.3387 33.2089 50.203 36.6084 51.5253 40.7716C52.8476 44.9356 52.4693 49.3648 50.4604 53.2441C48.451 57.1234 45.0514 59.9877 40.888 61.3098C39.2552 61.8276 37.5828 62.0848 35.9186 62.0848ZM35.9524 32.1406C34.571 32.1406 33.1832 32.3537 31.8286 32.7837C28.3728 33.8813 25.5514 36.2586 23.8839 39.4781C22.2161 42.6975 21.9022 46.374 22.9998 49.8291C24.8324 55.6009 30.1893 59.2955 35.9457 59.296C37.3039 59.296 38.6835 59.0908 40.0451 58.6579C47.1786 56.3923 51.139 48.746 48.874 41.6121C47.7764 38.1562 45.3991 35.3349 42.1798 33.6673C40.2221 32.6538 38.0956 32.1406 35.9524 32.1406Z" fill="#FFF500"/>
<path fill-rule="evenodd" clip-rule="evenodd" d="M35.9279 53.7391C34.6623 53.7391 33.4074 53.4361 32.2514 52.8376C30.3509 51.853 28.947 50.1871 28.299 48.1471C26.9617 43.9356 29.2997 39.4213 33.5117 38.0841C35.5518 37.4363 37.7224 37.6217 39.623 38.606C41.5235 39.5906 42.9274 41.2565 43.5754 43.2965C44.2232 45.3366 44.0377 47.5073 43.0534 49.4078C42.0691 51.3083 40.403 52.7123 38.363 53.3603C37.5631 53.6128 36.7432 53.7391 35.9279 53.7391ZM35.9429 40.4863C35.4103 40.4863 34.8755 40.5686 34.3535 40.7342C33.0213 41.1572 31.9339 42.0739 31.2913 43.3151C30.6486 44.5563 30.5276 45.973 30.9506 47.3052C31.3736 48.6374 32.2903 49.7248 33.531 50.3675C34.7722 51.0102 36.1889 51.1311 37.5211 50.7082C38.8533 50.2852 39.9407 49.3685 40.5834 48.128C41.2261 46.8868 41.347 45.4701 40.924 44.1379C40.501 42.8057 39.5843 41.7183 38.3439 41.0756C37.5884 40.6843 36.7686 40.4863 35.9429 40.4863Z" fill="#FFF500"/>
<path fill-rule="evenodd" clip-rule="evenodd" d="M9.22421 40.8571C9.00861 40.8571 8.79012 40.8067 8.58563 40.7012L3.80412 38.2246C0.354827 36.438 -0.998382 32.178 0.788675 28.7287C1.65372 27.0582 3.11798 25.8245 4.91204 25.255C6.70489 24.6855 8.61218 24.8482 10.2834 25.7128L14.6754 27.9882C15.3575 28.3417 15.624 29.1806 15.2706 29.8627C14.9171 30.5447 14.0781 30.8113 13.3961 30.4578L9.00451 28.1823C7.9934 27.6592 6.83913 27.5607 5.75391 27.9054C4.66796 28.2502 3.78215 28.9967 3.25825 30.0071C2.17713 32.0947 2.99582 34.6727 5.08346 35.7538L9.86496 38.2304C10.547 38.5838 10.8135 39.4228 10.4601 40.1048C10.2126 40.5836 9.7271 40.8571 9.22421 40.8571Z" fill="#FFF500"/>
<path fill-rule="evenodd" clip-rule="evenodd" d="M35.9003 74.4802C35.0287 74.4802 34.1562 74.4404 33.2817 74.3602C29.5855 74.0225 26.0307 72.987 22.7156 71.2827C19.4013 69.5787 16.4913 67.2909 14.0664 64.4824C11.5563 61.5753 9.67771 58.2347 8.48287 54.5543C6.86747 49.5775 6.65598 44.2485 7.87206 39.1442C8.78997 35.2922 10.5365 31.5727 12.9225 28.3892C16.5729 23.515 21.5592 19.9677 27.3419 18.1309L38.6651 14.5348C39.3969 14.3026 40.1791 14.7075 40.4116 15.4395L40.9592 17.1638C41.4174 18.6077 42.9652 19.409 44.4085 18.9508C45.1079 18.7289 45.6786 18.2473 46.0164 17.5962C46.3537 16.9448 46.4174 16.2009 46.1955 15.5015L45.648 13.777C45.5362 13.4252 45.5693 13.044 45.7383 12.7166C45.908 12.3893 46.2006 12.1425 46.5524 12.0305L83.3524 0.344845C84.0849 0.112591 84.8664 0.517468 85.0989 1.24924L88.9348 13.3294C89.1306 13.947 88.8744 14.6181 88.3172 14.9472L60.8286 31.1961C61.8732 33.0027 62.7221 34.9259 63.359 36.9308C64.5364 40.6379 64.9524 44.4658 64.5956 48.3081C64.2508 52.0184 63.2033 55.5848 61.4823 58.9071C59.7614 62.2301 57.4529 65.1429 54.6212 67.565C51.6893 70.0734 48.3225 71.9421 44.6147 73.1195C41.7658 74.0246 38.8443 74.4802 35.9003 74.4802ZM38.1808 17.6073L28.1832 20.7821C22.9568 22.4416 18.4493 25.6488 15.1482 30.057C12.9887 32.9387 11.4085 36.304 10.5775 39.7888C9.47997 44.396 9.67022 49.2045 11.128 53.6954C15.5316 67.2622 30.1758 74.7868 43.7728 70.4689C50.4017 68.3639 55.8136 63.8037 59.012 57.628C62.2105 51.4525 62.8131 44.4013 60.7081 37.7724C59.9995 35.5404 59 33.4209 57.7378 31.4733C57.5321 31.1553 57.4642 30.7676 57.5512 30.3984C57.6381 30.03 57.871 29.7123 58.1972 29.5194L85.9478 13.1155L82.8674 3.41558L48.7182 14.2591L48.845 14.6584C49.2916 16.066 49.1641 17.5631 48.4853 18.8743C47.8061 20.1857 46.6572 21.1539 45.2496 21.6005C42.3443 22.523 39.2298 20.9098 38.3073 18.0044L38.1808 17.6073Z" fill="white"/>
<path fill-rule="evenodd" clip-rule="evenodd" d="M39.8857 6.0107C39.2959 6.0107 38.7488 5.63287 38.5605 5.04064L37.5349 1.81201C37.3027 1.08024 37.7075 0.29801 38.4393 0.0655141C39.1711 -0.166741 39.9533 0.238136 40.1858 0.969908L41.2114 4.19854C41.4436 4.93031 41.0388 5.71254 40.3068 5.94504C40.1667 5.98946 40.0248 6.0107 39.8857 6.0107Z" fill="#FFF500"/>
<path fill-rule="evenodd" clip-rule="evenodd" d="M46.5512 7.82164C46.3356 7.82164 46.1172 7.77118 45.9127 7.66568C45.2306 7.31223 44.9641 6.47326 45.3175 5.79123L46.8757 2.78278C47.2292 2.10074 48.0681 1.8342 48.7502 2.18766C49.4322 2.54111 49.6988 3.38007 49.3453 4.06211L47.7871 7.07056C47.5397 7.54762 47.0541 7.82164 46.5512 7.82164Z" fill="#FFF500"/>
<path fill-rule="evenodd" clip-rule="evenodd" d="M35.4849 11.3354C35.2693 11.3354 35.0508 11.2849 34.8463 11.1794L31.8379 9.62125C31.1559 9.2678 30.8893 8.42884 31.2428 7.7468C31.5962 7.06476 32.4352 6.79823 33.1172 7.15168L36.1257 8.70986C36.8077 9.06331 37.0742 9.90228 36.7208 10.5843C36.4733 11.0619 35.9878 11.3354 35.4849 11.3354Z" fill="#FFF500"/>
</svg>
