<svg width="25" height="25" viewBox="0 0 25 25" fill="none" xmlns="http://www.w3.org/2000/svg">
<path d="M21.6397 15.6546L17.0264 13.5872C16.8174 13.4976 16.5893 13.4616 16.3628 13.4824C16.1364 13.5032 15.9187 13.5802 15.7295 13.7063C15.7103 13.7186 15.692 13.7324 15.6748 13.7473L13.2637 15.7981C13.2387 15.8118 13.2108 15.8194 13.1823 15.8204C13.1539 15.8214 13.1255 15.8158 13.0996 15.804C11.5498 15.0559 9.94435 13.4602 9.19337 11.9319C9.18086 11.9064 9.17436 11.8783 9.17436 11.8499C9.17436 11.8214 9.18086 11.7934 9.19337 11.7678L11.251 9.32644C11.2658 9.30838 11.2794 9.28946 11.292 9.2698C11.4164 9.07986 11.4915 8.86194 11.5106 8.63569C11.5297 8.40944 11.4922 8.182 11.4014 7.9739L9.34864 3.36843C9.23207 3.09657 9.03047 2.86984 8.77409 2.72229C8.51772 2.57473 8.2204 2.5143 7.92677 2.55007C6.65062 2.71784 5.47922 3.34454 4.63148 4.31306C3.78373 5.28158 3.31765 6.52564 3.32032 7.81277C3.32032 15.4593 9.54103 21.68 17.1875 21.68C18.4746 21.6824 19.7185 21.2163 20.687 20.3686C21.6555 19.5209 22.2822 18.3496 22.4502 17.0735C22.4859 16.7813 22.4263 16.4853 22.2803 16.2296C22.1342 15.974 21.9095 15.7723 21.6397 15.6546ZM17.1875 20.5081C10.1875 20.5081 4.4922 14.8128 4.4922 7.81277C4.48893 6.81075 4.8506 5.84181 5.50963 5.087C6.16865 4.33218 7.07995 3.84313 8.07325 3.71121H8.09571C8.13507 3.71194 8.17328 3.72455 8.20535 3.74738C8.23741 3.77021 8.26183 3.80219 8.2754 3.83914L10.3359 8.43972C10.3477 8.4653 10.3538 8.49312 10.3538 8.52127C10.3538 8.54941 10.3477 8.57723 10.3359 8.60281L8.27443 11.0501C8.25905 11.0675 8.24501 11.0862 8.23243 11.1057C8.10343 11.3027 8.02747 11.5296 8.0119 11.7645C7.99633 11.9994 8.04169 12.2343 8.14357 12.4466C9.00978 14.22 10.7969 15.9934 12.5899 16.8596C12.8033 16.961 13.0394 17.0052 13.2751 16.9881C13.5108 16.971 13.738 16.8931 13.9346 16.762C13.9531 16.7493 13.9717 16.7356 13.9893 16.721L16.3994 14.6702C16.4232 14.6574 16.4495 14.6499 16.4765 14.6482C16.5035 14.6465 16.5305 14.6507 16.5557 14.6604L21.1699 16.7278C21.2076 16.7439 21.2393 16.7714 21.2605 16.8064C21.2817 16.8415 21.2914 16.8823 21.2881 16.9231C21.1569 17.9169 20.6683 18.8289 19.9136 19.4886C19.159 20.1484 18.1899 20.5108 17.1875 20.5081Z" fill="black" fill-opacity="0.5"/>
</svg>
