<svg width="18" height="18" viewBox="0 0 18 18" fill="none" xmlns="http://www.w3.org/2000/svg">
<path d="M11.5729 8.00267C11.353 7.78274 10.9975 7.78274 10.7775 8.00267L9.00004 9.77961L7.22254 8.00211C7.0026 7.78217 6.6471 7.78217 6.42716 8.00211C6.20722 8.22205 6.20722 8.57755 6.42716 8.79749L8.20466 10.575L6.42716 12.3525C6.20722 12.5724 6.20722 12.9279 6.42716 13.1479C6.53685 13.2575 6.68085 13.3127 6.82485 13.3127C6.96885 13.3127 7.11285 13.2575 7.22254 13.1479L9.00004 11.3704L10.7775 13.1479C10.8872 13.2575 11.0312 13.3127 11.1752 13.3127C11.3192 13.3127 11.4632 13.2575 11.5729 13.1479C11.7928 12.9279 11.7928 12.5724 11.5729 12.3525L9.79541 10.575L11.5729 8.79749C11.7923 8.57811 11.7923 8.22205 11.5729 8.00267Z" fill="#CB1616"/>
<path d="M4.50403 17.4375H13.4962C14.5199 17.4375 15.353 16.605 15.353 15.5807V5.7251C15.353 5.41404 15.101 5.1626 14.7905 5.1626C14.48 5.1626 14.228 5.41404 14.228 5.7251V15.5807C14.228 15.984 13.9 16.3125 13.4962 16.3125H4.50403C4.10072 16.3125 3.77222 15.984 3.77222 15.5807V5.7251C3.77222 5.41404 3.52022 5.1626 3.20972 5.1626C2.89922 5.1626 2.64722 5.41404 2.64722 5.7251V15.5807C2.64722 16.605 3.48028 17.4375 4.50403 17.4375Z" fill="#CB1616"/>
<path d="M1.93335 3.91669H6.37879H11.6218H16.0673C16.3778 3.91669 16.6298 3.66525 16.6298 3.35419C16.6298 3.04313 16.3778 2.79169 16.0673 2.79169H12.1843V1.125C12.1843 0.813938 11.9323 0.5625 11.6218 0.5625H6.37879C6.06829 0.5625 5.81629 0.813938 5.81629 1.125V2.79169H1.93335C1.62285 2.79169 1.37085 3.04313 1.37085 3.35419C1.37085 3.66525 1.62229 3.91669 1.93335 3.91669ZM6.94072 1.6875H11.0588V2.79169H6.94072V1.6875Z" fill="#CB1616"/>
</svg>
