<svg width="40" height="36" viewBox="0 0 40 36" fill="none" xmlns="http://www.w3.org/2000/svg">
<path d="M20 33.6404H10.5063C4.81013 33.6404 1.01266 30.7615 1.01266 24.044V10.6091C1.01266 3.89158 4.81013 1.01266 10.5063 1.01266H29.4937C35.1899 1.01266 38.9873 3.89158 38.9873 10.6091V16.3669" stroke="#3D6DF5" stroke-width="2" stroke-miterlimit="10" stroke-linecap="round" stroke-linejoin="round"/>
<path d="M29.4932 11.5724L23.5501 16.3706C21.5944 17.9444 18.3856 17.9444 16.4299 16.3706L10.5058 11.5724" stroke="#3D6DF5" stroke-width="2" stroke-miterlimit="10" stroke-linecap="round" stroke-linejoin="round"/>
<path d="M33.6888 22.6484L26.9673 29.4427C26.7015 29.7114 26.4546 30.2104 26.3977 30.5751L26.0369 33.1661C25.904 34.1065 26.5496 34.7591 27.48 34.6248L30.0433 34.2601C30.404 34.2025 30.9167 33.953 31.1635 33.6843L37.8851 26.8901C39.0433 25.7193 39.5939 24.3566 37.8851 22.6293C36.1952 20.9211 34.847 21.4777 33.6888 22.6484Z" stroke="#3D6DF5" stroke-width="2" stroke-miterlimit="10" stroke-linecap="round" stroke-linejoin="round"/>
<path d="M32.72 23.6294C33.2897 25.7022 34.8846 27.3144 36.9352 27.8902" stroke="#3D6DF5" stroke-width="2" stroke-miterlimit="10" stroke-linecap="round" stroke-linejoin="round"/>
</svg>
