<svg width="31" height="31" viewBox="0 0 31 31" fill="none" xmlns="http://www.w3.org/2000/svg">
<path d="M22.6047 0C17.976 0 14.2095 3.76641 14.2095 8.39499C14.2095 13.0236 17.976 16.79 22.6047 16.79C27.2333 16.79 30.9998 13.0236 30.9998 8.39499C30.9998 3.76641 27.2333 0 22.6047 0ZM26.0999 10.0651C26.6037 10.5688 26.6037 11.3864 26.0999 11.8921C25.5962 12.3958 24.7785 12.3958 24.2728 11.8921L22.6027 10.222L20.9326 11.8921C20.4288 12.3958 19.6112 12.3958 19.1055 11.8921C18.6018 11.3884 18.6018 10.5708 19.1055 10.0651L20.7757 8.39499L19.1055 6.72491C18.6018 6.22117 18.6018 5.40356 19.1055 4.89789C19.6093 4.39221 20.4269 4.39415 20.9326 4.89789L22.6027 6.56797L24.2728 4.89789C24.7766 4.39415 25.5942 4.39415 26.0999 4.89789C26.6056 5.40162 26.6037 6.21923 26.0999 6.72491L24.4298 8.39499L26.0999 10.0651Z" fill="#FFDAAB"/>
<path d="M28.4173 19.3745H27.125V18.3922C26.3112 18.7662 25.4452 19.0374 24.5423 19.206V19.3745H5.16731V7.74979C5.16731 7.03874 5.74856 6.45751 6.45962 6.45751H11.8071C11.9621 5.55271 12.2334 4.68861 12.6073 3.87488H6.45962C4.32837 3.87488 2.58462 5.61859 2.58462 7.74979V19.3745H1.29231C0.58125 19.3745 0 19.9558 0 20.6668C0 21.3778 0.58125 21.9591 1.29231 21.9591H9.24963L6.53712 29.2575C6.29106 29.9298 6.62819 30.6776 7.29856 30.9237C8.04256 31.1717 8.73037 30.7881 8.96481 30.1623L12.0009 21.961H13.5625V27.1243C13.5625 27.8354 14.1437 28.4166 14.8548 28.4166C15.5659 28.4166 16.1471 27.8354 16.1471 27.1243V21.9571H17.7107L20.7467 30.1584C20.9812 30.7861 21.669 31.1678 22.413 30.9198C23.0853 30.6738 23.4205 29.9259 23.1744 29.2536L20.4619 21.9552H28.4192C29.1303 21.9552 29.7116 21.374 29.7116 20.6629C29.7077 19.9558 29.1264 19.3745 28.4173 19.3745Z" fill="#F5A640"/>
</svg>
