<svg width="21" height="21" viewBox="0 0 21 21" fill="none" xmlns="http://www.w3.org/2000/svg">
<g clip-path="url(#clip0_2_6955)">
<path d="M10.5127 14.875C8.10036 14.875 6.1377 12.9124 6.1377 10.5C6.1377 8.0876 8.10036 6.12494 10.5127 6.12494C12.925 6.12494 14.8876 8.0876 14.8876 10.5C14.8876 12.9124 12.925 14.875 10.5127 14.875ZM10.5127 7.43744C8.8239 7.43744 7.4502 8.8113 7.4502 10.5C7.4502 12.1887 8.8239 13.5625 10.5127 13.5625C12.2014 13.5625 13.5751 12.1887 13.5751 10.5C13.5751 8.8113 12.2014 7.43744 10.5127 7.43744Z" fill="black" fill-opacity="0.5"/>
<path d="M11.9681 21H9.05774C8.35775 21 7.73915 20.503 7.58694 19.8179L7.2186 18.1799C6.61827 17.9253 6.04597 17.5928 5.50876 17.1868L3.91364 17.6907C3.22935 17.9033 2.48562 17.6128 2.1426 17.0003L0.69199 14.4918C0.344479 13.8705 0.461757 13.1058 0.972851 12.6245L2.20909 11.4879C2.1716 11.1545 2.15317 10.8238 2.15317 10.5C2.15317 10.1762 2.1716 9.84551 2.20829 9.5121L0.978939 8.38081C0.461758 7.89423 0.343677 7.12951 0.687504 6.5162L2.14708 3.99181C2.48562 3.38619 3.23111 3.09844 3.91108 3.30753L5.50876 3.81237C6.04597 3.40638 6.61827 3.07393 7.2186 2.81918L7.58774 1.17952C7.73915 0.496994 8.35775 0 9.05774 0H11.9681C12.6681 0 13.2867 0.496994 13.4389 1.18208L13.8072 2.82014C14.4076 3.07473 14.9798 3.40718 15.5171 3.81317L17.1122 3.30929C17.7982 3.09844 18.5402 3.38715 18.8832 3.99966L20.334 6.50819C20.6813 7.12951 20.5641 7.89423 20.053 8.37552L18.8167 9.5121C18.8534 9.84551 18.8718 10.1772 18.8718 10.5C18.8718 10.8228 18.8534 11.1545 18.8167 11.4879L20.0469 12.6184C20.0486 12.6202 20.0504 12.6219 20.053 12.6237C20.5641 13.1048 20.6821 13.8697 20.3383 14.483L18.8787 17.0074C18.5402 17.6128 17.7965 17.9025 17.1139 17.6907L15.5161 17.1859C14.9789 17.5919 14.4066 17.9243 13.8064 18.1791L13.4371 19.8187C13.2867 20.503 12.6681 21 11.9681 21ZM5.6427 15.8016C5.79315 15.8016 5.94103 15.8532 6.06007 15.9512C6.66121 16.4457 7.31649 16.8271 8.0104 17.0827C8.21948 17.1596 8.37441 17.3373 8.42344 17.5542L8.86884 19.5318C8.88887 19.6228 8.96849 19.6875 9.0587 19.6875H11.9689C12.0591 19.6875 12.1387 19.6228 12.1579 19.5335L12.6041 17.5542C12.6532 17.3373 12.8081 17.1596 13.0172 17.0827C13.7101 16.8271 14.3664 16.4457 14.9675 15.9512C15.1391 15.8094 15.37 15.7639 15.5827 15.8314L17.5086 16.4396C17.6004 16.4684 17.6984 16.4343 17.7404 16.359L19.2 13.8346C19.2437 13.7567 19.2278 13.65 19.158 13.5818L17.681 12.2238C17.5207 12.0767 17.4438 11.8588 17.4762 11.6436C17.5339 11.2561 17.5629 10.8711 17.5629 10.4992C17.5629 10.1272 17.5339 9.74217 17.4762 9.35461C17.4438 9.13943 17.5207 8.92234 17.681 8.77446L19.1614 7.41293C19.2278 7.35093 19.2437 7.2423 19.1955 7.15578L17.7447 4.6471C17.6976 4.56395 17.5978 4.53078 17.5068 4.55962L15.5835 5.16685C15.3717 5.2343 15.1409 5.1888 14.9685 5.047C14.3673 4.55257 13.7119 4.1711 13.018 3.91555C12.8089 3.83865 12.654 3.66096 12.6051 3.44403L12.1597 1.46647C12.1378 1.37723 12.0581 1.3125 11.9681 1.3125H9.05774C8.96769 1.3125 8.88807 1.37723 8.86884 1.46647L8.42247 3.44579C8.37361 3.66273 8.21868 3.83945 8.00959 3.91731C7.31649 4.17286 6.66024 4.55434 6.06007 5.04877C5.88768 5.19056 5.65488 5.2351 5.445 5.16861L3.51902 4.56042C3.42898 4.53255 3.32917 4.56571 3.28719 4.64101L1.82761 7.16444C1.78387 7.24326 1.79973 7.35173 1.87231 7.41998L3.34759 8.77542C3.50765 8.92234 3.58471 9.14024 3.55235 9.35557C3.49451 9.74313 3.46567 10.1281 3.46567 10.5C3.46567 10.8719 3.49451 11.2569 3.55235 11.6444C3.58471 11.8598 3.50765 12.0767 3.34759 12.2246L1.86702 13.5861C1.80053 13.6483 1.78483 13.7567 1.8329 13.8434L3.28366 16.3519C3.32997 16.4351 3.42978 16.4675 3.52159 16.4396L5.445 15.8322C5.50972 15.8112 5.57621 15.8016 5.6427 15.8016Z" fill="black" fill-opacity="0.5"/>
</g>
<defs>
<clipPath id="clip0_2_6955">
<rect width="21" height="21" fill="white"/>
</clipPath>
</defs>
</svg>
