<svg width="20" height="20" viewBox="0 0 20 20" fill="none" xmlns="http://www.w3.org/2000/svg">
<g clip-path="url(#clip0_2_7076)">
<path d="M19.0476 10.9524H10.9524V19.0476C10.9524 19.5733 10.5267 20 10 20C9.47332 20 9.04762 19.5733 9.04762 19.0476V10.9524H0.952383C0.425703 10.9524 0 10.5257 0 10C0 9.4743 0.425703 9.04762 0.952383 9.04762H9.04762V0.952383C9.04762 0.42668 9.47332 0 10 0C10.5267 0 10.9524 0.42668 10.9524 0.952383V9.04762H19.0476C19.5743 9.04762 20 9.4743 20 10C20 10.5257 19.5743 10.9524 19.0476 10.9524Z" fill="black" fill-opacity="0.7"/>
</g>
<defs>
<clipPath id="clip0_2_7076">
<rect width="20" height="20" fill="white" transform="matrix(1 0 0 -1 0 20)"/>
</clipPath>
</defs>
</svg>
