<svg width="18" height="18" viewBox="0 0 18 18" fill="none" xmlns="http://www.w3.org/2000/svg">
<g clip-path="url(#clip0_2_6918)">
<path d="M9 0C8.7669 0 8.54335 0.092598 8.37852 0.257425C8.21369 0.422253 8.12109 0.645805 8.12109 0.878906V17.1211C8.12109 17.3542 8.21369 17.5777 8.37852 17.7426C8.54335 17.9074 8.7669 18 9 18C9.2331 18 9.45665 17.9074 9.62148 17.7426C9.78631 17.5777 9.87891 17.3542 9.87891 17.1211V0.878906C9.87891 0.645805 9.78631 0.422253 9.62148 0.257425C9.45665 0.092598 9.2331 0 9 0Z" fill="#3D6DF5"/>
<path d="M17.1211 8.12109H0.878906C0.645806 8.12109 0.422253 8.21369 0.257426 8.37852C0.0925988 8.54335 0 8.7669 0 9C0 9.2331 0.0925988 9.45665 0.257426 9.62148C0.422253 9.78631 0.645806 9.87891 0.878906 9.87891H17.1211C17.3542 9.87891 17.5777 9.78631 17.7426 9.62148C17.9074 9.45665 18 9.2331 18 9C18 8.7669 17.9074 8.54335 17.7426 8.37852C17.5777 8.21369 17.3542 8.12109 17.1211 8.12109Z" fill="#3D6DF5"/>
</g>
<defs>
<clipPath id="clip0_2_6918">
<rect width="18" height="18" fill="white" transform="matrix(1 0 0 -1 0 18)"/>
</clipPath>
</defs>
</svg>
