<svg width="28" height="24" viewBox="0 0 28 24" fill="none" xmlns="http://www.w3.org/2000/svg">
<path fill-rule="evenodd" clip-rule="evenodd" d="M11.1428 19.2603C10.3416 19.2603 9.54676 19.0683 8.81501 18.6894C7.61156 18.0662 6.72298 17.0114 6.31276 15.7199C5.90255 14.4282 6.01991 13.0541 6.64336 11.8506C7.26673 10.6472 8.32136 9.75859 9.61289 9.34838C10.9047 8.93817 12.2787 9.05553 13.4822 9.6789C14.6856 10.3023 15.5742 11.3569 15.9844 12.6484C16.3946 13.9402 16.2773 15.3143 15.654 16.5177C15.0307 17.7212 13.976 18.6097 12.6844 19.0199C12.1779 19.1805 11.6591 19.2603 11.1428 19.2603ZM11.1533 9.97085C10.7247 9.97085 10.2942 10.037 9.87399 10.1704C8.8019 10.5109 7.92665 11.2484 7.40934 12.2471C6.89194 13.2459 6.79458 14.3864 7.13506 15.4583C7.70361 17.2489 9.36543 18.395 11.1512 18.3952C11.5726 18.3952 12.0005 18.3315 12.423 18.1972C14.636 17.4944 15.8646 15.1223 15.1619 12.9092C14.8214 11.8371 14.0839 10.9618 13.0852 10.4445C12.4779 10.1301 11.8182 9.97085 11.1533 9.97085Z" fill="#3D6DF5"/>
<path fill-rule="evenodd" clip-rule="evenodd" d="M11.1461 16.6712C10.7535 16.6712 10.3642 16.5773 10.0056 16.3916C9.41597 16.0861 8.98045 15.5694 8.77942 14.9365C8.36456 13.63 9.08987 12.2295 10.3965 11.8147C11.0294 11.6137 11.7028 11.6712 12.2924 11.9766C12.882 12.282 13.3175 12.7988 13.5186 13.4317C13.7195 14.0646 13.662 14.738 13.3566 15.3276C13.0513 15.9172 12.5344 16.3527 11.9015 16.5537C11.6534 16.6321 11.399 16.6712 11.1461 16.6712ZM11.1507 12.5599C10.9855 12.5599 10.8196 12.5854 10.6577 12.6368C10.2444 12.768 9.90708 13.0524 9.7077 13.4375C9.50832 13.8225 9.4708 14.262 9.60202 14.6753C9.73324 15.0886 10.0176 15.4259 10.4025 15.6253C10.7876 15.8247 11.2271 15.8622 11.6404 15.731C12.0536 15.5998 12.391 15.3154 12.5904 14.9306C12.7897 14.5455 12.8273 14.106 12.696 13.6927C12.5648 13.2794 12.2804 12.9421 11.8956 12.7427C11.6612 12.6213 11.4069 12.5599 11.1507 12.5599Z" fill="#3D6DF5"/>
<path fill-rule="evenodd" clip-rule="evenodd" d="M2.86158 12.6749C2.7947 12.6749 2.72692 12.6593 2.66348 12.6265L1.18014 11.8582C0.110076 11.304 -0.309724 9.98242 0.244667 8.91236C0.513025 8.39415 0.967278 8.01142 1.52384 7.83474C2.08003 7.65805 2.67172 7.70853 3.19016 7.97674L4.55269 8.68265C4.76428 8.7923 4.84697 9.05257 4.73732 9.26416C4.62767 9.47574 4.3674 9.55843 4.15581 9.44878L2.79343 8.74287C2.47976 8.58057 2.12167 8.55001 1.78501 8.65696C1.44812 8.76391 1.17332 8.9955 1.01079 9.30894C0.675402 9.95658 0.92938 10.7563 1.57702 11.0917L3.06036 11.86C3.27195 11.9697 3.35463 12.2299 3.24498 12.4415C3.16821 12.5901 3.0176 12.6749 2.86158 12.6749Z" fill="#3D6DF5"/>
<path fill-rule="evenodd" clip-rule="evenodd" d="M11.1364 23.1057C10.866 23.1057 10.5953 23.0934 10.324 23.0685C9.17736 22.9637 8.07457 22.6425 7.04615 22.1138C6.01796 21.5852 5.11522 20.8754 4.36295 20.0041C3.58424 19.1023 3.00146 18.066 2.63079 16.9242C2.12966 15.3803 2.06404 13.7271 2.4413 12.1436C2.72606 10.9486 3.26787 9.79473 4.00808 8.80713C5.14053 7.29502 6.68739 6.19456 8.48133 5.62474L11.9941 4.50914C12.2211 4.43709 12.4638 4.56269 12.5359 4.78978L12.7058 5.3247C12.8479 5.77266 13.3281 6.02124 13.7758 5.87909C13.9928 5.81026 14.1699 5.66084 14.2747 5.45884C14.3793 5.25676 14.3991 5.026 14.3302 4.80903L14.1604 4.27403C14.1257 4.16491 14.1359 4.04665 14.1884 3.94508C14.241 3.84352 14.3318 3.76698 14.4409 3.73223L25.8572 0.10704C26.0845 0.0349885 26.3269 0.160592 26.399 0.387606L27.589 4.13517C27.6498 4.32676 27.5703 4.53498 27.3974 4.63706L18.8698 9.67789C19.1938 10.2383 19.4572 10.835 19.6548 11.4569C20.02 12.607 20.1491 13.7945 20.0384 14.9865C19.9314 16.1375 19.6065 17.2439 19.0726 18.2745C18.5387 19.3054 17.8225 20.2091 16.9441 20.9604C16.0345 21.7386 14.9901 22.3183 13.8398 22.6836C12.956 22.9644 12.0497 23.1057 11.1364 23.1057ZM11.8439 5.46228L8.74235 6.44719C7.12097 6.96203 5.72264 7.95697 4.69856 9.32452C4.0286 10.2185 3.5384 11.2625 3.2806 12.3436C2.94012 13.7728 2.99914 15.2646 3.45137 16.6577C4.8175 20.8665 9.36048 23.2008 13.5786 21.8613C15.6351 21.2083 17.314 19.7936 18.3062 17.8777C19.2985 15.9619 19.4854 13.7745 18.8324 11.718C18.6126 11.0256 18.3025 10.3681 17.9109 9.76387C17.8471 9.66523 17.8261 9.54494 17.853 9.43042C17.88 9.31613 17.9523 9.21757 18.0535 9.15772L26.6624 4.06882L25.7068 1.05966L15.1128 4.4236L15.1521 4.54748C15.2907 4.98414 15.2512 5.44858 15.0406 5.85534C14.8299 6.26219 14.4734 6.56253 14.0368 6.70109C13.1355 6.98727 12.1693 6.48681 11.8831 5.58549L11.8439 5.46228Z" fill="#4A4A4A"/>
<path fill-rule="evenodd" clip-rule="evenodd" d="M12.3731 1.86466C12.1902 1.86466 12.0204 1.74744 11.962 1.56372L11.6439 0.562117C11.5718 0.335103 11.6974 0.0924351 11.9244 0.0203089C12.1514 -0.0517425 12.3941 0.0738607 12.4662 0.300875L12.7844 1.30248C12.8564 1.52949 12.7308 1.77216 12.5038 1.84429C12.4603 1.85807 12.4163 1.86466 12.3731 1.86466Z" fill="#3D6DF5"/>
<path fill-rule="evenodd" clip-rule="evenodd" d="M14.441 2.42646C14.3741 2.42646 14.3063 2.41081 14.2429 2.37808C14.0313 2.26843 13.9486 2.00816 14.0582 1.79657L14.5416 0.863277C14.6513 0.651692 14.9115 0.569005 15.1231 0.678655C15.3347 0.788305 15.4174 1.04857 15.3077 1.26016L14.8244 2.19346C14.7476 2.34145 14.597 2.42646 14.441 2.42646Z" fill="#3D6DF5"/>
<path fill-rule="evenodd" clip-rule="evenodd" d="M11.0076 3.51653C10.9407 3.51653 10.8729 3.50088 10.8095 3.46815L9.87616 2.98476C9.66457 2.87511 9.58188 2.61484 9.69153 2.40326C9.80118 2.19167 10.0615 2.10898 10.273 2.21863L11.2063 2.70202C11.4179 2.81167 11.5006 3.07194 11.391 3.28352C11.3142 3.43167 11.1636 3.51653 11.0076 3.51653Z" fill="#3D6DF5"/>
</svg>
