<svg width="42" height="42" viewBox="0 0 42 42" fill="none" xmlns="http://www.w3.org/2000/svg">
<circle cx="21" cy="21" r="21" fill="white"/>
<path fill-rule="evenodd" clip-rule="evenodd" d="M18.1428 29.2603C17.3416 29.2603 16.5468 29.0683 15.815 28.6894C14.6116 28.0662 13.723 27.0114 13.3128 25.7199C12.9025 24.4282 13.0199 23.0541 13.6434 21.8506C14.2667 20.6472 15.3214 19.7586 16.6129 19.3484C17.9047 18.9382 19.2787 19.0555 20.4822 19.6789C21.6856 20.3023 22.5742 21.3569 22.9844 22.6484C23.3946 23.9402 23.2773 25.3143 22.654 26.5177C22.0307 27.7212 20.976 28.6097 19.6844 29.0199C19.1779 29.1805 18.6591 29.2603 18.1428 29.2603ZM18.1533 19.9709C17.7247 19.9709 17.2942 20.037 16.874 20.1704C15.8019 20.5109 14.9267 21.2484 14.4093 22.2471C13.8919 23.2459 13.7946 24.3864 14.1351 25.4583C14.7036 27.2489 16.3654 28.395 18.1512 28.3952C18.5726 28.3952 19.0005 28.3315 19.423 28.1972C21.636 27.4944 22.8646 25.1223 22.1619 22.9092C21.8214 21.8371 21.0839 20.9618 20.0852 20.4445C19.4779 20.1301 18.8182 19.9709 18.1533 19.9709Z" fill="#3D6DF5"/>
<path fill-rule="evenodd" clip-rule="evenodd" d="M18.1461 26.6712C17.7535 26.6712 17.3642 26.5773 17.0056 26.3916C16.416 26.0861 15.9804 25.5694 15.7794 24.9365C15.3646 23.63 16.0899 22.2295 17.3965 21.8147C18.0294 21.6137 18.7028 21.6712 19.2924 21.9766C19.882 22.282 20.3175 22.7988 20.5186 23.4317C20.7195 24.0646 20.662 24.738 20.3566 25.3276C20.0513 25.9172 19.5344 26.3527 18.9015 26.5537C18.6534 26.6321 18.399 26.6712 18.1461 26.6712ZM18.1507 22.5599C17.9855 22.5599 17.8196 22.5854 17.6577 22.6368C17.2444 22.768 16.9071 23.0524 16.7077 23.4375C16.5083 23.8225 16.4708 24.262 16.602 24.6753C16.7332 25.0886 17.0176 25.4259 17.4025 25.6253C17.7876 25.8247 18.2271 25.8622 18.6404 25.731C19.0536 25.5998 19.391 25.3154 19.5904 24.9306C19.7897 24.5455 19.8273 24.106 19.696 23.6927C19.5648 23.2794 19.2804 22.9421 18.8956 22.7427C18.6612 22.6213 18.4069 22.5599 18.1507 22.5599Z" fill="#3D6DF5"/>
<path fill-rule="evenodd" clip-rule="evenodd" d="M9.86158 22.6749C9.7947 22.6749 9.72692 22.6593 9.66348 22.6265L8.18014 21.8582C7.11008 21.304 6.69028 19.9824 7.24467 18.9124C7.51302 18.3941 7.96728 18.0114 8.52384 17.8347C9.08003 17.6581 9.67172 17.7085 10.1902 17.9767L11.5527 18.6827C11.7643 18.7923 11.847 19.0526 11.7373 19.2642C11.6277 19.4757 11.3674 19.5584 11.1558 19.4488L9.79343 18.7429C9.47976 18.5806 9.12167 18.55 8.78501 18.657C8.44812 18.7639 8.17332 18.9955 8.01079 19.3089C7.6754 19.9566 7.92938 20.7563 8.57702 21.0917L10.0604 21.86C10.2719 21.9697 10.3546 22.2299 10.245 22.4415C10.1682 22.5901 10.0176 22.6749 9.86158 22.6749Z" fill="#3D6DF5"/>
<path fill-rule="evenodd" clip-rule="evenodd" d="M18.1364 33.1057C17.866 33.1057 17.5953 33.0934 17.324 33.0685C16.1774 32.9637 15.0746 32.6425 14.0461 32.1138C13.018 31.5852 12.1152 30.8754 11.3629 30.0041C10.5842 29.1023 10.0015 28.066 9.63079 26.9242C9.12966 25.3803 9.06404 23.7271 9.4413 22.1436C9.72606 20.9486 10.2679 19.7947 11.0081 18.8071C12.1405 17.295 13.6874 16.1946 15.4813 15.6247L18.9941 14.5091C19.2211 14.4371 19.4638 14.5627 19.5359 14.7898L19.7058 15.3247C19.8479 15.7727 20.3281 16.0212 20.7758 15.8791C20.9928 15.8103 21.1699 15.6608 21.2747 15.4588C21.3793 15.2568 21.3991 15.026 21.3302 14.809L21.1604 14.274C21.1257 14.1649 21.1359 14.0466 21.1884 13.9451C21.241 13.8435 21.3318 13.767 21.4409 13.7322L32.8572 10.107C33.0845 10.035 33.3269 10.1606 33.399 10.3876L34.589 14.1352C34.6498 14.3268 34.5703 14.535 34.3974 14.6371L25.8698 19.6779C26.1938 20.2383 26.4572 20.835 26.6548 21.4569C27.02 22.607 27.1491 23.7945 27.0384 24.9865C26.9314 26.1375 26.6065 27.2439 26.0726 28.2745C25.5387 29.3054 24.8225 30.2091 23.9441 30.9604C23.0345 31.7386 21.9901 32.3183 20.8398 32.6836C19.956 32.9644 19.0497 33.1057 18.1364 33.1057ZM18.8439 15.4623L15.7424 16.4472C14.121 16.962 12.7226 17.957 11.6986 19.3245C11.0286 20.2185 10.5384 21.2625 10.2806 22.3436C9.94012 23.7728 9.99914 25.2646 10.4514 26.6577C11.8175 30.8665 16.3605 33.2008 20.5786 31.8613C22.6351 31.2083 24.314 29.7936 25.3062 27.8777C26.2985 25.9619 26.4854 23.7745 25.8324 21.718C25.6126 21.0256 25.3025 20.3681 24.9109 19.7639C24.8471 19.6652 24.8261 19.5449 24.853 19.4304C24.88 19.3161 24.9523 19.2176 25.0535 19.1577L33.6624 14.0688L32.7068 11.0597L22.1128 14.4236L22.1521 14.5475C22.2907 14.9841 22.2512 15.4486 22.0406 15.8553C21.8299 16.2622 21.4734 16.5625 21.0368 16.7011C20.1355 16.9873 19.1693 16.4868 18.8831 15.5855L18.8439 15.4623Z" fill="#4A4A4A"/>
<path fill-rule="evenodd" clip-rule="evenodd" d="M19.3731 11.8647C19.1902 11.8647 19.0204 11.7474 18.962 11.5637L18.6439 10.5621C18.5718 10.3351 18.6974 10.0924 18.9244 10.0203C19.1514 9.94826 19.3941 10.0739 19.4662 10.3009L19.7844 11.3025C19.8564 11.5295 19.7308 11.7722 19.5038 11.8443C19.4603 11.8581 19.4163 11.8647 19.3731 11.8647Z" fill="#3D6DF5"/>
<path fill-rule="evenodd" clip-rule="evenodd" d="M21.441 12.4265C21.3741 12.4265 21.3063 12.4108 21.2429 12.3781C21.0313 12.2684 20.9486 12.0082 21.0582 11.7966L21.5416 10.8633C21.6513 10.6517 21.9115 10.569 22.1231 10.6787C22.3347 10.7883 22.4174 11.0486 22.3077 11.2602L21.8244 12.1935C21.7476 12.3415 21.597 12.4265 21.441 12.4265Z" fill="#3D6DF5"/>
<path fill-rule="evenodd" clip-rule="evenodd" d="M18.0076 13.5165C17.9407 13.5165 17.8729 13.5009 17.8095 13.4681L16.8762 12.9848C16.6646 12.8751 16.5819 12.6148 16.6915 12.4033C16.8012 12.1917 17.0615 12.109 17.273 12.2186L18.2063 12.702C18.4179 12.8117 18.5006 13.0719 18.391 13.2835C18.3142 13.4317 18.1636 13.5165 18.0076 13.5165Z" fill="#3D6DF5"/>
</svg>
