<svg width="35" height="35" viewBox="0 0 35 35" fill="none" xmlns="http://www.w3.org/2000/svg">
<g clip-path="url(#clip0_2_5324)">
<path d="M34.9918 32.5172L32.2421 17.368C32.2147 17.2168 32.1209 17.0858 31.9865 17.0111L25.0657 13.1618C24.9759 13.1117 24.8752 13.0918 24.7762 13.0995L26.0354 29.3423L25.9932 29.3611L34.2759 33.0769C34.3433 33.1071 34.4149 33.122 34.4862 33.122C34.5991 33.122 34.7109 33.0849 34.8029 33.0129C34.9531 32.8956 35.0258 32.7047 34.9918 32.5172Z" fill="#44C868"/>
<path d="M17.5001 16.8416L10.4218 13.1549C10.337 13.1107 10.2429 13.0926 10.1503 13.0988C10.1748 13.0973 10.1995 13.0975 10.224 13.0994L8.96484 29.3422L17.2897 33.0769C17.3569 33.107 17.4286 33.122 17.5001 33.122V16.8416Z" fill="#44C868"/>
<path d="M10.2238 13.1002C10.1249 13.0926 10.0242 13.1125 9.93441 13.1624L3.01348 17.0118C2.87909 17.0865 2.7853 17.2174 2.75789 17.3687L0.00826313 32.5179C-0.0257799 32.7053 0.0469546 32.8962 0.19714 33.0136C0.289221 33.0856 0.400988 33.1227 0.513782 33.1227C0.585081 33.1227 0.65679 33.1079 0.724124 33.0777L8.96172 29.3821L10.2238 13.1002Z" fill="#4CE166"/>
<path d="M24.7761 13.0996C24.708 13.1049 24.6407 13.123 24.5783 13.1555L17.5 16.8422V33.1225H17.5001C17.5715 33.1225 17.6433 33.1076 17.7104 33.0775L26.0353 29.3427L24.7761 13.0996Z" fill="#4CE166"/>
<path d="M1.92465 21.9593L1.36609 25.0367L9.63718 20.6682L9.8292 18.1909L9.86106 17.78L1.92465 21.9593Z" fill="#FFDB56"/>
<path d="M9.71155 19.708L9.63711 20.6686L1.36602 25.0372L0.00826313 32.518C-0.0257799 32.7054 0.0469546 32.8963 0.19714 33.0137C0.289221 33.0857 0.400988 33.1228 0.513782 33.1228C0.585081 33.1228 0.65679 33.108 0.724124 33.0778L8.96172 29.3822L9.71155 19.708Z" fill="#A8EEFC"/>
<path d="M17.5021 18.8729L9.86096 17.7803L9.63708 20.6684L17.5 32.6094V28.2673L12.808 20.8791L17.5021 21.4406V18.8729Z" fill="#FFBB24"/>
<path d="M31.4417 16.7086L28.117 14.8594L24.9696 15.5948L25.009 16.1031L25.1644 18.1084L31.4417 16.7086Z" fill="#FFBB24"/>
<path d="M25.4435 21.7093L25.1455 17.8642L24.9696 15.5947L17.5021 18.8727V21.4404L22.3799 19.3192L25.4435 21.7093Z" fill="#FFDB56"/>
<path d="M34.9918 32.5177L34.3012 28.7124L25.1644 18.1084L25.4436 21.7094L34.8136 33.0039C34.9561 32.8858 35.0249 32.7004 34.9918 32.5177Z" fill="#FFBB24"/>
<path d="M17.5331 1.87793C13.5708 1.87793 10.3472 5.09889 10.3472 9.058C10.3472 11.507 11.5099 14.1364 13.8032 16.873C15.4875 18.883 17.1489 20.1757 17.2188 20.2298C17.3114 20.3014 17.4222 20.3371 17.5332 20.3371C17.6441 20.3371 17.755 20.3014 17.8476 20.2298C17.9174 20.1757 19.5789 18.883 21.2632 16.873C23.5565 14.1364 24.7192 11.5071 24.7192 9.058C24.7191 5.09889 21.4954 1.87793 17.5331 1.87793ZM20.1944 9.05793C20.1944 10.5264 19.0028 11.717 17.5331 11.717C16.0634 11.717 14.8719 10.5265 14.8719 9.05793C14.8719 7.58937 16.0634 6.39889 17.5331 6.39889C19.0028 6.39889 20.1944 7.58944 20.1944 9.05793Z" fill="#FF4A4A"/>
<path d="M17.5328 1.87793C17.2188 1.87793 16.9095 1.8983 16.606 1.93754C20.1321 2.39329 22.8651 5.41266 22.8651 9.058C22.8651 11.507 21.7024 14.1364 19.4091 16.873C18.326 18.1655 17.253 19.1608 16.606 19.7215C16.9652 20.0326 17.1936 20.2105 17.2185 20.2298C17.3111 20.3014 17.422 20.3371 17.5329 20.3371C17.6438 20.3371 17.7547 20.3014 17.8473 20.2298C17.9172 20.1757 19.5786 18.883 21.2629 16.873C23.5562 14.1364 24.7189 11.5071 24.7189 9.058C24.7188 5.09889 21.4952 1.87793 17.5328 1.87793Z" fill="#E7343F"/>
<path d="M17.7104 33.0778L20.8061 31.689L17.5 28.2676V33.1229H17.5001C17.5715 33.1229 17.6432 33.108 17.7104 33.0778Z" fill="#FFDB56"/>
<path d="M32.2422 17.368C32.2148 17.2167 32.121 17.0858 31.9866 17.011L31.4418 16.708L25.1646 18.1078L34.3012 28.7118L32.2422 17.368Z" fill="#1EA4E9"/>
<path d="M17.5001 33.1219C17.5002 33.1219 17.5002 33.1219 17.5001 33.1219V32.6087L9.6373 20.6677L8.96484 29.3422L17.2897 33.077C17.3569 33.1071 17.4286 33.1219 17.5001 33.1219Z" fill="#1EA4E9"/>
</g>
<defs>
<clipPath id="clip0_2_5324">
<rect width="35" height="35" fill="white"/>
</clipPath>
</defs>
</svg>
