<svg width="35" height="35" viewBox="0 0 35 35" fill="none" xmlns="http://www.w3.org/2000/svg">
<g id="Capa_1" clip-path="url(#clip0_1071_2785)">
<g id="Group">
<g id="Group_2">
<path id="Vector" d="M1.59092 12.7273C0.636382 12.7273 0 12.0909 0 11.1363V4.77271C0 2.06816 2.06816 0 4.77271 0H11.1363C12.0909 0 12.7273 0.636382 12.7273 1.59092C12.7273 2.54547 12.0909 3.18185 11.1363 3.18185H4.77271C3.81817 3.18185 3.18178 3.81823 3.18178 4.77277V11.1364C3.18185 12.0909 2.54547 12.7273 1.59092 12.7273Z" fill="#3D6DF5"/>
</g>
<g id="Group_3">
<path id="Vector_2" d="M33.4089 12.7273C32.4543 12.7273 31.8179 12.0909 31.8179 11.1363V4.77271C31.8179 3.81817 31.1816 3.18178 30.227 3.18178H23.8634C22.9088 3.18178 22.2725 2.5454 22.2725 1.59086C22.2725 0.636318 22.9088 0 23.8634 0H30.227C32.9316 0 34.9997 2.06816 34.9997 4.77271V11.1363C34.9998 12.0909 34.3634 12.7273 33.4089 12.7273Z" fill="#3D6DF5"/>
</g>
<g id="Group_4">
<path id="Vector_3" d="M11.1363 35.0002H4.77271C2.06816 35.0002 0 32.9321 0 30.2275V23.8639C0 22.9093 0.636382 22.2729 1.59092 22.2729C2.54547 22.2729 3.18185 22.9093 3.18185 23.8639V30.2275C3.18185 31.182 3.81823 31.8184 4.77277 31.8184H11.1364C12.0909 31.8184 12.7273 32.4548 12.7273 33.4094C12.7273 34.3638 12.0909 35.0002 11.1363 35.0002Z" fill="#3D6DF5"/>
</g>
<g id="Group_5">
<path id="Vector_4" d="M30.227 34.9998H23.8634C22.9088 34.9998 22.2725 34.3634 22.2725 33.4089C22.2725 32.4543 22.9088 31.8179 23.8634 31.8179H30.227C31.1816 31.8179 31.8179 31.1816 31.8179 30.227V23.8634C31.8179 22.9088 32.4543 22.2725 33.4089 22.2725C34.3634 22.2725 34.9998 22.9088 34.9998 23.8634V30.227C34.9997 32.9316 32.9316 34.9998 30.227 34.9998Z" fill="#3D6DF5"/>
</g>
<g id="Group_6">
<path id="Vector_5" d="M14.3178 15.9092H7.9542C6.99966 15.9092 6.36328 15.2729 6.36328 14.3183V7.95469C6.36328 7.00015 6.99966 6.36377 7.9542 6.36377H14.3178C15.2724 6.36377 15.9088 7.00015 15.9088 7.95469V14.3183C15.9088 15.2729 15.2724 15.9092 14.3178 15.9092ZM9.54513 12.7274H12.727V9.54555H9.54513V12.7274Z" fill="#3D6DF5"/>
</g>
<g id="Group_7">
<path id="Vector_6" d="M14.3178 28.6363H7.9542C6.99966 28.6363 6.36328 27.9999 6.36328 27.0454V20.6817C6.36328 19.7272 6.99966 19.0908 7.9542 19.0908H14.3178C15.2724 19.0908 15.9088 19.7272 15.9088 20.6817V27.0454C15.9088 27.9999 15.2724 28.6363 14.3178 28.6363ZM9.54513 25.4545H12.727V22.2726H9.54513V25.4545Z" fill="#3D6DF5"/>
</g>
<g id="Group_8">
<path id="Vector_7" d="M27.0454 15.9092H20.6817C19.7272 15.9092 19.0908 15.2729 19.0908 14.3183V7.95469C19.0908 7.00015 19.7272 6.36377 20.6817 6.36377H27.0454C27.9999 6.36377 28.6363 7.00015 28.6363 7.95469V14.3183C28.6363 15.2729 27.9999 15.9092 27.0454 15.9092ZM22.2727 12.7274H25.4545V9.54555H22.2727V12.7274Z" fill="#3D6DF5"/>
</g>
<g id="Group_9">
<path id="Vector_8" d="M20.6817 23.8636C19.7272 23.8636 19.0908 23.2272 19.0908 22.2727V20.6817C19.0908 19.7272 19.7272 19.0908 20.6817 19.0908C21.6363 19.0908 22.2727 19.7272 22.2727 20.6817V22.2727C22.2727 23.2273 21.6363 23.8636 20.6817 23.8636Z" fill="#3D6DF5"/>
</g>
<g id="Group_10">
<path id="Vector_9" d="M27.0451 22.2727H25.4542C24.4997 22.2727 23.8633 21.6363 23.8633 20.6817C23.8633 19.7272 24.4997 19.0908 25.4542 19.0908H27.0451C27.9997 19.0908 28.6361 19.7272 28.6361 20.6817C28.6361 21.6363 27.9997 22.2727 27.0451 22.2727Z" fill="#3D6DF5"/>
</g>
<g id="Group_11">
<path id="Vector_10" d="M27.0453 28.6364H22.2726C21.318 28.6364 20.6816 28.0001 20.6816 27.0455C20.6816 26.091 21.318 25.4546 22.2726 25.4546H27.0453C27.9998 25.4546 28.6362 26.091 28.6362 27.0455C28.6362 28.0001 27.9998 28.6364 27.0453 28.6364Z" fill="#3D6DF5"/>
</g>
</g>
</g>
<defs>
<clipPath id="clip0_1071_2785">
<rect width="35" height="35" fill="white"/>
</clipPath>
</defs>
</svg>
